{"glyphs":{"0":{"ha":789,"x_min":71,"x_max":718,"o":"m 718 380 q 631 87 718 188 q 395 -14 545 -14 q 158 87 245 -14 q 71 380 71 188 l 71 606 q 157 900 71 798 q 394 1002 244 1002 q 631 900 543 1002 q 718 606 718 798 l 718 380 m 553 631 q 513 811 553 753 q 394 869 472 869 q 276 811 316 869 q 235 631 235 753 l 235 357 q 276 176 235 235 q 395 117 317 117 q 513 176 473 117 q 553 357 553 234 l 553 631 z "},"1":{"ha":789,"x_min":121,"x_max":487,"o":"m 487 0 l 322 0 l 322 831 l 121 831 l 121 952 l 487 987 l 487 0 z "},"2":{"ha":789,"x_min":56,"x_max":730,"o":"m 730 0 l 74 0 l 74 113 l 395 464 q 504 605 474 550 q 534 713 534 661 q 495 825 534 780 q 391 869 456 869 q 262 821 304 869 q 220 686 220 772 l 60 686 l 59 690 q 145 912 56 822 q 391 1002 235 1002 q 616 923 533 1002 q 699 718 699 844 q 651 555 699 633 q 503 368 603 478 l 283 136 l 285 132 l 730 132 l 730 0 z "},"3":{"ha":789,"x_min":54,"x_max":709,"o":"m 264 568 l 379 568 q 494 608 459 568 q 530 720 530 648 q 492 830 530 791 q 380 869 454 869 q 270 831 313 869 q 228 730 228 793 l 69 730 l 68 734 q 152 925 64 848 q 378 1002 241 1002 q 608 928 522 1002 q 694 720 694 855 q 656 598 694 657 q 546 507 617 539 q 670 416 630 477 q 709 277 709 355 q 616 63 709 141 q 378 -14 523 -14 q 148 59 241 -14 q 58 260 54 132 l 60 264 l 218 264 q 262 158 218 199 q 380 117 307 117 q 500 159 456 117 q 545 276 545 200 q 504 399 545 359 q 379 439 464 439 l 264 439 l 264 568 z "},"4":{"ha":789,"x_min":38,"x_max":755,"o":"m 630 352 l 755 352 l 755 219 l 630 219 l 630 0 l 466 0 l 466 219 l 42 219 l 38 320 l 460 987 l 630 987 l 630 352 m 201 352 l 466 352 l 466 753 l 462 754 l 448 725 l 201 352 z "},"5":{"ha":789,"x_min":88,"x_max":720,"o":"m 106 441 l 163 987 l 684 987 l 684 845 l 300 845 l 270 597 q 337 633 299 619 q 424 648 376 647 q 642 560 563 650 q 720 315 720 471 q 637 78 720 170 q 398 -14 555 -14 q 178 57 268 -14 q 92 260 88 129 l 93 264 l 247 269 q 289 157 247 197 q 398 117 331 117 q 515 171 475 117 q 555 314 555 225 q 514 459 555 404 q 396 515 473 515 q 295 493 328 515 q 248 430 262 471 l 106 441 z "},"6":{"ha":789,"x_min":79,"x_max":742,"o":"m 461 1002 q 563 990 514 1002 q 650 961 612 979 l 619 833 q 545 859 581 850 q 462 868 509 868 q 303 792 363 868 q 243 586 243 715 l 243 581 q 337 639 283 618 q 456 659 391 659 q 665 567 588 659 q 742 331 742 474 q 654 83 742 180 q 422 -14 566 -14 q 175 92 272 -14 q 79 387 79 197 l 79 576 q 188 885 79 768 q 461 1002 296 1002 m 415 531 q 309 509 353 531 q 243 449 266 487 l 243 378 q 293 185 243 253 q 422 117 344 117 q 536 179 494 117 q 577 331 577 241 q 534 475 577 420 q 415 531 490 531 z "},"7":{"ha":789,"x_min":47,"x_max":729,"o":"m 729 855 q 499 494 559 655 q 412 104 439 334 l 402 0 l 237 0 l 248 104 q 353 510 274 328 q 570 855 433 692 l 47 855 l 47 987 l 729 987 l 729 855 z "},"8":{"ha":789,"x_min":66,"x_max":723,"o":"m 698 727 q 657 595 698 652 q 547 507 616 537 q 675 413 627 475 q 723 269 723 351 q 632 59 723 132 q 395 -14 541 -14 q 157 59 248 -14 q 66 269 66 132 q 113 413 66 351 q 242 507 160 475 q 132 594 172 537 q 92 727 92 652 q 175 930 92 859 q 394 1002 258 1002 q 613 930 529 1002 q 698 727 698 859 m 559 277 q 512 395 559 350 q 394 441 466 441 q 276 396 321 441 q 231 277 231 351 q 275 160 231 203 q 395 117 320 117 q 513 160 468 117 q 559 277 559 203 m 533 721 q 494 828 533 786 q 394 869 456 869 q 293 829 330 869 q 256 721 256 789 q 294 613 256 654 q 395 573 332 573 q 495 613 458 573 q 533 721 533 654 z "},"9":{"ha":789,"x_min":56,"x_max":710,"o":"m 349 117 q 492 183 437 117 q 546 374 546 248 l 546 419 q 465 350 513 374 q 360 327 417 327 q 137 416 219 327 q 56 661 56 505 q 147 905 56 808 q 374 1002 239 1002 q 618 901 527 1002 q 710 611 710 800 l 710 380 q 609 89 710 193 q 349 -14 509 -14 q 244 -4 298 -14 q 144 26 190 6 l 166 153 q 251 125 208 134 q 349 117 294 117 m 376 455 q 481 479 437 455 q 546 543 524 504 l 546 631 q 502 809 546 748 q 376 869 458 869 q 265 810 310 869 q 220 661 220 751 q 261 512 220 568 q 376 455 302 455 z "},"\r":{"ha":346,"x_min":0,"x_max":0,"o":""}," ":{"ha":346,"x_min":0,"x_max":0,"o":""},"!":{"ha":372,"x_min":104,"x_max":269,"o":"m 269 333 l 104 333 l 104 987 l 269 987 l 269 333 m 269 0 l 104 0 l 104 159 l 269 159 l 269 0 z "},"\"":{"ha":450,"x_min":45,"x_max":406,"o":"m 190 873 l 121 704 l 45 704 l 45 1059 l 190 1059 l 190 873 m 406 873 l 336 704 l 260 704 l 260 1059 l 406 1059 l 406 873 z "},"#":{"ha":848,"x_min":41,"x_max":798,"o":"m 463 278 l 311 278 l 259 0 l 146 0 l 197 278 l 41 278 l 41 385 l 218 385 l 257 597 l 92 597 l 92 705 l 277 705 l 330 987 l 444 987 l 391 705 l 543 705 l 595 987 l 709 987 l 656 705 l 798 705 l 798 597 l 636 597 l 597 385 l 747 385 l 747 278 l 576 278 l 525 0 l 412 0 l 463 278 m 331 385 l 484 385 l 523 597 l 370 597 l 331 385 z "},"$":{"ha":789,"x_min":68,"x_max":720,"o":"m 555 258 q 518 353 555 315 q 392 422 480 391 q 177 540 249 471 q 106 728 106 609 q 174 913 106 840 q 360 999 243 985 l 360 1147 l 469 1147 l 469 998 q 650 898 585 980 q 715 682 715 817 l 551 682 q 513 816 551 766 q 409 865 475 865 q 305 828 340 865 q 271 729 271 791 q 307 634 271 671 q 437 564 343 597 q 650 445 581 513 q 720 259 720 377 q 649 72 720 142 q 454 -11 578 2 l 454 -143 l 347 -143 l 347 -12 q 147 76 225 1 q 71 297 68 151 l 73 300 l 233 300 q 280 163 233 204 q 397 121 327 121 q 514 158 473 121 q 555 258 555 195 z "},"%":{"ha":1020,"x_min":68,"x_max":961,"o":"m 68 798 q 124 943 68 884 q 277 1002 180 1002 q 430 943 374 1002 q 486 798 486 885 l 486 745 q 430 601 486 659 q 278 543 374 543 q 124 601 180 543 q 68 745 68 659 l 68 798 m 182 745 q 207 672 182 702 q 278 642 232 642 q 347 671 323 642 q 371 745 371 701 l 371 798 q 346 872 371 842 q 277 903 321 903 q 207 872 231 903 q 182 798 182 842 l 182 745 m 543 242 q 599 387 543 328 q 751 446 655 446 q 905 387 849 446 q 961 242 961 329 l 961 189 q 905 44 961 102 q 753 -14 849 -14 q 599 44 655 -14 q 543 189 543 102 l 543 242 m 657 189 q 683 115 657 146 q 753 85 708 85 q 823 114 800 85 q 846 189 846 144 l 846 242 q 822 316 846 286 q 751 347 797 347 q 682 316 706 347 q 657 242 657 286 l 657 189 m 312 74 l 227 123 l 709 895 l 794 846 l 312 74 z "},"&":{"ha":888,"x_min":42,"x_max":859,"o":"m 42 267 q 88 408 42 348 q 227 529 134 468 q 153 646 177 593 q 128 752 128 698 q 198 935 128 868 q 387 1002 268 1002 q 562 937 494 1002 q 629 781 629 872 q 594 662 629 714 q 496 564 559 610 l 428 515 l 635 269 q 677 363 662 312 q 692 471 692 414 l 826 471 q 801 300 826 378 q 726 161 777 222 l 859 3 l 858 0 l 672 0 l 617 64 q 498 6 562 26 q 364 -14 435 -14 q 130 64 217 -14 q 42 267 42 142 m 369 117 q 452 130 411 117 q 531 165 494 142 l 309 428 l 288 413 q 223 340 239 375 q 207 272 207 304 q 250 161 207 204 q 369 117 292 117 m 283 754 q 299 687 283 722 q 349 610 316 652 l 426 662 q 478 714 465 687 q 491 775 491 742 q 462 841 491 812 q 387 869 433 869 q 310 836 336 869 q 283 754 283 803 z "},"'":{"ha":235,"x_min":45,"x_max":190,"o":"m 190 889 l 121 697 l 45 697 l 45 1058 l 190 1058 l 190 889 z "},"(":{"ha":471,"x_min":87,"x_max":457,"o":"m 87 401 q 193 856 87 669 q 422 1101 299 1044 l 427 1101 l 457 1010 q 301 788 366 941 q 237 403 237 635 l 237 389 q 301 4 237 157 q 457 -222 366 -149 l 427 -309 l 422 -309 q 193 -64 298 -251 q 87 391 87 123 l 87 401 z "},")":{"ha":475,"x_min":12,"x_max":387,"o":"m 387 391 q 279 -62 387 127 q 47 -309 171 -252 l 43 -309 l 12 -222 q 167 1 102 -153 q 232 389 232 156 l 232 403 q 165 788 232 633 q 12 1014 98 943 l 43 1101 l 47 1101 q 279 854 170 1044 q 387 401 387 665 l 387 391 z "},"*":{"ha":607,"x_min":18,"x_max":587,"o":"m 220 659 l 18 720 l 54 834 l 255 755 l 246 987 l 364 987 l 354 750 l 551 828 l 587 712 l 382 652 l 514 472 l 418 401 l 298 595 l 180 406 l 83 475 l 220 659 z "},"+":{"ha":774,"x_min":46,"x_max":723,"o":"m 465 543 l 723 543 l 723 393 l 465 393 l 465 99 l 305 99 l 305 393 l 46 393 l 46 543 l 305 543 l 305 818 l 465 818 l 465 543 z "},",":{"ha":313,"x_min":37,"x_max":246,"o":"m 246 21 l 141 -191 l 37 -191 l 84 27 l 84 161 l 246 161 l 246 21 z "},"-":{"ha":456,"x_min":48,"x_max":404,"o":"m 404 353 l 48 353 l 48 486 l 404 486 l 404 353 z "},".":{"ha":388,"x_min":104,"x_max":268,"o":"m 268 0 l 104 0 l 104 158 l 268 158 l 268 0 z "},"/":{"ha":569,"x_min":1,"x_max":541,"o":"m 153 -85 l 1 -85 l 390 987 l 541 987 l 153 -85 z "},":":{"ha":372,"x_min":104,"x_max":268,"o":"m 268 0 l 104 0 l 104 158 l 268 158 l 268 0 m 268 594 l 104 594 l 104 752 l 268 752 l 268 594 z "},";":{"ha":369,"x_min":71,"x_max":281,"o":"m 269 594 l 104 594 l 104 752 l 269 752 l 269 594 m 281 21 l 176 -191 l 71 -191 l 119 27 l 119 161 l 281 161 l 281 21 z "},"<":{"ha":706,"x_min":43,"x_max":610,"o":"m 218 379 l 205 377 l 205 373 l 218 371 l 610 223 l 610 58 l 43 311 l 43 441 l 610 694 l 610 530 l 218 379 z "},"=":{"ha":791,"x_min":98,"x_max":683,"o":"m 683 536 l 98 536 l 98 673 l 683 673 l 683 536 m 683 248 l 98 248 l 98 385 l 683 385 l 683 248 z "},">":{"ha":723,"x_min":87,"x_max":673,"o":"m 87 532 l 87 694 l 673 441 l 673 311 l 87 58 l 87 220 l 497 374 l 509 375 l 510 379 l 497 382 l 87 532 z "},"?":{"ha":675,"x_min":30,"x_max":629,"o":"m 231 279 q 253 418 231 376 q 349 523 275 460 q 433 622 402 574 q 465 726 465 669 q 429 828 465 791 q 328 864 393 864 q 232 833 271 864 q 193 742 193 802 l 34 742 l 32 746 q 113 934 30 867 q 328 1002 196 1002 q 550 929 470 1002 q 629 728 629 857 q 579 568 629 642 q 454 433 530 494 q 405 369 415 399 q 395 279 395 338 l 231 279 m 398 0 l 230 0 l 230 158 l 398 158 l 398 0 z "},"@":{"ha":1238,"x_min":50,"x_max":1185,"o":"m 1174 344 q 1090 92 1168 197 q 857 -14 1012 -14 q 769 14 806 -14 q 715 95 732 43 q 637 14 684 41 q 528 -13 590 -13 q 389 68 437 -13 q 353 282 340 149 q 448 561 369 456 q 640 666 527 666 q 760 648 714 666 q 860 594 806 631 l 858 591 l 861 591 l 827 199 q 839 104 821 130 q 886 79 857 79 q 1015 154 966 79 q 1069 344 1063 229 q 974 732 1080 593 q 646 871 868 871 q 314 721 438 871 q 179 324 189 571 q 279 -66 167 77 q 602 -208 391 -208 q 722 -195 661 -208 q 826 -159 783 -181 l 852 -247 q 736 -291 806 -275 q 599 -307 666 -307 q 193 -138 336 -307 q 62 324 50 31 q 233 789 74 612 q 648 966 391 966 q 1046 799 908 966 q 1174 344 1185 632 m 489 282 q 503 145 482 192 q 570 98 523 98 q 644 115 610 98 q 704 174 677 132 q 704 185 704 180 q 705 199 705 191 l 736 548 q 703 558 720 554 q 666 562 685 562 q 544 492 586 562 q 489 282 502 422 z "},"A":{"ha":895,"x_min":11,"x_max":888,"o":"m 643 231 l 256 231 l 178 0 l 11 0 l 374 987 l 530 987 l 888 0 l 721 0 l 643 231 m 304 368 l 596 368 l 453 790 l 449 790 l 304 368 z "},"B":{"ha":890,"x_min":108,"x_max":822,"o":"m 108 0 l 108 987 l 436 987 q 692 920 600 987 q 785 718 785 852 q 746 598 785 651 q 639 519 707 545 q 774 435 727 500 q 822 283 822 370 q 731 72 822 144 q 480 0 640 0 l 108 0 m 273 449 l 273 132 l 480 132 q 612 171 566 132 q 658 283 658 210 q 619 406 658 362 q 498 449 581 449 l 273 449 m 273 572 l 454 572 q 575 608 531 572 q 620 711 620 644 q 573 820 620 784 q 436 855 526 855 l 273 855 l 273 572 z "},"C":{"ha":883,"x_min":72,"x_max":833,"o":"m 828 328 l 829 323 q 732 80 832 174 q 461 -14 632 -14 q 180 102 288 -14 q 72 399 72 218 l 72 587 q 179 885 72 768 q 456 1002 286 1002 q 732 910 631 1002 q 830 663 833 818 l 829 659 l 669 659 q 615 814 669 758 q 456 869 562 869 q 296 789 355 869 q 237 589 237 709 l 237 399 q 297 197 237 277 q 461 117 358 117 q 616 172 564 117 q 669 328 669 227 l 828 328 z "},"D":{"ha":913,"x_min":108,"x_max":851,"o":"m 108 0 l 108 987 l 428 987 q 733 870 616 987 q 851 568 851 753 l 851 418 q 733 117 851 233 q 428 0 616 0 l 108 0 m 273 855 l 273 132 l 423 132 q 616 212 546 132 q 686 418 686 292 l 686 570 q 616 775 686 695 q 423 855 546 855 l 273 855 z "},"E":{"ha":805,"x_min":108,"x_max":774,"o":"m 705 444 l 273 444 l 273 132 l 774 132 l 774 0 l 108 0 l 108 987 l 769 987 l 769 855 l 273 855 l 273 576 l 705 576 l 705 444 z "},"F":{"ha":806,"x_min":108,"x_max":774,"o":"m 705 421 l 273 421 l 273 0 l 108 0 l 108 987 l 774 987 l 774 855 l 273 855 l 273 553 l 705 553 l 705 421 z "},"G":{"ha":938,"x_min":75,"x_max":844,"o":"m 844 134 q 714 32 804 77 q 484 -14 625 -14 q 190 99 305 -14 q 75 391 75 212 l 75 597 q 183 889 75 776 q 465 1002 292 1002 q 735 916 639 1002 q 834 692 832 830 l 833 688 l 677 688 q 619 820 671 770 q 467 869 566 869 q 301 793 364 869 q 239 598 239 716 l 239 391 q 307 194 239 271 q 484 117 375 117 q 609 135 561 117 q 679 178 657 153 l 679 378 l 483 378 l 483 502 l 844 502 l 844 134 z "},"H":{"ha":987,"x_min":108,"x_max":879,"o":"m 879 0 l 715 0 l 715 421 l 273 421 l 273 0 l 108 0 l 108 987 l 273 987 l 273 553 l 715 553 l 715 987 l 879 987 l 879 0 z "},"I":{"ha":399,"x_min":117,"x_max":282,"o":"m 282 0 l 117 0 l 117 987 l 282 987 l 282 0 z "},"J":{"ha":779,"x_min":40,"x_max":677,"o":"m 512 987 l 677 987 l 677 286 q 589 66 677 147 q 362 -14 500 -14 q 127 60 214 -14 q 43 276 40 134 l 45 280 l 204 280 q 246 157 204 196 q 362 117 288 117 q 470 163 427 117 q 512 286 512 208 l 512 987 z "},"K":{"ha":895,"x_min":108,"x_max":900,"o":"m 387 427 l 273 427 l 273 0 l 108 0 l 108 987 l 273 987 l 273 569 l 367 569 l 677 987 l 872 987 l 513 516 l 900 0 l 699 0 l 387 427 z "},"L":{"ha":751,"x_min":108,"x_max":726,"o":"m 273 132 l 726 132 l 726 0 l 108 0 l 108 987 l 273 987 l 273 132 z "},"M":{"ha":1217,"x_min":108,"x_max":1108,"o":"m 321 987 l 606 228 l 610 228 l 895 987 l 1108 987 l 1108 0 l 943 0 l 943 336 l 960 764 l 956 765 l 663 0 l 552 0 l 260 763 l 256 762 l 273 336 l 273 0 l 108 0 l 108 987 l 321 987 z "},"N":{"ha":987,"x_min":108,"x_max":879,"o":"m 879 0 l 715 0 l 277 721 l 273 720 l 273 0 l 108 0 l 108 987 l 273 987 l 711 267 l 715 269 l 715 987 l 879 987 l 879 0 z "},"O":{"ha":948,"x_min":70,"x_max":878,"o":"m 878 405 q 764 105 878 224 q 469 -14 650 -14 q 181 105 292 -14 q 70 405 70 224 l 70 583 q 181 882 70 763 q 469 1002 292 1002 q 764 882 650 1002 q 878 583 878 763 l 878 405 m 713 584 q 647 787 713 707 q 469 866 581 866 q 297 787 360 866 q 234 584 234 707 l 234 405 q 297 200 234 280 q 469 121 360 121 q 648 200 583 121 q 713 405 713 279 l 713 584 z "},"P":{"ha":897,"x_min":108,"x_max":842,"o":"m 273 374 l 273 0 l 108 0 l 108 987 l 494 987 q 750 903 657 987 q 842 681 842 819 q 750 458 842 542 q 494 374 657 374 l 273 374 m 273 507 l 494 507 q 631 555 585 507 q 677 680 677 604 q 631 805 677 755 q 494 855 585 855 l 273 855 l 273 507 z "},"Q":{"ha":959,"x_min":70,"x_max":922,"o":"m 878 405 q 846 235 878 313 q 758 99 815 156 l 922 -60 l 812 -159 l 631 15 q 553 -7 594 0 q 469 -14 513 -14 q 181 105 292 -14 q 70 405 70 224 l 70 583 q 181 882 70 763 q 469 1002 292 1002 q 764 882 650 1002 q 878 583 878 763 l 878 405 m 713 584 q 647 787 713 707 q 469 866 581 866 q 297 787 360 866 q 234 584 234 707 l 234 405 q 297 200 234 280 q 469 121 360 121 q 648 200 583 121 q 713 405 713 279 l 713 584 z "},"R":{"ha":920,"x_min":108,"x_max":867,"o":"m 273 410 l 273 0 l 108 0 l 108 987 l 473 987 q 728 913 638 987 q 819 700 819 838 q 779 568 819 623 q 663 479 739 513 q 783 393 747 453 q 820 245 820 333 l 820 163 q 831 79 820 120 q 867 16 842 37 l 867 0 l 698 0 q 663 71 671 22 q 655 165 655 119 l 655 244 q 612 365 655 320 q 492 410 568 410 l 273 410 m 273 542 l 464 542 q 608 580 563 542 q 654 696 654 618 q 609 813 654 770 q 473 855 564 855 l 273 855 l 273 542 z "},"S":{"ha":873,"x_min":62,"x_max":808,"o":"m 643 254 q 597 355 643 315 q 435 425 551 394 q 181 540 270 469 q 92 728 92 612 q 190 924 92 847 q 445 1002 289 1002 q 706 914 608 1002 q 802 704 805 827 l 800 700 l 642 700 q 591 823 642 776 q 444 870 539 870 q 305 831 353 870 q 256 729 256 791 q 309 635 256 673 q 483 565 361 598 q 725 447 642 522 q 808 255 808 372 q 709 59 808 132 q 450 -14 610 -14 q 178 67 295 -14 q 65 292 62 149 l 66 296 l 225 296 q 288 161 225 205 q 450 117 350 117 q 592 154 541 117 q 643 254 643 191 z "},"T":{"ha":804,"x_min":21,"x_max":783,"o":"m 783 855 l 484 855 l 484 0 l 319 0 l 319 855 l 21 855 l 21 987 l 783 987 l 783 855 z "},"U":{"ha":947,"x_min":91,"x_max":858,"o":"m 858 987 l 858 326 q 751 74 858 161 q 471 -14 644 -14 q 196 74 301 -14 q 91 326 91 162 l 91 987 l 256 987 l 256 326 q 314 170 256 222 q 471 117 372 117 q 633 170 572 117 q 693 326 693 222 l 693 987 l 858 987 z "},"V":{"ha":882,"x_min":10,"x_max":871,"o":"m 421 258 l 439 190 l 443 190 l 460 257 l 696 987 l 871 987 l 519 0 l 362 0 l 10 987 l 186 987 l 421 258 z "},"W":{"ha":1229,"x_min":27,"x_max":1196,"o":"m 347 263 l 347 262 l 348 265 l 545 987 l 677 987 l 876 263 l 877 258 l 878 265 l 1034 987 l 1196 987 l 961 0 l 811 0 l 614 709 l 610 709 l 412 0 l 261 0 l 27 987 l 189 987 l 347 263 z "},"X":{"ha":882,"x_min":34,"x_max":856,"o":"m 441 623 l 649 987 l 844 987 l 541 498 l 856 0 l 658 0 l 444 371 l 229 0 l 34 0 l 345 498 l 41 987 l 235 987 l 441 623 z "},"Y":{"ha":861,"x_min":9,"x_max":852,"o":"m 430 507 l 669 987 l 852 987 l 510 347 l 510 0 l 346 0 l 346 355 l 9 987 l 193 987 l 430 507 z "},"Z":{"ha":825,"x_min":60,"x_max":771,"o":"m 256 132 l 771 132 l 771 0 l 60 0 l 60 103 l 555 855 l 64 855 l 64 987 l 754 987 l 754 888 l 256 132 z "},"[":{"ha":380,"x_min":90,"x_max":366,"o":"m 366 1009 l 254 1009 l 254 -92 l 366 -92 l 366 -220 l 90 -220 l 90 1138 l 366 1138 l 366 1009 z "},"\\":{"ha":580,"x_min":14,"x_max":587,"o":"m 14 987 l 174 987 l 587 -85 l 427 -85 l 14 987 z "},"]":{"ha":380,"x_min":8,"x_max":286,"o":"m 8 1138 l 286 1138 l 286 -220 l 8 -220 l 8 -92 l 121 -92 l 121 1009 l 8 1009 l 8 1138 z "},"^":{"ha":593,"x_min":36,"x_max":557,"o":"m 176 494 l 36 494 l 239 987 l 355 987 l 557 494 l 418 494 l 306 774 l 298 811 l 294 811 l 286 774 l 176 494 z "},"_":{"ha":627,"x_min":2,"x_max":624,"o":"m 624 -130 l 2 -130 l 2 0 l 624 0 l 624 -130 z "},"`":{"ha":448,"x_min":54,"x_max":363,"o":"m 363 822 l 230 822 l 54 998 l 56 1002 l 237 1002 l 363 822 z "},"a":{"ha":755,"x_min":56,"x_max":695,"o":"m 528 0 q 514 54 519 28 q 506 107 508 81 q 417 21 472 56 q 293 -14 361 -14 q 117 45 178 -14 q 56 207 56 104 q 140 373 56 313 q 376 432 224 432 l 505 432 l 505 496 q 471 587 505 554 q 374 619 437 619 q 284 592 317 619 q 251 522 251 565 l 92 522 l 92 526 q 169 680 87 613 q 384 747 252 747 q 591 682 512 747 q 669 495 669 617 l 669 169 q 675 82 669 123 q 695 0 682 40 l 528 0 m 326 118 q 438 149 389 118 q 505 220 488 180 l 505 329 l 374 329 q 261 293 302 329 q 220 210 220 258 q 248 143 220 168 q 326 118 275 118 z "},"b":{"ha":787,"x_min":87,"x_max":731,"o":"m 731 342 q 656 84 731 182 q 445 -14 581 -14 q 326 14 376 -14 q 241 95 275 41 l 225 0 l 87 0 l 87 1058 l 252 1058 l 252 650 q 333 722 286 697 q 444 747 380 747 q 656 640 581 747 q 731 357 731 533 l 731 342 m 566 357 q 527 542 566 471 q 402 612 488 612 q 310 588 347 612 q 252 520 273 564 l 252 212 q 310 144 273 168 q 404 120 347 120 q 528 180 489 120 q 566 342 566 240 l 566 357 z "},"c":{"ha":729,"x_min":55,"x_max":687,"o":"m 390 117 q 492 153 450 117 q 533 242 533 189 l 682 242 l 684 238 q 600 60 687 135 q 390 -14 513 -14 q 141 90 228 -14 q 55 355 55 195 l 55 378 q 141 643 55 538 q 390 747 228 747 q 605 670 522 747 q 684 475 687 593 l 683 471 l 533 471 q 493 573 533 531 q 390 615 454 615 q 258 548 297 615 q 220 378 220 480 l 220 355 q 258 184 220 251 q 390 117 297 117 z "},"d":{"ha":787,"x_min":56,"x_max":696,"o":"m 56 357 q 132 640 56 532 q 343 747 207 747 q 450 723 403 747 q 532 654 497 699 l 532 1058 l 696 1058 l 696 0 l 558 0 l 542 91 q 457 13 507 39 q 342 -14 408 -14 q 132 84 207 -14 q 56 342 56 182 l 56 357 m 221 342 q 260 180 221 241 q 384 120 299 120 q 472 142 436 120 q 532 206 509 165 l 532 526 q 472 590 509 567 q 385 612 435 612 q 261 542 301 612 q 221 357 221 471 l 221 342 z "},"e":{"ha":735,"x_min":60,"x_max":689,"o":"m 401 -14 q 153 88 245 -14 q 60 350 60 190 l 60 377 q 152 643 60 537 q 382 747 244 748 q 610 657 531 747 q 689 416 689 568 l 689 319 l 231 319 l 230 316 q 281 173 234 229 q 412 117 328 117 q 526 134 478 117 q 617 180 573 150 l 670 73 q 560 11 629 36 q 401 -14 492 -14 m 382 615 q 282 567 321 615 q 233 444 243 518 l 235 440 l 526 440 l 526 457 q 490 571 526 527 q 382 615 454 615 z "},"f":{"ha":488,"x_min":28,"x_max":495,"o":"m 140 0 l 140 612 l 28 612 l 28 734 l 140 734 l 140 819 q 207 1006 140 941 q 392 1072 273 1072 q 440 1068 416 1072 q 495 1058 465 1065 l 478 930 q 448 935 465 933 q 412 937 431 937 q 332 907 359 937 q 305 819 305 876 l 305 734 l 454 734 l 454 612 l 305 612 l 305 0 l 140 0 z "},"g":{"ha":787,"x_min":57,"x_max":700,"o":"m 57 357 q 134 640 57 532 q 347 747 210 747 q 462 719 412 747 q 547 638 512 691 l 563 734 l 700 734 l 700 0 q 612 -219 700 -142 q 364 -296 525 -296 q 249 -281 311 -296 q 136 -241 186 -266 l 172 -111 q 261 -144 212 -132 q 363 -156 311 -156 q 494 -118 452 -156 q 535 0 535 -79 l 535 75 q 453 8 500 31 q 345 -14 406 -14 q 134 84 210 -14 q 57 342 57 182 l 57 357 m 222 342 q 262 181 222 241 q 387 120 302 120 q 476 142 440 120 q 535 205 513 164 l 535 527 q 476 590 512 567 q 389 612 439 612 q 263 541 304 612 q 222 357 222 470 l 222 342 z "},"h":{"ha":787,"x_min":85,"x_max":703,"o":"m 250 639 q 339 719 286 690 q 455 747 391 747 q 637 674 572 747 q 703 447 703 600 l 703 0 l 538 0 l 538 448 q 503 574 538 535 q 399 612 469 612 q 313 592 351 612 q 250 537 275 572 l 250 0 l 85 0 l 85 1058 l 250 1058 l 250 639 z "},"i":{"ha":360,"x_min":98,"x_max":262,"o":"m 262 0 l 98 0 l 98 734 l 262 734 l 262 0 m 262 913 l 98 913 l 98 1058 l 262 1058 l 262 913 z "},"j":{"ha":364,"x_min":-54,"x_max":270,"o":"m 270 734 l 270 -43 q 207 -230 270 -164 q 31 -296 144 -296 q -13 -294 7 -296 q -54 -285 -33 -291 l -45 -153 q -16 -159 -33 -157 q 15 -161 1 -161 q 81 -133 57 -161 q 105 -43 105 -104 l 105 734 l 270 734 m 266 913 l 101 913 l 101 1058 l 266 1058 l 266 913 z "},"k":{"ha":727,"x_min":87,"x_max":735,"o":"m 326 321 l 252 321 l 252 0 l 87 0 l 87 1058 l 252 1058 l 252 453 l 320 453 l 505 734 l 699 734 l 457 400 l 735 0 l 544 0 l 326 321 z "},"l":{"ha":360,"x_min":98,"x_max":262,"o":"m 262 0 l 98 0 l 98 1058 l 262 1058 l 262 0 z "},"m":{"ha":1208,"x_min":87,"x_max":1121,"o":"m 237 734 l 246 638 q 336 719 282 690 q 462 747 391 747 q 585 715 534 747 q 663 617 637 682 q 752 713 696 678 q 882 747 808 747 q 1057 672 993 747 q 1121 442 1121 596 l 1121 0 l 956 0 l 956 443 q 924 574 956 536 q 827 612 892 612 q 738 584 774 612 q 685 507 701 555 q 686 490 685 497 q 686 475 686 482 l 686 0 l 522 0 l 522 443 q 489 573 522 533 q 392 612 456 612 q 307 593 342 612 q 252 538 272 574 l 252 0 l 87 0 l 87 734 l 237 734 z "},"n":{"ha":787,"x_min":85,"x_max":702,"o":"m 236 734 l 245 628 q 336 716 281 684 q 459 747 391 747 q 638 678 574 747 q 702 461 702 608 l 702 0 l 537 0 l 537 460 q 503 577 537 543 q 399 612 469 612 q 313 591 351 612 q 250 532 275 570 l 250 0 l 85 0 l 85 734 l 236 734 z "},"o":{"ha":787,"x_min":56,"x_max":730,"o":"m 56 374 q 146 642 56 537 q 392 747 237 747 q 640 642 550 747 q 730 374 730 538 l 730 359 q 640 90 730 194 q 393 -14 550 -14 q 146 90 236 -14 q 56 359 56 195 l 56 374 m 221 359 q 263 184 221 252 q 393 117 304 117 q 522 184 479 117 q 566 359 566 252 l 566 374 q 522 547 566 479 q 392 615 479 615 q 263 547 306 615 q 221 374 221 478 l 221 359 z "},"p":{"ha":787,"x_min":87,"x_max":730,"o":"m 730 342 q 654 84 730 182 q 445 -14 579 -14 q 334 8 382 -14 q 252 74 286 31 l 252 -282 l 87 -282 l 87 734 l 226 734 l 242 642 q 327 720 277 693 q 443 747 377 747 q 654 640 578 747 q 730 357 730 532 l 730 342 m 566 357 q 523 541 566 469 q 397 612 481 612 q 309 590 345 612 q 252 529 273 568 l 252 197 q 309 138 273 159 q 398 117 345 117 q 524 179 482 117 q 566 342 566 241 l 566 357 z "},"q":{"ha":787,"x_min":56,"x_max":692,"o":"m 56 357 q 132 640 56 532 q 343 747 207 747 q 456 721 407 747 q 539 645 505 694 l 558 734 l 692 734 l 692 -282 l 527 -282 l 527 69 q 447 7 493 28 q 342 -14 401 -14 q 132 84 207 -14 q 56 342 56 182 l 56 357 m 221 342 q 260 179 221 241 q 384 117 299 117 q 469 137 434 117 q 527 195 504 157 l 527 537 q 469 594 504 574 q 385 615 433 615 q 261 543 301 615 q 221 357 221 471 l 221 342 z "},"r":{"ha":481,"x_min":87,"x_max":472,"o":"m 452 585 l 382 588 q 301 568 334 588 q 252 510 269 547 l 252 0 l 87 0 l 87 734 l 237 734 l 248 627 q 320 715 276 684 q 420 747 363 747 q 448 745 435 747 q 472 739 461 743 l 452 585 z "},"s":{"ha":722,"x_min":56,"x_max":661,"o":"m 499 199 q 467 262 499 237 q 345 307 434 288 q 146 386 214 334 q 79 525 79 437 q 157 682 79 617 q 362 747 235 747 q 575 681 496 747 q 651 517 654 615 l 650 513 l 492 513 q 457 591 492 559 q 362 624 422 624 q 271 597 302 624 q 240 532 240 570 q 270 470 240 493 q 389 430 299 448 q 594 350 528 401 q 661 208 661 298 q 579 47 661 109 q 364 -14 498 -14 q 138 59 221 -14 q 60 227 56 132 l 61 231 l 214 231 q 260 138 217 168 q 366 109 304 109 q 465 134 430 109 q 499 199 499 158 z "},"t":{"ha":483,"x_min":16,"x_max":432,"o":"m 292 912 l 292 734 l 423 734 l 423 612 l 292 612 l 292 206 q 311 141 292 161 q 363 122 331 122 q 390 124 377 122 q 414 131 403 127 l 432 10 q 382 -8 411 -1 q 321 -14 353 -14 q 179 39 231 -14 q 127 206 127 92 l 127 612 l 16 612 l 16 734 l 127 734 l 127 912 l 292 912 z "},"u":{"ha":787,"x_min":83,"x_max":701,"o":"m 544 107 q 456 17 509 49 q 334 -14 404 -14 q 150 61 216 -14 q 83 295 83 136 l 83 734 l 248 734 l 248 294 q 279 159 248 197 q 373 120 310 120 q 473 141 433 120 q 536 203 513 163 l 536 734 l 701 734 l 701 0 l 557 0 l 544 107 z "},"v":{"ha":704,"x_min":22,"x_max":687,"o":"m 342 248 l 354 189 l 358 189 l 371 248 l 517 734 l 687 734 l 427 0 l 283 0 l 22 734 l 192 734 l 342 248 z "},"w":{"ha":1038,"x_min":25,"x_max":1009,"o":"m 732 212 l 736 212 l 851 734 l 1009 734 l 808 0 l 673 0 l 517 501 l 516 508 l 515 501 l 361 0 l 226 0 l 25 734 l 183 734 l 300 220 l 304 219 l 457 734 l 577 734 l 732 212 z "},"x":{"ha":704,"x_min":22,"x_max":682,"o":"m 350 482 l 486 734 l 675 734 l 444 371 l 682 0 l 494 0 l 353 258 l 211 0 l 22 0 l 260 371 l 29 734 l 216 734 l 350 482 z "},"y":{"ha":704,"x_min":11,"x_max":692,"o":"m 330 294 l 347 221 l 351 221 l 511 734 l 692 734 l 388 -111 q 306 -242 359 -188 q 156 -296 253 -296 q 112 -292 136 -296 q 67 -283 89 -288 l 85 -155 q 111 -157 94 -156 q 135 -159 127 -159 q 207 -128 180 -159 q 250 -58 233 -98 l 277 9 l 11 734 l 191 734 l 330 294 z "},"z":{"ha":704,"x_min":58,"x_max":654,"o":"m 262 132 l 654 132 l 654 0 l 58 0 l 58 108 l 428 601 l 65 601 l 65 734 l 636 734 l 636 629 l 262 132 z "},"{":{"ha":466,"x_min":38,"x_max":446,"o":"m 413 -244 q 225 -125 281 -207 q 169 72 169 -44 l 169 210 q 137 319 169 280 q 38 359 104 359 l 38 479 q 137 519 104 479 q 169 630 169 558 l 169 768 q 225 965 169 884 q 413 1083 281 1046 l 446 988 q 352 909 379 966 q 324 768 324 852 l 324 630 q 295 505 324 559 q 207 420 266 450 q 295 333 266 388 q 324 210 324 279 l 324 72 q 352 -69 324 -12 q 446 -149 379 -126 l 413 -244 z "},"|":{"ha":349,"x_min":118,"x_max":231,"o":"m 231 -183 l 118 -183 l 118 987 l 231 987 l 231 -183 z "},"}":{"ha":466,"x_min":18,"x_max":427,"o":"m 18 -149 q 112 -69 84 -126 q 140 72 140 -12 l 140 210 q 171 335 140 281 q 264 419 201 389 q 171 503 201 448 q 140 630 140 557 l 140 768 q 112 909 140 852 q 18 988 84 966 l 51 1083 q 239 965 182 1046 q 295 768 295 884 l 295 630 q 327 519 295 558 q 427 479 359 479 l 427 359 q 327 319 359 359 q 295 210 295 280 l 295 72 q 239 -125 295 -44 q 51 -244 182 -207 l 18 -149 z "},"~":{"ha":923,"x_min":79,"x_max":844,"o":"m 844 509 q 784 334 844 406 q 634 262 724 262 q 526 284 575 262 q 420 355 477 307 q 353 401 383 386 q 292 416 323 416 q 223 381 252 416 q 195 297 195 346 l 79 312 q 138 483 79 414 q 288 553 196 553 q 397 530 346 553 q 503 461 448 507 q 568 414 539 429 q 629 400 597 400 q 699 437 669 400 q 728 524 728 474 l 844 509 z "}," ":{"ha":346,"x_min":0,"x_max":0,"o":""},"¡":{"ha":368,"x_min":97,"x_max":262,"o":"m 262 -254 l 97 -254 l 97 400 l 262 400 l 262 -254 m 262 574 l 97 574 l 97 734 l 262 734 l 262 574 z "},"¢":{"ha":779,"x_min":62,"x_max":694,"o":"m 397 117 q 498 153 457 117 q 540 242 540 189 l 690 242 l 692 239 q 629 82 694 151 q 466 -7 564 13 l 466 -166 l 330 -166 l 330 -9 q 131 112 199 12 q 62 355 62 212 l 62 378 q 131 620 62 519 q 330 742 199 720 l 330 894 l 466 894 l 466 741 q 632 649 570 722 q 692 474 694 576 l 690 471 l 540 471 q 500 573 540 531 q 397 615 460 615 q 265 548 304 615 q 227 378 227 480 l 227 355 q 265 184 227 251 q 397 117 304 117 z "},"£":{"ha":817,"x_min":55,"x_max":766,"o":"m 330 407 l 334 330 q 318 222 334 274 q 275 132 303 171 l 766 132 l 766 0 l 98 0 l 98 132 l 104 132 q 152 200 136 140 q 168 324 168 260 l 165 407 l 55 407 l 55 539 l 160 539 l 154 701 q 233 921 154 841 q 444 1002 311 1002 q 661 928 584 1002 q 736 734 739 854 l 734 730 l 575 730 q 538 835 575 801 q 444 869 501 869 q 352 825 385 869 q 319 701 319 781 l 325 539 l 589 539 l 589 407 l 330 407 z "},"¤":{"ha":975,"x_min":63,"x_max":922,"o":"m 736 73 q 621 9 684 31 q 490 -14 558 -14 q 359 8 422 -14 q 246 72 297 31 l 159 -18 l 63 80 l 155 173 q 104 285 121 224 q 87 412 87 346 q 106 544 87 481 q 161 660 125 606 l 63 760 l 159 857 l 255 759 q 365 817 305 796 q 490 837 425 837 q 616 816 555 837 q 727 758 676 795 l 825 858 l 922 760 l 821 657 q 875 542 856 604 q 894 412 894 480 q 877 287 894 347 q 827 176 859 227 l 922 80 l 825 -18 l 736 73 m 212 412 q 293 199 212 287 q 490 112 374 112 q 687 199 606 112 q 768 412 768 287 q 687 624 768 537 q 490 711 606 711 q 293 624 374 711 q 212 412 212 537 z "},"¥":{"ha":846,"x_min":18,"x_max":823,"o":"m 420 553 l 640 987 l 823 987 l 554 503 l 741 503 l 741 371 l 500 371 l 500 293 l 741 293 l 741 161 l 500 161 l 500 0 l 336 0 l 336 161 l 94 161 l 94 293 l 336 293 l 336 371 l 94 371 l 94 503 l 288 503 l 18 987 l 202 987 l 420 553 z "},"¦":{"ha":345,"x_min":92,"x_max":248,"o":"m 92 -183 l 92 356 l 248 356 l 248 -183 l 92 -183 m 248 473 l 92 473 l 92 987 l 248 987 l 248 473 z "},"§":{"ha":863,"x_min":62,"x_max":789,"o":"m 789 309 q 759 199 789 245 q 673 123 729 152 q 742 43 719 90 q 765 -70 765 -4 q 672 -256 765 -189 q 423 -323 580 -323 q 166 -254 270 -323 q 66 -38 62 -186 l 67 -34 l 225 -33 q 283 -153 225 -116 q 423 -191 340 -191 q 553 -157 506 -191 q 601 -71 601 -123 q 555 12 601 -19 q 383 80 510 42 q 141 186 219 123 q 64 368 64 250 q 93 476 64 429 q 178 553 123 524 q 111 634 133 587 q 88 747 88 682 q 181 932 88 862 q 431 1002 275 1002 q 683 926 592 1002 q 770 714 774 850 l 769 710 l 610 710 q 563 824 610 779 q 431 869 515 869 q 298 835 342 869 q 253 749 253 801 q 294 661 253 690 q 469 597 336 632 q 712 489 634 552 q 789 309 789 427 m 408 456 q 353 472 379 463 q 301 490 326 480 q 246 447 264 475 q 228 378 228 418 q 270 287 228 318 q 444 219 312 256 q 503 201 479 208 q 549 186 527 194 q 606 230 586 201 q 627 298 627 259 q 581 385 627 352 q 408 456 534 418 z "},"¨":{"ha":715,"x_min":111,"x_max":603,"o":"m 603 849 l 439 849 l 439 987 l 603 987 l 603 849 m 275 849 l 111 849 l 111 987 l 275 987 l 275 849 z "},"©":{"ha":1088,"x_min":59,"x_max":1021,"o":"m 753 404 l 754 400 q 697 244 757 298 q 531 191 637 191 q 358 263 422 191 q 294 454 294 335 l 294 534 q 358 724 294 652 q 531 797 422 797 q 697 743 637 797 q 755 588 758 689 l 753 584 l 653 584 q 623 676 653 648 q 531 705 592 705 q 433 659 467 705 q 399 535 399 612 l 399 454 q 433 329 399 376 q 531 283 467 283 q 622 311 592 283 q 652 404 652 339 l 753 404 m 142 494 q 258 193 142 315 q 541 71 374 71 q 822 193 706 71 q 939 494 939 315 q 822 794 939 673 q 541 916 706 916 q 258 794 374 916 q 142 494 142 673 m 59 494 q 199 854 59 708 q 541 1001 340 1001 q 881 854 741 1001 q 1021 494 1021 708 q 881 133 1021 280 q 541 -14 740 -14 q 199 133 340 -14 q 59 494 59 280 z "},"ª":{"ha":619,"x_min":79,"x_max":532,"o":"m 412 479 q 404 509 407 493 q 398 543 400 525 q 338 490 376 511 q 248 469 300 469 q 123 511 167 469 q 79 624 79 552 q 136 740 79 699 q 303 781 193 781 l 396 781 l 396 815 q 376 879 396 857 q 317 901 356 901 q 248 884 273 901 q 224 834 224 866 l 112 843 l 111 847 q 165 958 107 913 q 317 1002 222 1002 q 461 954 408 1002 q 515 814 515 905 l 515 602 q 519 537 515 567 q 532 479 523 507 l 412 479 m 277 567 q 348 587 311 567 q 396 630 384 606 l 396 701 l 304 701 q 225 680 254 701 q 197 627 197 658 q 217 582 197 597 q 277 567 237 567 z "},"«":{"ha":674,"x_min":66,"x_max":602,"o":"m 208 350 l 375 79 l 262 79 l 66 344 l 66 357 l 262 621 l 375 621 l 208 350 m 434 350 l 602 79 l 488 79 l 293 344 l 293 357 l 488 621 l 602 621 l 434 350 z "},"¬":{"ha":768,"x_min":86,"x_max":652,"o":"m 652 254 l 517 254 l 517 430 l 86 430 l 86 546 l 652 546 l 652 254 z "},"­":{"ha":456,"x_min":48,"x_max":404,"o":"m 404 353 l 48 353 l 48 486 l 404 486 l 404 353 z "},"®":{"ha":1088,"x_min":59,"x_max":1021,"o":"m 59 494 q 199 854 59 708 q 541 1001 340 1001 q 881 854 741 1001 q 1021 494 1021 708 q 881 133 1021 280 q 541 -14 740 -14 q 199 133 340 -14 q 59 494 59 280 m 142 494 q 258 193 142 315 q 541 71 374 71 q 822 193 706 71 q 939 494 939 315 q 822 794 939 673 q 541 916 706 916 q 258 794 374 916 q 142 494 142 673 m 443 443 l 443 214 l 340 214 l 340 791 l 531 791 q 692 746 633 791 q 751 614 751 701 q 731 544 751 574 q 670 492 710 513 q 731 437 712 473 q 749 349 749 400 l 749 311 q 752 261 749 283 q 761 225 754 239 l 761 214 l 656 214 q 648 256 650 229 q 647 312 647 283 l 647 349 q 624 420 647 397 q 550 443 602 443 l 443 443 m 443 534 l 540 534 q 618 554 586 534 q 650 612 650 575 q 623 681 650 661 q 531 701 597 701 l 443 701 l 443 534 z "},"¯":{"ha":669,"x_min":92,"x_max":585,"o":"m 585 880 l 92 880 l 92 987 l 585 987 l 585 880 z "},"°":{"ha":528,"x_min":86,"x_max":441,"o":"m 86 819 q 139 948 86 894 q 265 1002 191 1002 q 390 948 338 1002 q 441 819 441 894 q 390 692 441 745 q 265 640 338 640 q 139 692 191 640 q 86 819 86 745 m 180 819 q 205 759 180 783 q 265 735 230 735 q 324 759 300 735 q 348 819 348 783 q 324 881 348 856 q 265 906 300 906 q 205 881 230 906 q 180 819 180 856 z "},"±":{"ha":745,"x_min":64,"x_max":686,"o":"m 453 614 l 686 614 l 686 479 l 453 479 l 453 212 l 307 212 l 307 479 l 64 479 l 64 614 l 307 614 l 307 875 l 453 875 l 453 614 m 652 -16 l 85 -16 l 85 117 l 652 117 l 652 -16 z "},"²":{"ha":587,"x_min":73,"x_max":492,"o":"m 492 452 l 80 452 l 80 551 l 287 724 q 344 785 330 761 q 357 836 357 808 q 340 885 357 866 q 286 904 323 904 q 223 884 245 904 q 201 831 201 863 l 79 831 l 77 835 q 132 954 73 905 q 288 1003 190 1003 q 435 959 382 1003 q 488 836 488 915 q 455 741 488 781 q 340 629 422 701 l 253 555 l 254 551 l 492 551 l 492 452 z "},"³":{"ha":588,"x_min":66,"x_max":507,"o":"m 283 772 q 348 790 327 772 q 368 841 368 808 q 346 885 368 867 q 282 903 324 903 q 225 888 246 903 q 203 850 203 873 l 81 850 l 79 854 q 134 962 75 921 q 280 1002 192 1002 q 439 962 381 1002 q 498 847 498 922 q 474 779 498 810 q 408 731 450 748 q 481 683 456 715 q 507 604 507 650 q 446 486 507 528 q 283 444 385 444 q 129 485 192 444 q 71 602 66 526 l 72 606 l 195 606 q 218 560 195 577 q 283 543 241 543 q 352 560 326 543 q 378 608 378 578 q 354 665 378 646 q 283 684 330 684 l 199 684 l 199 772 l 283 772 z "},"´":{"ha":467,"x_min":81,"x_max":395,"o":"m 211 1002 l 393 1002 l 395 998 l 210 822 l 81 822 l 211 1002 z "},"µ":{"ha":821,"x_min":99,"x_max":715,"o":"m 263 734 l 263 313 q 297 159 263 200 q 397 119 331 119 q 493 139 456 119 q 551 201 531 160 l 551 734 l 715 734 l 715 0 l 564 0 l 559 58 q 489 4 529 22 q 397 -14 448 -14 q 322 -5 356 -14 q 263 23 289 4 l 263 -282 l 99 -282 l 99 734 l 263 734 z "},"¶":{"ha":705,"x_min":42,"x_max":597,"o":"m 432 0 l 432 353 l 376 353 q 130 440 218 353 q 42 670 42 528 q 130 899 42 810 q 376 987 218 987 l 597 987 l 597 0 l 432 0 z "},"·":{"ha":392,"x_min":109,"x_max":273,"o":"m 273 403 l 109 403 l 109 566 l 273 566 l 273 403 z "},"¸":{"ha":358,"x_min":74,"x_max":310,"o":"m 216 2 l 208 -35 q 281 -70 252 -42 q 310 -152 310 -98 q 252 -262 310 -221 q 88 -303 195 -303 l 83 -210 q 151 -195 125 -210 q 176 -150 176 -180 q 153 -108 176 -120 q 74 -92 130 -96 l 96 2 l 216 2 z "},"¹":{"ha":383,"x_min":59,"x_max":275,"o":"m 275 451 l 145 451 l 145 884 l 59 884 l 59 986 l 275 1002 l 275 451 z "},"º":{"ha":634,"x_min":81,"x_max":551,"o":"m 81 774 q 144 938 81 875 q 315 1002 208 1002 q 487 938 422 1002 q 551 774 551 875 l 551 696 q 487 532 551 595 q 317 469 423 469 q 145 532 209 469 q 81 696 81 595 l 81 774 m 199 696 q 229 603 199 638 q 317 568 259 568 q 402 603 372 568 q 432 696 432 638 l 432 774 q 402 866 432 831 q 315 901 372 901 q 229 866 258 901 q 199 774 199 831 l 199 696 z "},"»":{"ha":674,"x_min":72,"x_max":615,"o":"m 185 644 l 380 380 l 380 367 l 185 102 l 72 102 l 239 373 l 72 644 l 185 644 m 420 644 l 615 380 l 615 367 l 420 102 l 307 102 l 474 373 l 307 644 l 420 644 z "},"¼":{"ha":1050,"x_min":119,"x_max":1019,"o":"m 336 450 l 205 450 l 205 884 l 119 884 l 119 985 l 336 1001 l 336 450 m 305 79 l 220 128 l 703 900 l 787 851 l 305 79 m 942 197 l 1019 197 l 1019 98 l 942 98 l 942 0 l 812 0 l 812 98 l 532 98 l 526 177 l 812 543 l 942 543 l 942 197 m 663 200 l 665 197 l 812 197 l 812 385 l 808 386 l 800 372 l 663 200 z "},"½":{"ha":1111,"x_min":119,"x_max":1042,"o":"m 314 79 l 229 128 l 711 900 l 796 851 l 314 79 m 336 450 l 205 450 l 205 884 l 119 884 l 119 985 l 336 1001 l 336 450 m 1042 0 l 630 0 l 630 98 l 837 272 q 894 332 880 309 q 907 384 907 356 q 890 433 907 414 q 836 452 873 452 q 773 431 795 452 q 751 378 751 411 l 629 378 l 627 382 q 682 502 623 452 q 838 551 740 551 q 985 507 932 551 q 1038 383 1038 463 q 1005 288 1038 328 q 890 177 972 248 l 803 102 l 804 98 l 1042 98 l 1042 0 z "},"¾":{"ha":1189,"x_min":77,"x_max":1147,"o":"m 429 79 l 345 128 l 827 900 l 911 851 l 429 79 m 1070 197 l 1147 197 l 1147 98 l 1070 98 l 1070 0 l 941 0 l 941 98 l 661 98 l 654 177 l 940 543 l 1070 543 l 1070 197 m 791 200 l 793 197 l 941 197 l 941 385 l 937 386 l 928 372 l 791 200 m 294 773 q 358 791 338 773 q 379 842 379 809 q 357 886 379 868 q 293 904 335 904 q 236 889 257 904 q 214 851 214 874 l 92 851 l 90 855 q 144 962 86 922 q 291 1003 203 1003 q 450 963 392 1003 q 509 848 509 922 q 485 780 509 810 q 419 732 460 749 q 492 683 467 715 q 517 605 517 651 q 456 487 517 529 q 294 445 395 445 q 140 486 203 445 q 81 603 77 527 l 83 607 l 205 607 q 229 561 205 578 q 294 543 252 543 q 363 561 337 543 q 389 609 389 578 q 365 666 389 647 q 294 684 340 684 l 210 684 l 210 773 l 294 773 z "},"¿":{"ha":695,"x_min":65,"x_max":664,"o":"m 464 454 q 441 315 463 356 q 345 211 420 273 q 260 111 291 157 q 230 8 230 64 q 265 -94 230 -58 q 368 -130 300 -130 q 462 -99 422 -130 q 503 -7 501 -68 l 661 -7 l 663 -12 q 581 -200 664 -132 q 368 -267 498 -267 q 145 -195 224 -267 q 65 5 65 -122 q 115 165 65 92 q 241 300 164 239 q 289 364 279 333 q 300 454 300 395 l 464 454 m 297 734 l 465 734 l 465 576 l 297 576 l 297 734 z "},"À":{"ha":895,"x_min":11,"x_max":888,"o":"m 643 231 l 256 231 l 178 0 l 11 0 l 374 987 l 530 987 l 888 0 l 721 0 l 643 231 m 304 368 l 596 368 l 453 790 l 449 790 l 304 368 m 543 1058 l 410 1058 l 235 1234 l 236 1238 l 418 1238 l 543 1058 z "},"Á":{"ha":895,"x_min":11,"x_max":888,"o":"m 643 231 l 256 231 l 178 0 l 11 0 l 374 987 l 530 987 l 888 0 l 721 0 l 643 231 m 304 368 l 596 368 l 453 790 l 449 790 l 304 368 m 515 1238 l 698 1238 l 699 1234 l 514 1057 l 386 1057 l 515 1238 z "},"Â":{"ha":895,"x_min":11,"x_max":888,"o":"m 643 231 l 256 231 l 178 0 l 11 0 l 374 987 l 530 987 l 888 0 l 721 0 l 643 231 m 304 368 l 596 368 l 453 790 l 449 790 l 304 368 m 676 1099 l 676 1083 l 544 1083 l 447 1177 l 351 1083 l 220 1083 l 220 1101 l 399 1263 l 496 1263 l 676 1099 z "},"Ã":{"ha":895,"x_min":11,"x_max":888,"o":"m 643 231 l 256 231 l 178 0 l 11 0 l 374 987 l 530 987 l 888 0 l 721 0 l 643 231 m 304 368 l 596 368 l 453 790 l 449 790 l 304 368 m 692 1256 q 652 1146 692 1192 q 550 1101 611 1101 q 446 1131 502 1101 q 355 1161 390 1161 q 311 1139 329 1161 q 292 1086 292 1117 l 203 1110 q 244 1221 203 1174 q 345 1268 284 1268 q 444 1238 383 1268 q 540 1208 505 1208 q 585 1230 566 1208 q 604 1282 604 1251 l 692 1256 z "},"Ä":{"ha":895,"x_min":11,"x_max":888,"o":"m 643 231 l 256 231 l 178 0 l 11 0 l 374 987 l 530 987 l 888 0 l 721 0 l 643 231 m 304 368 l 596 368 l 453 790 l 449 790 l 304 368 m 694 1086 l 530 1086 l 530 1224 l 694 1224 l 694 1086 m 366 1086 l 202 1086 l 202 1224 l 366 1224 l 366 1086 z "},"Å":{"ha":895,"x_min":11,"x_max":888,"o":"m 643 231 l 256 231 l 178 0 l 11 0 l 374 987 l 530 987 l 888 0 l 721 0 l 643 231 m 304 368 l 596 368 l 453 790 l 449 790 l 304 368 m 305 1178 q 347 1274 305 1235 q 449 1312 389 1312 q 549 1274 508 1312 q 590 1178 590 1235 q 549 1083 590 1120 q 449 1046 508 1046 q 347 1083 389 1046 q 305 1178 305 1120 m 380 1178 q 400 1129 380 1149 q 449 1109 420 1109 q 496 1128 477 1109 q 515 1178 515 1147 q 496 1229 515 1208 q 449 1249 477 1249 q 400 1229 420 1249 q 380 1178 380 1208 z "},"Æ":{"ha":1305,"x_min":-7,"x_max":1274,"o":"m 1274 0 l 665 0 l 655 231 l 315 231 l 190 0 l -7 0 l 559 987 l 1232 987 l 1232 854 l 794 854 l 806 577 l 1177 577 l 1177 444 l 811 444 l 825 133 l 1274 133 l 1274 0 m 393 376 l 649 376 l 631 808 l 627 809 l 393 376 z "},"Ç":{"ha":883,"x_min":72,"x_max":833,"o":"m 828 328 l 829 323 q 732 80 832 174 q 461 -14 632 -14 q 180 102 288 -14 q 72 399 72 218 l 72 587 q 179 885 72 768 q 456 1002 286 1002 q 732 910 631 1002 q 830 663 833 818 l 829 659 l 669 659 q 615 814 669 758 q 456 869 562 869 q 296 789 355 869 q 237 589 237 709 l 237 399 q 297 197 237 277 q 461 117 358 117 q 616 172 564 117 q 669 328 669 227 l 828 328 m 517 -1 l 510 -37 q 583 -73 553 -45 q 612 -155 612 -100 q 554 -265 612 -224 q 390 -306 496 -306 l 385 -213 q 453 -198 427 -213 q 478 -153 478 -183 q 455 -111 478 -123 q 376 -95 431 -98 l 397 -1 l 517 -1 z "},"È":{"ha":805,"x_min":108,"x_max":774,"o":"m 705 444 l 273 444 l 273 132 l 774 132 l 774 0 l 108 0 l 108 987 l 769 987 l 769 855 l 273 855 l 273 576 l 705 576 l 705 444 m 496 1058 l 363 1058 l 187 1234 l 189 1238 l 370 1238 l 496 1058 z "},"Ê":{"ha":805,"x_min":108,"x_max":774,"o":"m 705 444 l 273 444 l 273 132 l 774 132 l 774 0 l 108 0 l 108 987 l 769 987 l 769 855 l 273 855 l 273 576 l 705 576 l 705 444 m 648 1099 l 648 1083 l 515 1083 l 418 1177 l 322 1083 l 191 1083 l 191 1101 l 370 1263 l 467 1263 l 648 1099 z "},"Ë":{"ha":805,"x_min":108,"x_max":774,"o":"m 705 444 l 273 444 l 273 132 l 774 132 l 774 0 l 108 0 l 108 987 l 769 987 l 769 855 l 273 855 l 273 576 l 705 576 l 705 444 m 665 1086 l 500 1086 l 500 1224 l 665 1224 l 665 1086 m 336 1086 l 173 1086 l 173 1224 l 336 1224 l 336 1086 z "},"Ì":{"ha":399,"x_min":-31,"x_max":282,"o":"m 282 0 l 117 0 l 117 987 l 282 987 l 282 0 m 278 1058 l 145 1058 l -31 1234 l -29 1238 l 153 1238 l 278 1058 z "},"Í":{"ha":399,"x_min":117,"x_max":433,"o":"m 282 0 l 117 0 l 117 987 l 282 987 l 282 0 m 249 1238 l 431 1238 l 433 1234 l 248 1057 l 119 1057 l 249 1238 z "},"Î":{"ha":399,"x_min":-26,"x_max":430,"o":"m 282 0 l 117 0 l 117 987 l 282 987 l 282 0 m 430 1099 l 430 1083 l 298 1083 l 201 1177 l 104 1083 l -26 1083 l -26 1101 l 153 1263 l 250 1263 l 430 1099 z "},"Ï":{"ha":399,"x_min":-45,"x_max":447,"o":"m 282 0 l 117 0 l 117 987 l 282 987 l 282 0 m 447 1086 l 283 1086 l 283 1224 l 447 1224 l 447 1086 m 119 1086 l -45 1086 l -45 1224 l 119 1224 l 119 1086 z "},"Ð":{"ha":933,"x_min":24,"x_max":871,"o":"m 128 0 l 128 446 l 24 446 l 24 561 l 128 561 l 128 987 l 448 987 q 754 870 636 987 q 871 568 871 753 l 871 418 q 754 117 871 233 q 448 0 636 0 l 128 0 m 469 446 l 293 446 l 293 132 l 444 132 q 636 212 566 132 q 707 418 707 292 l 707 570 q 636 775 707 695 q 444 855 566 855 l 293 855 l 293 561 l 469 561 l 469 446 z "},"Ñ":{"ha":987,"x_min":108,"x_max":879,"o":"m 879 0 l 715 0 l 277 721 l 273 720 l 273 0 l 108 0 l 108 987 l 273 987 l 711 267 l 715 269 l 715 987 l 879 987 l 879 0 m 737 1256 q 696 1146 737 1192 q 595 1101 656 1101 q 491 1131 547 1101 q 400 1161 435 1161 q 355 1139 374 1161 q 337 1086 337 1117 l 248 1110 q 289 1221 248 1174 q 390 1268 329 1268 q 489 1238 428 1268 q 585 1208 549 1208 q 629 1230 610 1208 q 648 1282 648 1251 l 737 1256 z "},"Ò":{"ha":948,"x_min":70,"x_max":878,"o":"m 878 405 q 764 105 878 224 q 469 -14 650 -14 q 181 105 292 -14 q 70 405 70 224 l 70 583 q 181 882 70 763 q 469 1002 292 1002 q 764 882 650 1002 q 878 583 878 763 l 878 405 m 713 584 q 647 787 713 707 q 469 866 581 866 q 297 787 360 866 q 234 584 234 707 l 234 405 q 297 200 234 280 q 469 121 360 121 q 648 200 583 121 q 713 405 713 279 l 713 584 m 551 1072 l 418 1072 l 243 1249 l 244 1253 l 426 1253 l 551 1072 z "},"Ó":{"ha":948,"x_min":70,"x_max":878,"o":"m 878 405 q 764 105 878 224 q 469 -14 650 -14 q 181 105 292 -14 q 70 405 70 224 l 70 583 q 181 882 70 763 q 469 1002 292 1002 q 764 882 650 1002 q 878 583 878 763 l 878 405 m 713 584 q 647 787 713 707 q 469 866 581 866 q 297 787 360 866 q 234 584 234 707 l 234 405 q 297 200 234 280 q 469 121 360 121 q 648 200 583 121 q 713 405 713 279 l 713 584 m 524 1252 l 706 1252 l 707 1248 l 522 1072 l 394 1072 l 524 1252 z "},"Ô":{"ha":948,"x_min":70,"x_max":878,"o":"m 878 405 q 764 105 878 224 q 469 -14 650 -14 q 181 105 292 -14 q 70 405 70 224 l 70 583 q 181 882 70 763 q 469 1002 292 1002 q 764 882 650 1002 q 878 583 878 763 l 878 405 m 713 584 q 647 787 713 707 q 469 866 581 866 q 297 787 360 866 q 234 584 234 707 l 234 405 q 297 200 234 280 q 469 121 360 121 q 648 200 583 121 q 713 405 713 279 l 713 584 m 703 1114 l 703 1097 l 571 1097 l 474 1192 l 378 1097 l 247 1097 l 247 1115 l 426 1278 l 523 1278 l 703 1114 z "},"Õ":{"ha":948,"x_min":70,"x_max":878,"o":"m 878 405 q 764 105 878 224 q 469 -14 650 -14 q 181 105 292 -14 q 70 405 70 224 l 70 583 q 181 882 70 763 q 469 1002 292 1002 q 764 882 650 1002 q 878 583 878 763 l 878 405 m 713 584 q 647 787 713 707 q 469 866 581 866 q 297 787 360 866 q 234 584 234 707 l 234 405 q 297 200 234 280 q 469 121 360 121 q 648 200 583 121 q 713 405 713 279 l 713 584 m 719 1270 q 678 1160 719 1206 q 576 1115 637 1115 q 472 1145 528 1115 q 382 1175 416 1175 q 337 1153 355 1175 q 319 1101 319 1131 l 230 1124 q 270 1235 230 1188 q 372 1282 311 1282 q 470 1252 410 1282 q 566 1222 531 1222 q 611 1244 592 1222 q 630 1297 630 1265 l 719 1270 z "},"Ö":{"ha":948,"x_min":70,"x_max":878,"o":"m 878 405 q 764 105 878 224 q 469 -14 650 -14 q 181 105 292 -14 q 70 405 70 224 l 70 583 q 181 882 70 763 q 469 1002 292 1002 q 764 882 650 1002 q 878 583 878 763 l 878 405 m 713 584 q 647 787 713 707 q 469 866 581 866 q 297 787 360 866 q 234 584 234 707 l 234 405 q 297 200 234 280 q 469 121 360 121 q 648 200 583 121 q 713 405 713 279 l 713 584 m 720 1100 l 556 1100 l 556 1238 l 720 1238 l 720 1100 m 392 1100 l 229 1100 l 229 1238 l 392 1238 l 392 1100 z "},"×":{"ha":741,"x_min":52,"x_max":681,"o":"m 52 247 l 267 465 l 52 684 l 153 785 l 366 567 l 581 785 l 681 684 l 467 465 l 681 247 l 581 145 l 366 363 l 153 145 l 52 247 z "},"Ø":{"ha":951,"x_min":70,"x_max":878,"o":"m 878 405 q 764 105 878 224 q 469 -14 650 -14 q 364 -2 414 -14 q 271 35 314 10 l 213 -64 l 113 -64 l 201 85 q 104 225 138 142 q 70 405 70 308 l 70 583 q 181 882 70 763 q 469 1002 292 1002 q 592 984 534 1002 q 700 935 650 967 l 755 1029 l 856 1029 l 767 879 q 849 746 820 822 q 878 583 878 669 l 878 405 m 234 405 q 246 306 234 351 q 280 228 258 260 l 284 227 l 626 809 q 555 851 594 836 q 469 866 515 866 q 297 787 360 866 q 234 584 234 707 l 234 405 m 713 584 q 705 662 713 625 q 683 728 697 699 l 679 728 l 343 157 q 401 130 370 139 q 469 121 433 121 q 648 200 583 121 q 713 405 713 279 l 713 584 z "},"Ù":{"ha":947,"x_min":91,"x_max":858,"o":"m 858 987 l 858 326 q 751 74 858 161 q 471 -14 644 -14 q 196 74 301 -14 q 91 326 91 162 l 91 987 l 256 987 l 256 326 q 314 170 256 222 q 471 117 372 117 q 633 170 572 117 q 693 326 693 222 l 693 987 l 858 987 m 552 1058 l 419 1058 l 243 1234 l 245 1238 l 427 1238 l 552 1058 z "},"Ú":{"ha":947,"x_min":91,"x_max":858,"o":"m 858 987 l 858 326 q 751 74 858 161 q 471 -14 644 -14 q 196 74 301 -14 q 91 326 91 162 l 91 987 l 256 987 l 256 326 q 314 170 256 222 q 471 117 372 117 q 633 170 572 117 q 693 326 693 222 l 693 987 l 858 987 m 524 1238 l 707 1238 l 708 1234 l 523 1057 l 395 1057 l 524 1238 z "},"Û":{"ha":947,"x_min":91,"x_max":858,"o":"m 858 987 l 858 326 q 751 74 858 161 q 471 -14 644 -14 q 196 74 301 -14 q 91 326 91 162 l 91 987 l 256 987 l 256 326 q 314 170 256 222 q 471 117 372 117 q 633 170 572 117 q 693 326 693 222 l 693 987 l 858 987 m 704 1099 l 704 1083 l 572 1083 l 475 1177 l 378 1083 l 248 1083 l 248 1101 l 427 1263 l 524 1263 l 704 1099 z "},"Ü":{"ha":947,"x_min":91,"x_max":858,"o":"m 858 987 l 858 326 q 751 74 858 161 q 471 -14 644 -14 q 196 74 301 -14 q 91 326 91 162 l 91 987 l 256 987 l 256 326 q 314 170 256 222 q 471 117 372 117 q 633 170 572 117 q 693 326 693 222 l 693 987 l 858 987 m 721 1086 l 557 1086 l 557 1224 l 721 1224 l 721 1086 m 393 1086 l 229 1086 l 229 1224 l 393 1224 l 393 1086 z "},"Ý":{"ha":861,"x_min":9,"x_max":852,"o":"m 430 507 l 669 987 l 852 987 l 510 347 l 510 0 l 346 0 l 346 355 l 9 987 l 193 987 l 430 507 m 482 1238 l 665 1238 l 666 1234 l 481 1057 l 353 1057 l 482 1238 z "},"Þ":{"ha":831,"x_min":100,"x_max":780,"o":"m 265 987 l 265 798 l 432 798 q 688 715 596 798 q 780 500 780 633 q 688 286 780 368 q 432 203 596 203 l 265 203 l 265 0 l 100 0 l 100 987 l 265 987 m 265 665 l 265 336 l 432 336 q 569 383 524 336 q 615 499 615 430 q 569 617 615 570 q 432 665 524 665 l 265 665 z "},"ß":{"ha":851,"x_min":92,"x_max":800,"o":"m 256 0 l 92 0 l 92 741 q 176 978 92 893 q 396 1063 259 1063 q 586 1001 511 1063 q 660 821 660 939 q 620 674 660 745 q 580 562 580 604 q 690 420 580 516 q 800 230 800 323 q 726 47 800 108 q 518 -14 652 -14 q 405 -3 463 -14 q 322 28 348 9 l 355 161 q 425 131 383 144 q 509 117 467 117 q 604 145 572 117 q 635 222 635 174 q 525 367 635 273 q 415 559 415 461 q 458 688 415 617 q 500 810 500 760 q 468 898 500 865 q 393 930 436 930 q 294 880 332 930 q 256 740 256 830 l 256 0 z "},"à":{"ha":755,"x_min":56,"x_max":695,"o":"m 528 0 q 514 54 519 28 q 506 107 508 81 q 417 21 472 56 q 293 -14 361 -14 q 117 45 178 -14 q 56 207 56 104 q 140 373 56 313 q 376 432 224 432 l 505 432 l 505 496 q 471 587 505 554 q 374 619 437 619 q 284 592 317 619 q 251 522 251 565 l 92 522 l 92 526 q 169 680 87 613 q 384 747 252 747 q 591 682 512 747 q 669 495 669 617 l 669 169 q 675 82 669 123 q 695 0 682 40 l 528 0 m 326 118 q 438 149 389 118 q 505 220 488 180 l 505 329 l 374 329 q 261 293 302 329 q 220 210 220 258 q 248 143 220 168 q 326 118 275 118 m 450 840 l 317 840 l 142 1016 l 143 1020 l 325 1020 l 450 840 z "},"á":{"ha":755,"x_min":56,"x_max":695,"o":"m 528 0 q 514 54 519 28 q 506 107 508 81 q 417 21 472 56 q 293 -14 361 -14 q 117 45 178 -14 q 56 207 56 104 q 140 373 56 313 q 376 432 224 432 l 505 432 l 505 496 q 471 587 505 554 q 374 619 437 619 q 284 592 317 619 q 251 522 251 565 l 92 522 l 92 526 q 169 680 87 613 q 384 747 252 747 q 591 682 512 747 q 669 495 669 617 l 669 169 q 675 82 669 123 q 695 0 682 40 l 528 0 m 326 118 q 438 149 389 118 q 505 220 488 180 l 505 329 l 374 329 q 261 293 302 329 q 220 210 220 258 q 248 143 220 168 q 326 118 275 118 m 422 1019 l 605 1019 l 606 1015 l 421 839 l 293 839 l 422 1019 z "},"â":{"ha":755,"x_min":56,"x_max":695,"o":"m 528 0 q 514 54 519 28 q 506 107 508 81 q 417 21 472 56 q 293 -14 361 -14 q 117 45 178 -14 q 56 207 56 104 q 140 373 56 313 q 376 432 224 432 l 505 432 l 505 496 q 471 587 505 554 q 374 619 437 619 q 284 592 317 619 q 251 522 251 565 l 92 522 l 92 526 q 169 680 87 613 q 384 747 252 747 q 591 682 512 747 q 669 495 669 617 l 669 169 q 675 82 669 123 q 695 0 682 40 l 528 0 m 326 118 q 438 149 389 118 q 505 220 488 180 l 505 329 l 374 329 q 261 293 302 329 q 220 210 220 258 q 248 143 220 168 q 326 118 275 118 m 602 881 l 602 865 l 470 865 l 373 959 l 277 865 l 146 865 l 146 882 l 325 1045 l 422 1045 l 602 881 z "},"ã":{"ha":755,"x_min":56,"x_max":695,"o":"m 528 0 q 514 54 519 28 q 506 107 508 81 q 417 21 472 56 q 293 -14 361 -14 q 117 45 178 -14 q 56 207 56 104 q 140 373 56 313 q 376 432 224 432 l 505 432 l 505 496 q 471 587 505 554 q 374 619 437 619 q 284 592 317 619 q 251 522 251 565 l 92 522 l 92 526 q 169 680 87 613 q 384 747 252 747 q 591 682 512 747 q 669 495 669 617 l 669 169 q 675 82 669 123 q 695 0 682 40 l 528 0 m 326 118 q 438 149 389 118 q 505 220 488 180 l 505 329 l 374 329 q 261 293 302 329 q 220 210 220 258 q 248 143 220 168 q 326 118 275 118 m 618 1038 q 577 928 618 973 q 475 882 536 882 q 371 912 427 882 q 281 943 315 943 q 236 921 254 943 q 218 868 218 899 l 129 892 q 169 1003 129 956 q 271 1050 210 1050 q 369 1020 309 1050 q 465 989 430 989 q 510 1011 491 989 q 529 1064 529 1033 l 618 1038 z "},"ä":{"ha":755,"x_min":56,"x_max":695,"o":"m 528 0 q 514 54 519 28 q 506 107 508 81 q 417 21 472 56 q 293 -14 361 -14 q 117 45 178 -14 q 56 207 56 104 q 140 373 56 313 q 376 432 224 432 l 505 432 l 505 496 q 471 587 505 554 q 374 619 437 619 q 284 592 317 619 q 251 522 251 565 l 92 522 l 92 526 q 169 680 87 613 q 384 747 252 747 q 591 682 512 747 q 669 495 669 617 l 669 169 q 675 82 669 123 q 695 0 682 40 l 528 0 m 326 118 q 438 149 389 118 q 505 220 488 180 l 505 329 l 374 329 q 261 293 302 329 q 220 210 220 258 q 248 143 220 168 q 326 118 275 118 m 619 867 l 455 867 l 455 1006 l 619 1006 l 619 867 m 291 867 l 127 867 l 127 1006 l 291 1006 l 291 867 z "},"å":{"ha":755,"x_min":56,"x_max":695,"o":"m 528 0 q 514 54 519 28 q 506 107 508 81 q 417 21 472 56 q 293 -14 361 -14 q 117 45 178 -14 q 56 207 56 104 q 140 373 56 313 q 376 432 224 432 l 505 432 l 505 496 q 471 587 505 554 q 374 619 437 619 q 284 592 317 619 q 251 522 251 565 l 92 522 l 92 526 q 169 680 87 613 q 384 747 252 747 q 591 682 512 747 q 669 495 669 617 l 669 169 q 675 82 669 123 q 695 0 682 40 l 528 0 m 326 118 q 438 149 389 118 q 505 220 488 180 l 505 329 l 374 329 q 261 293 302 329 q 220 210 220 258 q 248 143 220 168 q 326 118 275 118 m 230 960 q 272 1055 230 1017 q 374 1094 313 1094 q 474 1055 433 1094 q 515 960 515 1017 q 474 865 515 902 q 374 828 433 828 q 272 865 313 828 q 230 960 230 902 m 304 960 q 325 911 304 930 q 374 891 345 891 q 421 910 402 891 q 440 960 440 929 q 421 1010 440 990 q 374 1031 402 1030 q 325 1010 345 1030 q 304 960 304 990 z "},"æ":{"ha":1173,"x_min":35,"x_max":1131,"o":"m 850 -14 q 692 16 761 -14 q 577 102 623 46 q 465 19 537 52 q 291 -14 392 -14 q 102 46 169 -14 q 35 212 35 107 q 117 377 35 319 q 355 435 199 435 l 495 435 l 495 484 q 464 580 495 545 q 374 615 432 615 q 274 585 311 615 q 238 510 238 554 l 80 522 l 79 526 q 157 685 75 622 q 375 747 239 747 q 506 725 448 747 q 602 659 564 703 q 701 725 644 702 q 826 747 758 747 q 1051 659 971 747 q 1131 415 1131 570 l 1131 319 l 670 319 l 668 315 q 718 172 671 227 q 860 117 766 117 q 969 133 926 117 q 1067 180 1012 149 l 1116 68 q 1009 12 1078 37 q 850 -14 941 -14 m 323 111 q 418 136 368 111 q 495 194 467 161 l 495 322 l 357 322 q 241 289 283 322 q 200 209 200 256 q 231 138 200 165 q 323 111 262 111 m 826 615 q 716 567 755 615 q 670 439 677 518 l 671 435 l 968 435 l 968 456 q 933 571 968 527 q 826 615 899 615 z "},"ç":{"ha":729,"x_min":55,"x_max":687,"o":"m 390 117 q 492 153 450 117 q 533 242 533 189 l 682 242 l 684 238 q 600 60 687 135 q 390 -14 513 -14 q 141 90 228 -14 q 55 355 55 195 l 55 378 q 141 643 55 538 q 390 747 228 747 q 605 670 522 747 q 684 475 687 593 l 683 471 l 533 471 q 493 573 533 531 q 390 615 454 615 q 258 548 297 615 q 220 378 220 480 l 220 355 q 258 184 220 251 q 390 117 297 117 m 431 -1 l 424 -37 q 496 -73 467 -45 q 526 -155 526 -100 q 468 -265 526 -224 q 304 -306 410 -306 l 299 -213 q 367 -198 341 -213 q 392 -153 392 -183 q 369 -111 392 -123 q 290 -95 345 -98 l 311 -1 l 431 -1 z "},"è":{"ha":735,"x_min":60,"x_max":689,"o":"m 401 -14 q 153 88 245 -14 q 60 350 60 190 l 60 377 q 152 643 60 537 q 382 747 244 748 q 610 657 531 747 q 689 416 689 568 l 689 319 l 231 319 l 230 316 q 281 173 234 229 q 412 117 328 117 q 526 134 478 117 q 617 180 573 150 l 670 73 q 560 11 629 36 q 401 -14 492 -14 m 382 615 q 282 567 321 615 q 233 444 243 518 l 235 440 l 526 440 l 526 457 q 490 571 526 527 q 382 615 454 615 m 452 840 l 319 840 l 143 1017 l 144 1021 l 326 1021 l 452 840 z "},"é":{"ha":735,"x_min":60,"x_max":689,"o":"m 401 -14 q 153 88 245 -14 q 60 350 60 190 l 60 377 q 152 643 60 537 q 382 747 244 748 q 610 657 531 747 q 689 416 689 568 l 689 319 l 231 319 l 230 316 q 281 173 234 229 q 412 117 328 117 q 526 134 478 117 q 617 180 573 150 l 670 73 q 560 11 629 36 q 401 -14 492 -14 m 382 615 q 282 567 321 615 q 233 444 243 518 l 235 440 l 526 440 l 526 457 q 490 571 526 527 q 382 615 454 615 m 424 1020 l 606 1020 l 608 1016 l 422 840 l 294 840 l 424 1020 z "},"ê":{"ha":735,"x_min":60,"x_max":689,"o":"m 401 -14 q 153 88 245 -14 q 60 350 60 190 l 60 377 q 152 643 60 537 q 382 747 244 748 q 610 657 531 747 q 689 416 689 568 l 689 319 l 231 319 l 230 316 q 281 173 234 229 q 412 117 328 117 q 526 134 478 117 q 617 180 573 150 l 670 73 q 560 11 629 36 q 401 -14 492 -14 m 382 615 q 282 567 321 615 q 233 444 243 518 l 235 440 l 526 440 l 526 457 q 490 571 526 527 q 382 615 454 615 m 604 882 l 604 865 l 471 865 l 374 960 l 278 865 l 147 865 l 147 883 l 326 1046 l 423 1046 l 604 882 z "},"ë":{"ha":735,"x_min":60,"x_max":689,"o":"m 401 -14 q 153 88 245 -14 q 60 350 60 190 l 60 377 q 152 643 60 537 q 382 747 244 748 q 610 657 531 747 q 689 416 689 568 l 689 319 l 231 319 l 230 316 q 281 173 234 229 q 412 117 328 117 q 526 134 478 117 q 617 180 573 150 l 670 73 q 560 11 629 36 q 401 -14 492 -14 m 382 615 q 282 567 321 615 q 233 444 243 518 l 235 440 l 526 440 l 526 457 q 490 571 526 527 q 382 615 454 615 m 621 868 l 456 868 l 456 1006 l 621 1006 l 621 868 m 292 868 l 129 868 l 129 1006 l 292 1006 l 292 868 z "},"ì":{"ha":365,"x_min":-50,"x_max":262,"o":"m 262 0 l 97 0 l 97 734 l 262 734 l 262 0 m 258 825 l 125 825 l -50 1002 l -49 1006 l 133 1006 l 258 825 z "},"í":{"ha":365,"x_min":97,"x_max":413,"o":"m 262 0 l 97 0 l 97 734 l 262 734 l 262 0 m 229 1005 l 412 1005 l 413 1001 l 228 825 l 100 825 l 229 1005 z "},"î":{"ha":365,"x_min":-46,"x_max":410,"o":"m 262 0 l 97 0 l 97 734 l 262 734 l 262 0 m 410 867 l 410 850 l 278 850 l 181 945 l 85 850 l -46 850 l -46 868 l 133 1031 l 230 1031 l 410 867 z "},"ï":{"ha":365,"x_min":-64,"x_max":427,"o":"m 262 0 l 97 0 l 97 734 l 262 734 l 262 0 m 427 853 l 263 853 l 263 991 l 427 991 l 427 853 m 99 853 l -64 853 l -64 991 l 99 991 l 99 853 z "},"ð":{"ha":821,"x_min":41,"x_max":747,"o":"m 608 876 q 711 711 675 805 q 747 507 747 618 l 747 367 q 646 92 747 199 q 391 -14 544 -14 q 139 81 237 -14 q 41 317 41 176 q 133 565 41 471 q 376 660 226 660 q 485 638 434 660 q 572 582 536 617 l 574 585 q 538 702 566 649 q 467 796 511 755 l 286 694 l 233 768 l 381 852 l 381 856 q 333 878 359 867 q 280 896 307 888 l 331 1029 q 439 993 388 1016 q 536 939 491 970 l 676 1018 l 729 944 l 608 876 m 394 117 q 531 188 479 117 q 583 367 583 258 l 583 456 q 510 511 559 489 q 391 532 460 532 q 255 471 305 532 q 205 317 205 410 q 257 176 205 235 q 394 117 308 117 z "},"ñ":{"ha":787,"x_min":85,"x_max":702,"o":"m 236 734 l 245 628 q 336 716 281 684 q 459 747 391 747 q 638 678 574 747 q 702 461 702 608 l 702 0 l 537 0 l 537 460 q 503 577 537 543 q 399 612 469 612 q 313 591 351 612 q 250 532 275 570 l 250 0 l 85 0 l 85 734 l 236 734 m 636 1038 q 595 928 636 973 q 494 882 555 882 q 390 912 446 882 q 299 943 334 943 q 254 921 273 943 q 236 868 236 899 l 147 892 q 188 1003 147 956 q 289 1050 228 1050 q 388 1020 327 1050 q 484 989 448 989 q 528 1011 509 989 q 547 1064 547 1033 l 636 1038 z "},"ò":{"ha":787,"x_min":56,"x_max":730,"o":"m 56 374 q 146 642 56 537 q 392 747 237 747 q 640 642 550 747 q 730 374 730 538 l 730 359 q 640 90 730 194 q 393 -14 550 -14 q 146 90 236 -14 q 56 359 56 195 l 56 374 m 221 359 q 263 184 221 252 q 393 117 304 117 q 522 184 479 117 q 566 359 566 252 l 566 374 q 522 547 566 479 q 392 615 479 615 q 263 547 306 615 q 221 374 221 478 l 221 359 m 470 840 l 337 840 l 161 1016 l 163 1020 l 345 1020 l 470 840 z "},"ó":{"ha":787,"x_min":56,"x_max":730,"o":"m 56 374 q 146 642 56 537 q 392 747 237 747 q 640 642 550 747 q 730 374 730 538 l 730 359 q 640 90 730 194 q 393 -14 550 -14 q 146 90 236 -14 q 56 359 56 195 l 56 374 m 221 359 q 263 184 221 252 q 393 117 304 117 q 522 184 479 117 q 566 359 566 252 l 566 374 q 522 547 566 479 q 392 615 479 615 q 263 547 306 615 q 221 374 221 478 l 221 359 m 442 1019 l 625 1019 l 626 1015 l 441 839 l 313 839 l 442 1019 z "},"ô":{"ha":787,"x_min":56,"x_max":730,"o":"m 56 374 q 146 642 56 537 q 392 747 237 747 q 640 642 550 747 q 730 374 730 538 l 730 359 q 640 90 730 194 q 393 -14 550 -14 q 146 90 236 -14 q 56 359 56 195 l 56 374 m 221 359 q 263 184 221 252 q 393 117 304 117 q 522 184 479 117 q 566 359 566 252 l 566 374 q 522 547 566 479 q 392 615 479 615 q 263 547 306 615 q 221 374 221 478 l 221 359 m 622 881 l 622 865 l 490 865 l 393 959 l 296 865 l 165 865 l 165 882 l 345 1045 l 441 1045 l 622 881 z "},"õ":{"ha":787,"x_min":56,"x_max":730,"o":"m 56 374 q 146 642 56 537 q 392 747 237 747 q 640 642 550 747 q 730 374 730 538 l 730 359 q 640 90 730 194 q 393 -14 550 -14 q 146 90 236 -14 q 56 359 56 195 l 56 374 m 221 359 q 263 184 221 252 q 393 117 304 117 q 522 184 479 117 q 566 359 566 252 l 566 374 q 522 547 566 479 q 392 615 479 615 q 263 547 306 615 q 221 374 221 478 l 221 359 m 637 1038 q 597 928 637 973 q 495 882 556 882 q 391 912 447 882 q 300 943 335 943 q 256 921 274 943 q 237 868 237 899 l 149 892 q 189 1003 149 956 q 290 1050 229 1050 q 389 1020 328 1050 q 485 989 450 989 q 530 1011 511 989 q 549 1064 549 1033 l 637 1038 z "},"ö":{"ha":787,"x_min":56,"x_max":730,"o":"m 56 374 q 146 642 56 537 q 392 747 237 747 q 640 642 550 747 q 730 374 730 538 l 730 359 q 640 90 730 194 q 393 -14 550 -14 q 146 90 236 -14 q 56 359 56 195 l 56 374 m 221 359 q 263 184 221 252 q 393 117 304 117 q 522 184 479 117 q 566 359 566 252 l 566 374 q 522 547 566 479 q 392 615 479 615 q 263 547 306 615 q 221 374 221 478 l 221 359 m 639 867 l 475 867 l 475 1006 l 639 1006 l 639 867 m 311 867 l 147 867 l 147 1006 l 311 1006 l 311 867 z "},"÷":{"ha":793,"x_min":45,"x_max":732,"o":"m 732 395 l 45 395 l 45 538 l 732 538 l 732 395 m 472 668 l 307 668 l 307 818 l 472 818 l 472 668 m 472 115 l 307 115 l 307 265 l 472 265 l 472 115 z "},"ø":{"ha":787,"x_min":56,"x_max":730,"o":"m 56 374 q 146 643 56 538 q 392 747 236 747 q 461 741 428 747 q 526 723 495 734 l 574 822 l 672 822 l 602 679 q 696 550 663 629 q 730 374 730 471 l 730 359 q 640 90 730 194 q 393 -14 550 -14 q 330 -9 361 -14 q 271 5 300 -4 l 222 -94 l 125 -94 l 194 47 q 92 176 127 95 q 56 359 56 258 l 56 374 m 221 359 q 231 263 221 307 q 261 193 241 220 l 265 192 l 465 599 q 430 611 448 606 q 392 615 412 615 q 263 547 306 615 q 221 374 221 479 l 221 359 m 566 374 q 557 460 566 420 q 532 528 548 500 l 528 528 l 332 128 q 361 120 345 123 q 393 117 376 117 q 523 185 479 117 q 566 359 566 252 l 566 374 z "},"ù":{"ha":787,"x_min":83,"x_max":701,"o":"m 544 107 q 456 17 509 49 q 334 -14 404 -14 q 150 61 216 -14 q 83 295 83 136 l 83 734 l 248 734 l 248 294 q 279 159 248 197 q 373 120 310 120 q 473 141 433 120 q 536 203 513 163 l 536 734 l 701 734 l 701 0 l 557 0 l 544 107 m 469 825 l 336 825 l 161 1002 l 162 1006 l 344 1006 l 469 825 z "},"ú":{"ha":787,"x_min":83,"x_max":701,"o":"m 544 107 q 456 17 509 49 q 334 -14 404 -14 q 150 61 216 -14 q 83 295 83 136 l 83 734 l 248 734 l 248 294 q 279 159 248 197 q 373 120 310 120 q 473 141 433 120 q 536 203 513 163 l 536 734 l 701 734 l 701 0 l 557 0 l 544 107 m 441 1005 l 624 1005 l 625 1001 l 440 825 l 312 825 l 441 1005 z "},"û":{"ha":787,"x_min":83,"x_max":701,"o":"m 544 107 q 456 17 509 49 q 334 -14 404 -14 q 150 61 216 -14 q 83 295 83 136 l 83 734 l 248 734 l 248 294 q 279 159 248 197 q 373 120 310 120 q 473 141 433 120 q 536 203 513 163 l 536 734 l 701 734 l 701 0 l 557 0 l 544 107 m 621 867 l 621 850 l 489 850 l 392 945 l 296 850 l 165 850 l 165 868 l 344 1031 l 441 1031 l 621 867 z "},"ü":{"ha":787,"x_min":83,"x_max":701,"o":"m 544 107 q 456 17 509 49 q 334 -14 404 -14 q 150 61 216 -14 q 83 295 83 136 l 83 734 l 248 734 l 248 294 q 279 159 248 197 q 373 120 310 120 q 473 141 433 120 q 536 203 513 163 l 536 734 l 701 734 l 701 0 l 557 0 l 544 107 m 638 853 l 474 853 l 474 991 l 638 991 l 638 853 m 310 853 l 146 853 l 146 991 l 310 991 l 310 853 z "},"ý":{"ha":704,"x_min":11,"x_max":692,"o":"m 330 294 l 347 221 l 351 221 l 511 734 l 692 734 l 388 -111 q 306 -242 359 -188 q 156 -296 253 -296 q 112 -292 136 -296 q 67 -283 89 -288 l 85 -155 q 111 -157 94 -156 q 135 -159 127 -159 q 207 -128 180 -159 q 250 -58 233 -98 l 277 9 l 11 734 l 191 734 l 330 294 m 401 1005 l 583 1005 l 585 1001 l 399 825 l 271 825 l 401 1005 z "},"þ":{"ha":797,"x_min":94,"x_max":736,"o":"m 736 342 q 661 84 736 182 q 452 -14 586 -14 q 341 8 389 -14 q 258 74 293 31 l 258 -282 l 94 -282 l 94 1058 l 258 1058 l 258 654 q 340 723 292 699 q 450 747 388 747 q 661 640 585 747 q 736 357 736 532 l 736 342 m 572 357 q 530 541 572 469 q 404 612 488 612 q 316 590 352 612 q 258 529 280 568 l 258 197 q 316 138 280 159 q 405 117 352 117 q 531 179 489 117 q 572 342 572 241 l 572 357 z "},"ÿ":{"ha":704,"x_min":11,"x_max":692,"o":"m 330 294 l 347 221 l 351 221 l 511 734 l 692 734 l 388 -111 q 306 -242 359 -188 q 156 -296 253 -296 q 112 -292 136 -296 q 67 -283 89 -288 l 85 -155 q 111 -157 94 -156 q 135 -159 127 -159 q 207 -128 180 -159 q 250 -58 233 -98 l 277 9 l 11 734 l 191 734 l 330 294 m 599 853 l 435 853 l 435 991 l 599 991 l 599 853 m 271 853 l 107 853 l 107 991 l 271 991 l 271 853 z "},"Ā":{"ha":895,"x_min":11,"x_max":888,"o":"m 643 231 l 256 231 l 178 0 l 11 0 l 374 987 l 530 987 l 888 0 l 721 0 l 643 231 m 304 368 l 596 368 l 453 790 l 449 790 l 304 368 m 694 1101 l 201 1101 l 201 1208 l 694 1208 l 694 1101 z "},"ā":{"ha":755,"x_min":56,"x_max":695,"o":"m 528 0 q 514 54 519 28 q 506 107 508 81 q 417 21 472 56 q 293 -14 361 -14 q 117 45 178 -14 q 56 207 56 104 q 140 373 56 313 q 376 432 224 432 l 505 432 l 505 496 q 471 587 505 554 q 374 619 437 619 q 284 592 317 619 q 251 522 251 565 l 92 522 l 92 526 q 169 680 87 613 q 384 747 252 747 q 591 682 512 747 q 669 495 669 617 l 669 169 q 675 82 669 123 q 695 0 682 40 l 528 0 m 326 118 q 438 149 389 118 q 505 220 488 180 l 505 329 l 374 329 q 261 293 302 329 q 220 210 220 258 q 248 143 220 168 q 326 118 275 118 m 622 883 l 129 883 l 129 990 l 622 990 l 622 883 z "},"Ă":{"ha":895,"x_min":11,"x_max":888,"o":"m 643 231 l 256 231 l 178 0 l 11 0 l 374 987 l 530 987 l 888 0 l 721 0 l 643 231 m 304 368 l 596 368 l 453 790 l 449 790 l 304 368 m 661 1278 l 663 1274 q 607 1138 666 1190 q 448 1086 548 1086 q 289 1138 348 1086 q 233 1274 230 1190 l 235 1278 l 357 1278 q 379 1213 357 1238 q 448 1188 401 1188 q 516 1213 494 1188 q 538 1278 538 1238 l 661 1278 z "},"ă":{"ha":755,"x_min":56,"x_max":695,"o":"m 528 0 q 514 54 519 28 q 506 107 508 81 q 417 21 472 56 q 293 -14 361 -14 q 117 45 178 -14 q 56 207 56 104 q 140 373 56 313 q 376 432 224 432 l 505 432 l 505 496 q 471 587 505 554 q 374 619 437 619 q 284 592 317 619 q 251 522 251 565 l 92 522 l 92 526 q 169 680 87 613 q 384 747 252 747 q 591 682 512 747 q 669 495 669 617 l 669 169 q 675 82 669 123 q 695 0 682 40 l 528 0 m 326 118 q 438 149 389 118 q 505 220 488 180 l 505 329 l 374 329 q 261 293 302 329 q 220 210 220 258 q 248 143 220 168 q 326 118 275 118 m 587 1059 l 589 1055 q 532 920 591 972 q 374 867 473 867 q 214 920 273 867 q 159 1055 155 972 l 161 1059 l 283 1059 q 305 995 283 1020 q 374 970 327 970 q 441 995 419 970 q 464 1059 464 1020 l 587 1059 z "},"Ą":{"ha":895,"x_min":11,"x_max":917,"o":"m 643 231 l 256 231 l 178 0 l 11 0 l 374 987 l 530 987 l 888 0 l 721 0 l 643 231 m 304 368 l 596 368 l 453 790 l 449 790 l 304 368 m 852 0 q 788 -63 810 -35 q 766 -127 766 -92 q 780 -165 766 -150 q 828 -181 793 -181 q 860 -177 846 -181 q 893 -165 874 -173 l 917 -262 q 863 -283 892 -275 q 791 -292 833 -292 q 679 -253 723 -292 q 634 -146 634 -215 q 671 -45 634 -93 q 785 41 708 3 l 852 0 z "},"ą":{"ha":755,"x_min":56,"x_max":724,"o":"m 528 0 q 514 54 519 28 q 506 107 508 81 q 417 21 472 56 q 293 -14 361 -14 q 117 45 178 -14 q 56 207 56 104 q 140 373 56 313 q 376 432 224 432 l 505 432 l 505 496 q 471 587 505 554 q 374 619 437 619 q 284 592 317 619 q 251 522 251 565 l 92 522 l 92 526 q 169 680 87 613 q 384 747 252 747 q 591 682 512 747 q 669 495 669 617 l 669 169 q 675 82 669 123 q 695 0 682 40 l 528 0 m 326 118 q 438 149 389 118 q 505 220 488 180 l 505 329 l 374 329 q 261 293 302 329 q 220 210 220 258 q 248 143 220 168 q 326 118 275 118 m 659 0 q 595 -63 617 -35 q 573 -127 573 -92 q 586 -165 573 -150 q 635 -181 600 -181 q 667 -177 653 -181 q 700 -165 681 -173 l 724 -262 q 669 -283 699 -275 q 598 -292 640 -292 q 485 -253 530 -292 q 441 -146 441 -215 q 478 -45 441 -93 q 592 41 515 3 l 659 0 z "},"Ć":{"ha":883,"x_min":72,"x_max":833,"o":"m 828 328 l 829 323 q 732 80 832 174 q 461 -14 632 -14 q 180 102 288 -14 q 72 399 72 218 l 72 587 q 179 885 72 768 q 456 1002 286 1002 q 732 910 631 1002 q 830 663 833 818 l 829 659 l 669 659 q 615 814 669 758 q 456 869 562 869 q 296 789 355 869 q 237 589 237 709 l 237 399 q 297 197 237 277 q 461 117 358 117 q 616 172 564 117 q 669 328 669 227 l 828 328 m 507 1252 l 690 1252 l 691 1248 l 506 1072 l 378 1072 l 507 1252 z "},"ć":{"ha":729,"x_min":55,"x_max":687,"o":"m 390 117 q 492 153 450 117 q 533 242 533 189 l 682 242 l 684 238 q 600 60 687 135 q 390 -14 513 -14 q 141 90 228 -14 q 55 355 55 195 l 55 378 q 141 643 55 538 q 390 747 228 747 q 605 670 522 747 q 684 475 687 593 l 683 471 l 533 471 q 493 573 533 531 q 390 615 454 615 q 258 548 297 615 q 220 378 220 480 l 220 355 q 258 184 220 251 q 390 117 297 117 m 412 1019 l 594 1019 l 595 1015 l 410 839 l 282 839 l 412 1019 z "},"Ĉ":{"ha":883,"x_min":72,"x_max":833,"o":"m 828 328 l 829 323 q 732 80 832 174 q 461 -14 632 -14 q 180 102 288 -14 q 72 399 72 218 l 72 587 q 179 885 72 768 q 456 1002 286 1002 q 732 910 631 1002 q 830 663 833 818 l 829 659 l 669 659 q 615 814 669 758 q 456 869 562 869 q 296 789 355 869 q 237 589 237 709 l 237 399 q 297 197 237 277 q 461 117 358 117 q 616 172 564 117 q 669 328 669 227 l 828 328 m 687 1114 l 687 1097 l 555 1097 l 458 1192 l 361 1097 l 231 1097 l 231 1115 l 410 1278 l 507 1278 l 687 1114 z "},"ĉ":{"ha":729,"x_min":55,"x_max":687,"o":"m 390 117 q 492 153 450 117 q 533 242 533 189 l 682 242 l 684 238 q 600 60 687 135 q 390 -14 513 -14 q 141 90 228 -14 q 55 355 55 195 l 55 378 q 141 643 55 538 q 390 747 228 747 q 605 670 522 747 q 684 475 687 593 l 683 471 l 533 471 q 493 573 533 531 q 390 615 454 615 q 258 548 297 615 q 220 378 220 480 l 220 355 q 258 184 220 251 q 390 117 297 117 m 591 881 l 591 865 l 459 865 l 362 959 l 266 865 l 135 865 l 135 882 l 314 1045 l 411 1045 l 591 881 z "},"Ċ":{"ha":883,"x_min":72,"x_max":833,"o":"m 828 328 l 829 323 q 732 80 832 174 q 461 -14 632 -14 q 180 102 288 -14 q 72 399 72 218 l 72 587 q 179 885 72 768 q 456 1002 286 1002 q 732 910 631 1002 q 830 663 833 818 l 829 659 l 669 659 q 615 814 669 758 q 456 869 562 869 q 296 789 355 869 q 237 589 237 709 l 237 399 q 297 197 237 277 q 461 117 358 117 q 616 172 564 117 q 669 328 669 227 l 828 328 m 545 1101 l 369 1101 l 369 1252 l 545 1252 l 545 1101 z "},"ċ":{"ha":729,"x_min":55,"x_max":687,"o":"m 390 117 q 492 153 450 117 q 533 242 533 189 l 682 242 l 684 238 q 600 60 687 135 q 390 -14 513 -14 q 141 90 228 -14 q 55 355 55 195 l 55 378 q 141 643 55 538 q 390 747 228 747 q 605 670 522 747 q 684 475 687 593 l 683 471 l 533 471 q 493 573 533 531 q 390 615 454 615 q 258 548 297 615 q 220 378 220 480 l 220 355 q 258 184 220 251 q 390 117 297 117 m 449 868 l 273 868 l 273 1019 l 449 1019 l 449 868 z "},"Č":{"ha":883,"x_min":72,"x_max":833,"o":"m 828 328 l 829 323 q 732 80 832 174 q 461 -14 632 -14 q 180 102 288 -14 q 72 399 72 218 l 72 587 q 179 885 72 768 q 456 1002 286 1002 q 732 910 631 1002 q 830 663 833 818 l 829 659 l 669 659 q 615 814 669 758 q 456 869 562 869 q 296 789 355 869 q 237 589 237 709 l 237 399 q 297 197 237 277 q 461 117 358 117 q 616 172 564 117 q 669 328 669 227 l 828 328 m 457 1190 l 547 1282 l 692 1282 l 692 1271 l 511 1100 l 404 1100 l 223 1270 l 223 1282 l 368 1282 l 457 1190 z "},"č":{"ha":729,"x_min":55,"x_max":687,"o":"m 390 117 q 492 153 450 117 q 533 242 533 189 l 682 242 l 684 238 q 600 60 687 135 q 390 -14 513 -14 q 141 90 228 -14 q 55 355 55 195 l 55 378 q 141 643 55 538 q 390 747 228 747 q 605 670 522 747 q 684 475 687 593 l 683 471 l 533 471 q 493 573 533 531 q 390 615 454 615 q 258 548 297 615 q 220 378 220 480 l 220 355 q 258 184 220 251 q 390 117 297 117 m 361 958 l 451 1050 l 597 1050 l 597 1038 l 415 867 l 309 867 l 127 1037 l 127 1050 l 272 1050 l 361 958 z "},"Ď":{"ha":913,"x_min":108,"x_max":851,"o":"m 108 0 l 108 987 l 428 987 q 733 870 616 987 q 851 568 851 753 l 851 418 q 733 117 851 233 q 428 0 616 0 l 108 0 m 273 855 l 273 132 l 423 132 q 616 212 546 132 q 686 418 686 292 l 686 570 q 616 775 686 695 q 423 855 546 855 l 273 855 m 412 1176 l 501 1268 l 647 1268 l 647 1257 l 465 1086 l 359 1086 l 178 1255 l 178 1268 l 322 1268 l 412 1176 z "},"ď":{"ha":888,"x_min":56,"x_max":907,"o":"m 56 357 q 132 640 56 532 q 343 747 207 747 q 450 723 403 747 q 532 654 497 699 l 532 1058 l 696 1058 l 696 0 l 558 0 l 542 91 q 457 13 507 39 q 342 -14 408 -14 q 132 84 207 -14 q 56 342 56 182 l 56 357 m 221 342 q 260 180 221 241 q 384 120 299 120 q 472 142 436 120 q 532 206 509 165 l 532 526 q 472 590 509 567 q 385 612 435 612 q 261 542 301 612 q 221 357 221 471 l 221 342 m 907 955 l 822 793 l 747 793 l 789 962 l 789 1058 l 907 1058 l 907 955 z "},"Đ":{"ha":933,"x_min":24,"x_max":871,"o":"m 128 0 l 128 446 l 24 446 l 24 561 l 128 561 l 128 987 l 448 987 q 754 870 636 987 q 871 568 871 753 l 871 418 q 754 117 871 233 q 448 0 636 0 l 128 0 m 469 446 l 293 446 l 293 132 l 444 132 q 636 212 566 132 q 707 418 707 292 l 707 570 q 636 775 707 695 q 444 855 566 855 l 293 855 l 293 561 l 469 561 l 469 446 z "},"đ":{"ha":807,"x_min":56,"x_max":813,"o":"m 813 831 l 696 831 l 696 0 l 558 0 l 542 91 q 457 13 507 39 q 342 -14 408 -14 q 132 84 207 -14 q 56 342 56 182 l 56 357 q 132 640 56 532 q 343 747 207 747 q 450 723 403 747 q 532 654 497 699 l 532 831 l 369 831 l 369 946 l 532 946 l 532 1058 l 696 1058 l 696 946 l 813 946 l 813 831 m 221 342 q 260 180 221 241 q 384 120 299 120 q 472 142 436 120 q 532 206 509 165 l 532 526 q 472 590 509 567 q 385 612 435 612 q 261 542 301 612 q 221 357 221 471 l 221 342 z "},"Ē":{"ha":805,"x_min":108,"x_max":774,"o":"m 705 444 l 273 444 l 273 132 l 774 132 l 774 0 l 108 0 l 108 987 l 769 987 l 769 855 l 273 855 l 273 576 l 705 576 l 705 444 m 667 1101 l 174 1101 l 174 1208 l 667 1208 l 667 1101 z "},"ē":{"ha":735,"x_min":60,"x_max":689,"o":"m 401 -14 q 153 88 245 -14 q 60 350 60 190 l 60 377 q 152 643 60 537 q 382 747 244 748 q 610 657 531 747 q 689 416 689 568 l 689 319 l 231 319 l 230 316 q 281 173 234 229 q 412 117 328 117 q 526 134 478 117 q 617 180 573 150 l 670 73 q 560 11 629 36 q 401 -14 492 -14 m 382 615 q 282 567 321 615 q 233 444 243 518 l 235 440 l 526 440 l 526 457 q 490 571 526 527 q 382 615 454 615 m 623 884 l 130 884 l 130 991 l 623 991 l 623 884 z "},"Ĕ":{"ha":805,"x_min":108,"x_max":774,"o":"m 705 444 l 273 444 l 273 132 l 774 132 l 774 0 l 108 0 l 108 987 l 769 987 l 769 855 l 273 855 l 273 576 l 705 576 l 705 444 m 632 1278 l 634 1274 q 578 1138 637 1190 q 419 1086 519 1086 q 260 1138 319 1086 q 204 1274 201 1190 l 206 1278 l 328 1278 q 350 1213 328 1238 q 419 1188 372 1188 q 487 1213 465 1188 q 509 1278 509 1238 l 632 1278 z "},"ĕ":{"ha":735,"x_min":60,"x_max":689,"o":"m 401 -14 q 153 88 245 -14 q 60 350 60 190 l 60 377 q 152 643 60 537 q 382 747 244 748 q 610 657 531 747 q 689 416 689 568 l 689 319 l 231 319 l 230 316 q 281 173 234 229 q 412 117 328 117 q 526 134 478 117 q 617 180 573 150 l 670 73 q 560 11 629 36 q 401 -14 492 -14 m 382 615 q 282 567 321 615 q 233 444 243 518 l 235 440 l 526 440 l 526 457 q 490 571 526 527 q 382 615 454 615 m 588 1060 l 590 1056 q 534 920 593 972 q 375 868 475 868 q 216 920 275 868 q 160 1056 157 972 l 162 1060 l 284 1060 q 306 996 284 1021 q 375 970 328 970 q 443 996 420 970 q 465 1060 465 1021 l 588 1060 z "},"Ė":{"ha":805,"x_min":108,"x_max":774,"o":"m 705 444 l 273 444 l 273 132 l 774 132 l 774 0 l 108 0 l 108 987 l 769 987 l 769 855 l 273 855 l 273 576 l 705 576 l 705 444 m 505 1086 l 330 1086 l 330 1238 l 505 1238 l 505 1086 z "},"ė":{"ha":735,"x_min":60,"x_max":689,"o":"m 401 -14 q 153 88 245 -14 q 60 350 60 190 l 60 377 q 152 643 60 537 q 382 747 244 748 q 610 657 531 747 q 689 416 689 568 l 689 319 l 231 319 l 230 316 q 281 173 234 229 q 412 117 328 117 q 526 134 478 117 q 617 180 573 150 l 670 73 q 560 11 629 36 q 401 -14 492 -14 m 382 615 q 282 567 321 615 q 233 444 243 518 l 235 440 l 526 440 l 526 457 q 490 571 526 527 q 382 615 454 615 m 461 869 l 286 869 l 286 1020 l 461 1020 l 461 869 z "},"Ę":{"ha":805,"x_min":108,"x_max":774,"o":"m 705 444 l 273 444 l 273 132 l 774 132 l 774 0 l 108 0 l 108 987 l 769 987 l 769 855 l 273 855 l 273 576 l 705 576 l 705 444 m 479 0 q 415 -63 437 -35 q 393 -127 393 -92 q 407 -165 393 -150 q 455 -181 420 -181 q 487 -177 473 -181 q 520 -165 501 -173 l 544 -262 q 490 -283 519 -275 q 418 -292 460 -292 q 306 -253 350 -292 q 261 -146 261 -215 q 298 -45 261 -93 q 412 41 335 3 l 479 0 z "},"ę":{"ha":735,"x_min":60,"x_max":689,"o":"m 401 -14 q 153 88 245 -14 q 60 350 60 190 l 60 377 q 152 643 60 537 q 382 747 244 748 q 610 657 531 747 q 689 416 689 568 l 689 319 l 231 319 l 230 316 q 281 173 234 229 q 412 117 328 117 q 526 134 478 117 q 617 180 573 150 l 670 73 q 560 11 629 36 q 401 -14 492 -14 m 382 615 q 282 567 321 615 q 233 444 243 518 l 235 440 l 526 440 l 526 457 q 490 571 526 527 q 382 615 454 615 m 596 35 q 532 -28 554 1 q 510 -92 510 -57 q 523 -130 510 -115 q 572 -146 536 -146 q 604 -142 590 -146 q 637 -130 618 -138 l 661 -227 q 606 -248 636 -239 q 535 -256 576 -256 q 422 -218 467 -256 q 378 -111 378 -180 q 415 -9 378 -58 q 529 76 452 39 l 596 35 z "},"Ě":{"ha":805,"x_min":108,"x_max":774,"o":"m 705 444 l 273 444 l 273 132 l 774 132 l 774 0 l 108 0 l 108 987 l 769 987 l 769 855 l 273 855 l 273 576 l 705 576 l 705 444 m 418 1176 l 507 1268 l 653 1268 l 653 1257 l 471 1086 l 365 1086 l 184 1255 l 184 1268 l 328 1268 l 418 1176 z "},"ě":{"ha":735,"x_min":60,"x_max":689,"o":"m 401 -14 q 153 88 245 -14 q 60 350 60 190 l 60 377 q 152 643 60 537 q 382 747 244 748 q 610 657 531 747 q 689 416 689 568 l 689 319 l 231 319 l 230 316 q 281 173 234 229 q 412 117 328 117 q 526 134 478 117 q 617 180 573 150 l 670 73 q 560 11 629 36 q 401 -14 492 -14 m 382 615 q 282 567 321 615 q 233 444 243 518 l 235 440 l 526 440 l 526 457 q 490 571 526 527 q 382 615 454 615 m 374 958 l 463 1050 l 609 1050 l 609 1039 l 427 868 l 321 868 l 140 1038 l 140 1050 l 284 1050 l 374 958 z "},"Ĝ":{"ha":938,"x_min":75,"x_max":844,"o":"m 844 134 q 714 32 804 77 q 484 -14 625 -14 q 190 99 305 -14 q 75 391 75 212 l 75 597 q 183 889 75 776 q 465 1002 292 1002 q 735 916 639 1002 q 834 692 832 830 l 833 688 l 677 688 q 619 820 671 770 q 467 869 566 869 q 301 793 364 869 q 239 598 239 716 l 239 391 q 307 194 239 271 q 484 117 375 117 q 609 135 561 117 q 679 178 657 153 l 679 378 l 483 378 l 483 502 l 844 502 l 844 134 m 684 1114 l 684 1097 l 551 1097 l 454 1192 l 358 1097 l 227 1097 l 227 1115 l 406 1278 l 503 1278 l 684 1114 z "},"ĝ":{"ha":787,"x_min":57,"x_max":700,"o":"m 57 357 q 134 640 57 532 q 347 747 210 747 q 462 719 412 747 q 547 638 512 691 l 563 734 l 700 734 l 700 0 q 612 -219 700 -142 q 364 -296 525 -296 q 249 -281 311 -296 q 136 -241 186 -266 l 172 -111 q 261 -144 212 -132 q 363 -156 311 -156 q 494 -118 452 -156 q 535 0 535 -79 l 535 75 q 453 8 500 31 q 345 -14 406 -14 q 134 84 210 -14 q 57 342 57 182 l 57 357 m 222 342 q 262 181 222 241 q 387 120 302 120 q 476 142 440 120 q 535 205 513 164 l 535 527 q 476 590 512 567 q 389 612 439 612 q 263 541 304 612 q 222 357 222 470 l 222 342 m 609 881 l 609 865 l 477 865 l 380 959 l 283 865 l 153 865 l 153 882 l 332 1045 l 429 1045 l 609 881 z "},"Ğ":{"ha":938,"x_min":75,"x_max":844,"o":"m 844 134 q 714 32 804 77 q 484 -14 625 -14 q 190 99 305 -14 q 75 391 75 212 l 75 597 q 183 889 75 776 q 465 1002 292 1002 q 735 916 639 1002 q 834 692 832 830 l 833 688 l 677 688 q 619 820 671 770 q 467 869 566 869 q 301 793 364 869 q 239 598 239 716 l 239 391 q 307 194 239 271 q 484 117 375 117 q 609 135 561 117 q 679 178 657 153 l 679 378 l 483 378 l 483 502 l 844 502 l 844 134 m 668 1292 l 670 1288 q 614 1152 673 1204 q 455 1100 555 1100 q 296 1152 355 1100 q 240 1288 237 1204 l 242 1292 l 364 1292 q 386 1227 364 1253 q 455 1202 408 1202 q 523 1227 500 1202 q 545 1292 545 1253 l 668 1292 z "},"ğ":{"ha":787,"x_min":57,"x_max":700,"o":"m 57 357 q 134 640 57 532 q 347 747 210 747 q 462 719 412 747 q 547 638 512 691 l 563 734 l 700 734 l 700 0 q 612 -219 700 -142 q 364 -296 525 -296 q 249 -281 311 -296 q 136 -241 186 -266 l 172 -111 q 261 -144 212 -132 q 363 -156 311 -156 q 494 -118 452 -156 q 535 0 535 -79 l 535 75 q 453 8 500 31 q 345 -14 406 -14 q 134 84 210 -14 q 57 342 57 182 l 57 357 m 222 342 q 262 181 222 241 q 387 120 302 120 q 476 142 440 120 q 535 205 513 164 l 535 527 q 476 590 512 567 q 389 612 439 612 q 263 541 304 612 q 222 357 222 470 l 222 342 m 593 1059 l 595 1055 q 539 920 598 972 q 380 867 480 867 q 221 920 280 867 q 165 1055 162 972 l 168 1059 l 290 1059 q 312 995 290 1020 q 380 970 334 970 q 448 995 426 970 q 471 1059 471 1020 l 593 1059 z "},"Ġ":{"ha":938,"x_min":75,"x_max":844,"o":"m 844 134 q 714 32 804 77 q 484 -14 625 -14 q 190 99 305 -14 q 75 391 75 212 l 75 597 q 183 889 75 776 q 465 1002 292 1002 q 735 916 639 1002 q 834 692 832 830 l 833 688 l 677 688 q 619 820 671 770 q 467 869 566 869 q 301 793 364 869 q 239 598 239 716 l 239 391 q 307 194 239 271 q 484 117 375 117 q 609 135 561 117 q 679 178 657 153 l 679 378 l 483 378 l 483 502 l 844 502 l 844 134 m 541 1101 l 366 1101 l 366 1252 l 541 1252 l 541 1101 z "},"ġ":{"ha":787,"x_min":57,"x_max":700,"o":"m 57 357 q 134 640 57 532 q 347 747 210 747 q 462 719 412 747 q 547 638 512 691 l 563 734 l 700 734 l 700 0 q 612 -219 700 -142 q 364 -296 525 -296 q 249 -281 311 -296 q 136 -241 186 -266 l 172 -111 q 261 -144 212 -132 q 363 -156 311 -156 q 494 -118 452 -156 q 535 0 535 -79 l 535 75 q 453 8 500 31 q 345 -14 406 -14 q 134 84 210 -14 q 57 342 57 182 l 57 357 m 222 342 q 262 181 222 241 q 387 120 302 120 q 476 142 440 120 q 535 205 513 164 l 535 527 q 476 590 512 567 q 389 612 439 612 q 263 541 304 612 q 222 357 222 470 l 222 342 m 467 868 l 291 868 l 291 1019 l 467 1019 l 467 868 z "},"Ģ":{"ha":938,"x_min":75,"x_max":844,"o":"m 844 134 q 714 32 804 77 q 484 -14 625 -14 q 190 99 305 -14 q 75 391 75 212 l 75 597 q 183 889 75 776 q 465 1002 292 1002 q 735 916 639 1002 q 834 692 832 830 l 833 688 l 677 688 q 619 820 671 770 q 467 869 566 869 q 301 793 364 869 q 239 598 239 716 l 239 391 q 307 194 239 271 q 484 117 375 117 q 609 135 561 117 q 679 178 657 153 l 679 378 l 483 378 l 483 502 l 844 502 l 844 134 m 513 -178 l 428 -339 l 353 -339 l 395 -171 l 395 -75 l 513 -75 l 513 -178 z "},"ģ":{"ha":787,"x_min":57,"x_max":700,"o":"m 57 357 q 134 640 57 532 q 347 747 210 747 q 462 719 412 747 q 547 638 512 691 l 563 734 l 700 734 l 700 0 q 612 -219 700 -142 q 364 -296 525 -296 q 249 -281 311 -296 q 136 -241 186 -266 l 172 -111 q 261 -144 212 -132 q 363 -156 311 -156 q 494 -118 452 -156 q 535 0 535 -79 l 535 75 q 453 8 500 31 q 345 -14 406 -14 q 134 84 210 -14 q 57 342 57 182 l 57 357 m 222 342 q 262 181 222 241 q 387 120 302 120 q 476 142 440 120 q 535 205 513 164 l 535 527 q 476 590 512 567 q 389 612 439 612 q 263 541 304 612 q 222 357 222 470 l 222 342 m 302 962 l 382 1135 l 468 1135 l 450 956 l 450 851 l 302 851 l 302 962 z "},"Ĥ":{"ha":987,"x_min":108,"x_max":879,"o":"m 879 0 l 715 0 l 715 421 l 273 421 l 273 0 l 108 0 l 108 987 l 273 987 l 273 553 l 715 553 l 715 987 l 879 987 l 879 0 m 719 1099 l 719 1083 l 587 1083 l 490 1177 l 393 1083 l 262 1083 l 262 1101 l 441 1263 l 538 1263 l 719 1099 z "},"ĥ":{"ha":787,"x_min":85,"x_max":703,"o":"m 250 639 q 339 719 286 690 q 455 747 391 747 q 637 674 572 747 q 703 447 703 600 l 703 0 l 538 0 l 538 448 q 503 574 538 535 q 399 612 469 612 q 313 592 351 612 q 250 537 275 572 l 250 0 l 85 0 l 85 1058 l 250 1058 l 250 639 m 577 1099 l 577 1083 l 445 1083 l 348 1177 l 252 1083 l 121 1083 l 121 1101 l 300 1263 l 397 1263 l 577 1099 z "},"Ħ":{"ha":978,"x_min":16,"x_max":970,"o":"m 878 806 l 970 806 l 970 696 l 878 696 l 878 0 l 713 0 l 713 421 l 271 421 l 271 0 l 106 0 l 106 696 l 16 696 l 16 806 l 106 806 l 106 987 l 271 987 l 271 806 l 713 806 l 713 987 l 878 987 l 878 806 m 271 553 l 713 553 l 713 696 l 271 696 l 271 553 z "},"ħ":{"ha":807,"x_min":-2,"x_max":723,"o":"m 442 829 l 270 829 l 270 639 q 359 719 307 690 q 475 747 412 747 q 657 674 592 747 q 723 447 723 600 l 723 0 l 558 0 l 558 448 q 524 574 558 535 q 420 612 489 612 q 333 592 372 612 q 270 537 295 572 l 270 0 l 105 0 l 105 829 l -2 829 l -2 945 l 105 945 l 105 1058 l 270 1058 l 270 945 l 442 945 l 442 829 z "},"Ĩ":{"ha":399,"x_min":-43,"x_max":446,"o":"m 282 0 l 117 0 l 117 987 l 282 987 l 282 0 m 446 1256 q 405 1146 446 1192 q 303 1101 364 1101 q 199 1131 255 1101 q 109 1161 143 1161 q 64 1139 82 1161 q 45 1086 45 1117 l -43 1110 q -3 1221 -43 1174 q 98 1268 37 1268 q 197 1238 136 1268 q 293 1208 258 1208 q 338 1230 319 1208 q 357 1282 357 1251 l 446 1256 z "},"ĩ":{"ha":365,"x_min":-63,"x_max":426,"o":"m 262 0 l 97 0 l 97 734 l 262 734 l 262 0 m 426 1023 q 385 913 426 959 q 283 868 345 868 q 179 898 235 868 q 89 928 123 928 q 44 906 62 928 q 26 854 26 884 l -63 878 q -23 988 -63 941 q 79 1036 18 1036 q 177 1005 117 1036 q 273 975 238 975 q 318 997 299 975 q 337 1050 337 1019 l 426 1023 z "},"Ī":{"ha":399,"x_min":-43,"x_max":450,"o":"m 282 0 l 117 0 l 117 987 l 282 987 l 282 0 m 450 1101 l -43 1101 l -43 1208 l 450 1208 l 450 1101 z "},"ī":{"ha":365,"x_min":-63,"x_max":430,"o":"m 262 0 l 97 0 l 97 734 l 262 734 l 262 0 m 430 870 l -63 870 l -63 977 l 430 977 l 430 870 z "},"Ĭ":{"ha":399,"x_min":-17,"x_max":419,"o":"m 282 0 l 117 0 l 117 987 l 282 987 l 282 0 m 414 1278 l 416 1274 q 360 1138 419 1190 q 201 1086 301 1086 q 42 1138 101 1086 q -14 1274 -17 1190 l -12 1278 l 111 1278 q 133 1213 111 1238 q 201 1188 155 1188 q 269 1213 247 1188 q 292 1278 292 1238 l 414 1278 z "},"ĭ":{"ha":365,"x_min":-37,"x_max":399,"o":"m 262 0 l 97 0 l 97 734 l 262 734 l 262 0 m 395 1045 l 397 1041 q 340 905 399 958 q 182 853 281 853 q 22 905 81 853 q -33 1041 -37 958 l -31 1045 l 91 1045 q 113 981 91 1006 q 182 956 135 956 q 250 981 227 956 q 272 1045 272 1006 l 395 1045 z "},"Į":{"ha":399,"x_min":29,"x_max":312,"o":"m 282 0 l 117 0 l 117 987 l 282 987 l 282 0 m 248 0 q 183 -63 205 -35 q 161 -127 161 -92 q 175 -165 161 -150 q 223 -181 188 -181 q 255 -177 241 -181 q 288 -165 269 -173 l 312 -262 q 258 -283 288 -275 q 186 -292 228 -292 q 74 -253 118 -292 q 29 -146 29 -215 q 66 -45 29 -93 q 180 41 103 3 l 248 0 z "},"į":{"ha":360,"x_min":9,"x_max":292,"o":"m 262 0 l 98 0 l 98 734 l 262 734 l 262 0 m 262 913 l 98 913 l 98 1058 l 262 1058 l 262 913 m 228 0 q 164 -63 186 -35 q 142 -127 142 -92 q 155 -165 142 -150 q 203 -181 168 -181 q 236 -177 222 -181 q 269 -165 250 -173 l 292 -262 q 238 -283 268 -275 q 167 -292 208 -292 q 54 -253 98 -292 q 9 -146 9 -215 q 46 -45 9 -93 q 161 41 83 3 l 228 0 z "},"İ":{"ha":399,"x_min":111,"x_max":286,"o":"m 282 0 l 117 0 l 117 987 l 282 987 l 282 0 m 286 1086 l 111 1086 l 111 1238 l 286 1238 l 286 1086 z "},"ı":{"ha":365,"x_min":97,"x_max":262,"o":"m 262 0 l 97 0 l 97 734 l 262 734 l 262 0 z "},"Ĳ":{"ha":1178,"x_min":117,"x_max":1076,"o":"m 282 0 l 117 0 l 117 987 l 282 987 l 282 0 m 911 987 l 1076 987 l 1076 286 q 988 66 1076 147 q 762 -14 900 -14 q 526 60 613 -14 q 443 276 439 134 l 444 280 l 604 280 q 645 157 604 196 q 762 117 687 117 q 869 163 827 117 q 911 286 911 208 l 911 987 z "},"ĳ":{"ha":724,"x_min":98,"x_max":630,"o":"m 262 0 l 98 0 l 98 734 l 262 734 l 262 0 m 262 913 l 98 913 l 98 1058 l 262 1058 l 262 913 m 630 734 l 630 -43 q 567 -230 630 -164 q 391 -296 504 -296 q 347 -294 367 -296 q 306 -285 328 -291 l 315 -153 q 344 -159 327 -157 q 375 -161 361 -161 q 441 -133 417 -161 q 465 -43 465 -104 l 465 734 l 630 734 m 626 913 l 461 913 l 461 1058 l 626 1058 l 626 913 z "},"Ĵ":{"ha":779,"x_min":40,"x_max":815,"o":"m 512 987 l 677 987 l 677 286 q 589 66 677 147 q 362 -14 500 -14 q 127 60 214 -14 q 43 276 40 134 l 45 280 l 204 280 q 246 157 204 196 q 362 117 288 117 q 470 163 427 117 q 512 286 512 208 l 512 987 m 815 1094 l 815 1078 l 683 1078 l 586 1172 l 490 1078 l 359 1078 l 359 1095 l 538 1258 l 635 1258 l 815 1094 z "},"ĵ":{"ha":373,"x_min":-51,"x_max":416,"o":"m 273 734 l 273 -43 q 210 -230 273 -164 q 35 -296 147 -296 q -9 -294 10 -296 q -51 -285 -29 -291 l -41 -155 q -9 -161 -29 -159 q 25 -164 10 -164 q 87 -132 64 -164 q 109 -43 109 -100 l 109 734 l 273 734 m 416 859 l 416 842 l 283 842 l 186 937 l 90 842 l -41 842 l -41 860 l 138 1023 l 235 1023 l 416 859 z "},"Ķ":{"ha":895,"x_min":108,"x_max":900,"o":"m 387 427 l 273 427 l 273 0 l 108 0 l 108 987 l 273 987 l 273 569 l 367 569 l 677 987 l 872 987 l 513 516 l 900 0 l 699 0 l 387 427 m 488 -168 l 402 -330 l 328 -330 l 369 -161 l 369 -65 l 488 -65 l 488 -168 z "},"ķ":{"ha":727,"x_min":87,"x_max":735,"o":"m 326 321 l 252 321 l 252 0 l 87 0 l 87 1058 l 252 1058 l 252 453 l 320 453 l 505 734 l 699 734 l 457 400 l 735 0 l 544 0 l 326 321 m 426 -167 l 340 -328 l 266 -328 l 307 -160 l 307 -64 l 426 -64 l 426 -167 z "},"ĸ":{"ha":798,"x_min":96,"x_max":767,"o":"m 336 290 l 260 290 l 260 0 l 96 0 l 96 734 l 260 734 l 260 441 l 318 441 l 546 734 l 745 734 l 747 730 l 465 382 l 767 0 l 557 0 l 336 290 z "},"Ĺ":{"ha":751,"x_min":108,"x_max":726,"o":"m 273 132 l 726 132 l 726 0 l 108 0 l 108 987 l 273 987 l 273 132 m 239 1210 l 422 1210 l 423 1206 l 238 1029 l 110 1029 l 239 1210 z "},"ĺ":{"ha":360,"x_min":98,"x_max":413,"o":"m 262 0 l 98 0 l 98 1058 l 262 1058 l 262 0 m 229 1265 l 412 1265 l 413 1261 l 228 1084 l 100 1084 l 229 1265 z "},"Ļ":{"ha":751,"x_min":108,"x_max":726,"o":"m 273 132 l 726 132 l 726 0 l 108 0 l 108 987 l 273 987 l 273 132 m 473 -167 l 388 -328 l 313 -328 l 355 -160 l 355 -64 l 473 -64 l 473 -167 z "},"ļ":{"ha":360,"x_min":73,"x_max":262,"o":"m 262 0 l 98 0 l 98 1058 l 262 1058 l 262 0 m 233 -167 l 148 -328 l 73 -328 l 115 -160 l 115 -64 l 233 -64 l 233 -167 z "},"Ľ":{"ha":751,"x_min":108,"x_max":726,"o":"m 273 132 l 726 132 l 726 0 l 108 0 l 108 987 l 273 987 l 273 132 m 565 886 l 479 724 l 405 724 l 446 892 l 446 989 l 565 989 l 565 886 z "},"ľ":{"ha":462,"x_min":98,"x_max":485,"o":"m 262 0 l 98 0 l 98 1058 l 262 1058 l 262 0 m 485 955 l 399 793 l 325 793 l 366 962 l 366 1058 l 485 1058 l 485 955 z "},"Ŀ":{"ha":751,"x_min":108,"x_max":726,"o":"m 273 132 l 726 132 l 726 0 l 108 0 l 108 987 l 273 987 l 273 132 m 581 464 l 405 464 l 405 615 l 581 615 l 581 464 z "},"ŀ":{"ha":509,"x_min":98,"x_max":515,"o":"m 262 0 l 98 0 l 98 1058 l 262 1058 l 262 0 m 515 439 l 339 439 l 339 590 l 515 590 l 515 439 z "},"Ł":{"ha":719,"x_min":18,"x_max":715,"o":"m 261 586 l 437 640 l 437 515 l 261 461 l 261 132 l 715 132 l 715 0 l 96 0 l 96 412 l 18 388 l 18 513 l 96 536 l 96 987 l 261 987 l 261 586 z "},"ł":{"ha":390,"x_min":18,"x_max":374,"o":"m 276 604 l 374 640 l 374 515 l 276 479 l 276 0 l 111 0 l 111 421 l 18 388 l 18 513 l 111 546 l 111 1058 l 276 1058 l 276 604 z "},"Ń":{"ha":987,"x_min":108,"x_max":879,"o":"m 879 0 l 715 0 l 277 721 l 273 720 l 273 0 l 108 0 l 108 987 l 273 987 l 711 267 l 715 269 l 715 987 l 879 987 l 879 0 m 542 1238 l 724 1238 l 726 1234 l 541 1057 l 412 1057 l 542 1238 z "},"ń":{"ha":787,"x_min":85,"x_max":702,"o":"m 236 734 l 245 628 q 336 716 281 684 q 459 747 391 747 q 638 678 574 747 q 702 461 702 608 l 702 0 l 537 0 l 537 460 q 503 577 537 543 q 399 612 469 612 q 313 591 351 612 q 250 532 275 570 l 250 0 l 85 0 l 85 734 l 236 734 m 441 1019 l 623 1019 l 625 1015 l 439 839 l 311 839 l 441 1019 z "},"Ņ":{"ha":987,"x_min":108,"x_max":879,"o":"m 879 0 l 715 0 l 277 721 l 273 720 l 273 0 l 108 0 l 108 987 l 273 987 l 711 267 l 715 269 l 715 987 l 879 987 l 879 0 m 546 -167 l 460 -328 l 386 -328 l 427 -160 l 427 -64 l 546 -64 l 546 -167 z "},"ņ":{"ha":787,"x_min":85,"x_max":702,"o":"m 236 734 l 245 628 q 336 716 281 684 q 459 747 391 747 q 638 678 574 747 q 702 461 702 608 l 702 0 l 537 0 l 537 460 q 503 577 537 543 q 399 612 469 612 q 313 591 351 612 q 250 532 275 570 l 250 0 l 85 0 l 85 734 l 236 734 m 445 -167 l 359 -328 l 285 -328 l 326 -160 l 326 -64 l 445 -64 l 445 -167 z "},"Ň":{"ha":987,"x_min":108,"x_max":879,"o":"m 879 0 l 715 0 l 277 721 l 273 720 l 273 0 l 108 0 l 108 987 l 273 987 l 711 267 l 715 269 l 715 987 l 879 987 l 879 0 m 492 1176 l 581 1268 l 727 1268 l 727 1257 l 545 1086 l 439 1086 l 258 1255 l 258 1268 l 402 1268 l 492 1176 z "},"ň":{"ha":787,"x_min":85,"x_max":702,"o":"m 236 734 l 245 628 q 336 716 281 684 q 459 747 391 747 q 638 678 574 747 q 702 461 702 608 l 702 0 l 537 0 l 537 460 q 503 577 537 543 q 399 612 469 612 q 313 591 351 612 q 250 532 275 570 l 250 0 l 85 0 l 85 734 l 236 734 m 391 958 l 480 1050 l 626 1050 l 626 1038 l 444 867 l 338 867 l 157 1037 l 157 1050 l 301 1050 l 391 958 z "},"ŉ":{"ha":787,"x_min":-20,"x_max":702,"o":"m 236 734 l 245 628 q 336 716 281 684 q 459 747 391 747 q 638 678 574 747 q 702 461 702 608 l 702 0 l 537 0 l 537 460 q 503 577 537 543 q 399 612 469 612 q 313 591 351 612 q 250 532 275 570 l 250 0 l 85 0 l 85 734 l 236 734 m 140 955 l 54 793 l -20 793 l 21 962 l 21 1058 l 140 1058 l 140 955 z "},"Ŋ":{"ha":967,"x_min":100,"x_max":871,"o":"m 871 987 l 871 -43 q 807 -230 871 -164 q 631 -296 744 -296 q 587 -294 607 -296 q 545 -285 567 -291 l 555 -155 q 587 -161 566 -159 q 622 -164 608 -164 q 684 -132 662 -164 q 706 -43 706 -100 l 706 0 l 269 711 l 264 710 l 264 0 l 100 0 l 100 987 l 264 987 l 702 276 l 706 277 l 706 987 l 871 987 z "},"ŋ":{"ha":787,"x_min":85,"x_max":699,"o":"m 236 734 l 245 632 q 335 717 281 687 q 456 747 389 747 q 634 677 570 747 q 699 456 699 606 l 699 -43 q 635 -230 699 -164 q 459 -296 572 -296 q 415 -294 435 -296 q 373 -285 395 -291 l 382 -151 q 414 -156 394 -154 q 450 -159 435 -159 q 512 -129 490 -159 q 534 -43 534 -100 l 534 455 q 500 576 534 541 q 399 612 467 612 q 311 594 349 612 q 250 543 274 576 l 250 0 l 85 0 l 85 734 l 236 734 z "},"Ō":{"ha":948,"x_min":70,"x_max":878,"o":"m 878 405 q 764 105 878 224 q 469 -14 650 -14 q 181 105 292 -14 q 70 405 70 224 l 70 583 q 181 882 70 763 q 469 1002 292 1002 q 764 882 650 1002 q 878 583 878 763 l 878 405 m 713 584 q 647 787 713 707 q 469 866 581 866 q 297 787 360 866 q 234 584 234 707 l 234 405 q 297 200 234 280 q 469 121 360 121 q 648 200 583 121 q 713 405 713 279 l 713 584 m 723 1116 l 230 1116 l 230 1223 l 723 1223 l 723 1116 z "},"ō":{"ha":787,"x_min":56,"x_max":730,"o":"m 56 374 q 146 642 56 537 q 392 747 237 747 q 640 642 550 747 q 730 374 730 538 l 730 359 q 640 90 730 194 q 393 -14 550 -14 q 146 90 236 -14 q 56 359 56 195 l 56 374 m 221 359 q 263 184 221 252 q 393 117 304 117 q 522 184 479 117 q 566 359 566 252 l 566 374 q 522 547 566 479 q 392 615 479 615 q 263 547 306 615 q 221 374 221 478 l 221 359 m 642 883 l 149 883 l 149 990 l 642 990 l 642 883 z "},"Ŏ":{"ha":948,"x_min":70,"x_max":878,"o":"m 878 405 q 764 105 878 224 q 469 -14 650 -14 q 181 105 292 -14 q 70 405 70 224 l 70 583 q 181 882 70 763 q 469 1002 292 1002 q 764 882 650 1002 q 878 583 878 763 l 878 405 m 713 584 q 647 787 713 707 q 469 866 581 866 q 297 787 360 866 q 234 584 234 707 l 234 405 q 297 200 234 280 q 469 121 360 121 q 648 200 583 121 q 713 405 713 279 l 713 584 m 688 1292 l 690 1288 q 633 1152 692 1204 q 475 1100 574 1100 q 315 1152 374 1100 q 260 1288 256 1204 l 262 1292 l 384 1292 q 406 1227 384 1253 q 475 1202 428 1202 q 543 1227 520 1202 q 565 1292 565 1253 l 688 1292 z "},"ŏ":{"ha":787,"x_min":56,"x_max":730,"o":"m 56 374 q 146 642 56 537 q 392 747 237 747 q 640 642 550 747 q 730 374 730 538 l 730 359 q 640 90 730 194 q 393 -14 550 -14 q 146 90 236 -14 q 56 359 56 195 l 56 374 m 221 359 q 263 184 221 252 q 393 117 304 117 q 522 184 479 117 q 566 359 566 252 l 566 374 q 522 547 566 479 q 392 615 479 615 q 263 547 306 615 q 221 374 221 478 l 221 359 m 606 1059 l 608 1055 q 552 920 611 972 q 393 867 493 867 q 234 920 293 867 q 178 1055 175 972 l 180 1059 l 302 1059 q 325 995 302 1020 q 393 970 347 970 q 461 995 439 970 q 484 1059 484 1020 l 606 1059 z "},"Ő":{"ha":948,"x_min":70,"x_max":878,"o":"m 878 405 q 764 105 878 224 q 469 -14 650 -14 q 181 105 292 -14 q 70 405 70 224 l 70 583 q 181 882 70 763 q 469 1002 292 1002 q 764 882 650 1002 q 878 583 878 763 l 878 405 m 713 584 q 647 787 713 707 q 469 866 581 866 q 297 787 360 866 q 234 584 234 707 l 234 405 q 297 200 234 280 q 469 121 360 121 q 648 200 583 121 q 713 405 713 279 l 713 584 m 661 1280 l 833 1280 l 834 1276 l 635 1100 l 499 1100 l 498 1103 l 661 1280 m 419 1280 l 584 1280 l 585 1277 l 422 1100 l 290 1100 l 419 1280 z "},"ő":{"ha":787,"x_min":56,"x_max":753,"o":"m 56 374 q 146 642 56 537 q 392 747 237 747 q 640 642 550 747 q 730 374 730 538 l 730 359 q 640 90 730 194 q 393 -14 550 -14 q 146 90 236 -14 q 56 359 56 195 l 56 374 m 221 359 q 263 184 221 252 q 393 117 304 117 q 522 184 479 117 q 566 359 566 252 l 566 374 q 522 547 566 479 q 392 615 479 615 q 263 547 306 615 q 221 374 221 478 l 221 359 m 579 1048 l 751 1048 l 753 1044 l 554 867 l 418 867 l 416 871 l 579 1048 m 338 1048 l 503 1048 l 504 1044 l 341 867 l 209 867 l 338 1048 z "},"Œ":{"ha":1337,"x_min":68,"x_max":1265,"o":"m 1265 0 l 659 0 q 552 -11 596 -7 q 463 -14 509 -14 q 178 98 287 -14 q 68 391 68 210 l 68 597 q 177 889 68 777 q 462 1002 286 1002 q 557 998 509 1002 q 659 987 605 994 l 1261 987 l 1261 855 l 764 855 l 764 576 l 1196 576 l 1196 444 l 764 444 l 764 132 l 1265 132 l 1265 0 m 463 118 q 532 120 498 118 q 600 127 566 123 l 600 860 q 529 867 564 864 q 462 869 495 869 q 293 800 354 869 q 233 598 233 730 l 233 391 q 294 188 233 258 q 463 118 355 118 z "},"œ":{"ha":1255,"x_min":56,"x_max":1217,"o":"m 929 -14 q 772 19 842 -14 q 659 114 703 53 q 548 19 615 52 q 393 -14 480 -14 q 146 90 236 -14 q 56 359 56 195 l 56 374 q 146 643 56 538 q 392 747 236 747 q 548 713 479 747 q 660 617 616 679 q 768 713 703 679 q 910 747 833 747 q 1138 657 1059 747 q 1217 416 1217 568 l 1217 319 l 759 319 l 758 316 q 809 173 762 229 q 939 117 856 117 q 1053 134 1006 117 q 1145 180 1101 150 l 1198 73 q 1088 11 1156 36 q 929 -14 1019 -14 m 221 359 q 263 184 221 252 q 393 117 305 117 q 523 185 479 117 q 566 359 566 252 l 566 374 q 523 547 566 479 q 392 615 479 615 q 263 547 306 615 q 221 374 221 479 l 221 359 m 910 615 q 810 567 849 615 q 761 444 770 518 l 762 440 l 1053 440 l 1053 457 q 1018 571 1053 527 q 910 615 982 615 z "},"Ŕ":{"ha":920,"x_min":108,"x_max":867,"o":"m 273 410 l 273 0 l 108 0 l 108 987 l 473 987 q 728 913 638 987 q 819 700 819 838 q 779 568 819 623 q 663 479 739 513 q 783 393 747 453 q 820 245 820 333 l 820 163 q 831 79 820 120 q 867 16 842 37 l 867 0 l 698 0 q 663 71 671 22 q 655 165 655 119 l 655 244 q 612 365 655 320 q 492 410 568 410 l 273 410 m 273 542 l 464 542 q 608 580 563 542 q 654 696 654 618 q 609 813 654 770 q 473 855 564 855 l 273 855 l 273 542 m 473 1238 l 656 1238 l 657 1234 l 472 1057 l 344 1057 l 473 1238 z "},"ŕ":{"ha":481,"x_min":87,"x_max":513,"o":"m 452 585 l 382 588 q 301 568 334 588 q 252 510 269 547 l 252 0 l 87 0 l 87 734 l 237 734 l 248 627 q 320 715 276 684 q 420 747 363 747 q 448 745 435 747 q 472 739 461 743 l 452 585 m 329 1019 l 511 1019 l 513 1015 l 328 839 l 199 839 l 329 1019 z "},"Ŗ":{"ha":920,"x_min":108,"x_max":867,"o":"m 273 410 l 273 0 l 108 0 l 108 987 l 473 987 q 728 913 638 987 q 819 700 819 838 q 779 568 819 623 q 663 479 739 513 q 783 393 747 453 q 820 245 820 333 l 820 163 q 831 79 820 120 q 867 16 842 37 l 867 0 l 698 0 q 663 71 671 22 q 655 165 655 119 l 655 244 q 612 365 655 320 q 492 410 568 410 l 273 410 m 273 542 l 464 542 q 608 580 563 542 q 654 696 654 618 q 609 813 654 770 q 473 855 564 855 l 273 855 l 273 542 m 477 -167 l 392 -328 l 317 -328 l 359 -160 l 359 -64 l 477 -64 l 477 -167 z "},"ŗ":{"ha":481,"x_min":72,"x_max":472,"o":"m 452 585 l 382 588 q 301 568 334 588 q 252 510 269 547 l 252 0 l 87 0 l 87 734 l 237 734 l 248 627 q 320 715 276 684 q 420 747 363 747 q 448 745 435 747 q 472 739 461 743 l 452 585 m 232 -167 l 146 -328 l 72 -328 l 113 -160 l 113 -64 l 232 -64 l 232 -167 z "},"Ř":{"ha":920,"x_min":108,"x_max":867,"o":"m 273 410 l 273 0 l 108 0 l 108 987 l 473 987 q 728 913 638 987 q 819 700 819 838 q 779 568 819 623 q 663 479 739 513 q 783 393 747 453 q 820 245 820 333 l 820 163 q 831 79 820 120 q 867 16 842 37 l 867 0 l 698 0 q 663 71 671 22 q 655 165 655 119 l 655 244 q 612 365 655 320 q 492 410 568 410 l 273 410 m 273 542 l 464 542 q 608 580 563 542 q 654 696 654 618 q 609 813 654 770 q 473 855 564 855 l 273 855 l 273 542 m 423 1176 l 513 1268 l 659 1268 l 659 1257 l 477 1086 l 370 1086 l 189 1255 l 189 1268 l 334 1268 l 423 1176 z "},"ř":{"ha":481,"x_min":46,"x_max":515,"o":"m 452 585 l 382 588 q 301 568 334 588 q 252 510 269 547 l 252 0 l 87 0 l 87 734 l 237 734 l 248 627 q 320 715 276 684 q 420 747 363 747 q 448 745 435 747 q 472 739 461 743 l 452 585 m 280 958 l 370 1050 l 515 1050 l 515 1038 l 334 867 l 227 867 l 46 1037 l 46 1050 l 191 1050 l 280 958 z "},"Ś":{"ha":873,"x_min":62,"x_max":808,"o":"m 643 254 q 597 355 643 315 q 435 425 551 394 q 181 540 270 469 q 92 728 92 612 q 190 924 92 847 q 445 1002 289 1002 q 706 914 608 1002 q 802 704 805 827 l 800 700 l 642 700 q 591 823 642 776 q 444 870 539 870 q 305 831 353 870 q 256 729 256 791 q 309 635 256 673 q 483 565 361 598 q 725 447 642 522 q 808 255 808 372 q 709 59 808 132 q 450 -14 610 -14 q 178 67 295 -14 q 65 292 62 149 l 66 296 l 225 296 q 288 161 225 205 q 450 117 350 117 q 592 154 541 117 q 643 254 643 191 m 477 1252 l 659 1252 l 661 1248 l 475 1072 l 347 1072 l 477 1252 z "},"ś":{"ha":722,"x_min":56,"x_max":661,"o":"m 499 199 q 467 262 499 237 q 345 307 434 288 q 146 386 214 334 q 79 525 79 437 q 157 682 79 617 q 362 747 235 747 q 575 681 496 747 q 651 517 654 615 l 650 513 l 492 513 q 457 591 492 559 q 362 624 422 624 q 271 597 302 624 q 240 532 240 570 q 270 470 240 493 q 389 430 299 448 q 594 350 528 401 q 661 208 661 298 q 579 47 661 109 q 364 -14 498 -14 q 138 59 221 -14 q 60 227 56 132 l 61 231 l 214 231 q 260 138 217 168 q 366 109 304 109 q 465 134 430 109 q 499 199 499 158 m 408 1019 l 590 1019 l 591 1015 l 406 839 l 278 839 l 408 1019 z "},"Ŝ":{"ha":873,"x_min":62,"x_max":808,"o":"m 643 254 q 597 355 643 315 q 435 425 551 394 q 181 540 270 469 q 92 728 92 612 q 190 924 92 847 q 445 1002 289 1002 q 706 914 608 1002 q 802 704 805 827 l 800 700 l 642 700 q 591 823 642 776 q 444 870 539 870 q 305 831 353 870 q 256 729 256 791 q 309 635 256 673 q 483 565 361 598 q 725 447 642 522 q 808 255 808 372 q 709 59 808 132 q 450 -14 610 -14 q 178 67 295 -14 q 65 292 62 149 l 66 296 l 225 296 q 288 161 225 205 q 450 117 350 117 q 592 154 541 117 q 643 254 643 191 m 656 1114 l 656 1097 l 524 1097 l 427 1192 l 331 1097 l 200 1097 l 200 1115 l 379 1278 l 476 1278 l 656 1114 z "},"ŝ":{"ha":722,"x_min":56,"x_max":661,"o":"m 499 199 q 467 262 499 237 q 345 307 434 288 q 146 386 214 334 q 79 525 79 437 q 157 682 79 617 q 362 747 235 747 q 575 681 496 747 q 651 517 654 615 l 650 513 l 492 513 q 457 591 492 559 q 362 624 422 624 q 271 597 302 624 q 240 532 240 570 q 270 470 240 493 q 389 430 299 448 q 594 350 528 401 q 661 208 661 298 q 579 47 661 109 q 364 -14 498 -14 q 138 59 221 -14 q 60 227 56 132 l 61 231 l 214 231 q 260 138 217 168 q 366 109 304 109 q 465 134 430 109 q 499 199 499 158 m 587 881 l 587 865 l 455 865 l 358 959 l 262 865 l 131 865 l 131 882 l 310 1045 l 407 1045 l 587 881 z "},"Ş":{"ha":873,"x_min":62,"x_max":808,"o":"m 643 254 q 597 355 643 315 q 435 425 551 394 q 181 540 270 469 q 92 728 92 612 q 190 924 92 847 q 445 1002 289 1002 q 706 914 608 1002 q 802 704 805 827 l 800 700 l 642 700 q 591 823 642 776 q 444 870 539 870 q 305 831 353 870 q 256 729 256 791 q 309 635 256 673 q 483 565 361 598 q 725 447 642 522 q 808 255 808 372 q 709 59 808 132 q 450 -14 610 -14 q 178 67 295 -14 q 65 292 62 149 l 66 296 l 225 296 q 288 161 225 205 q 450 117 350 117 q 592 154 541 117 q 643 254 643 191 m 496 -3 l 488 -40 q 561 -75 532 -47 q 590 -157 590 -103 q 532 -268 590 -227 q 368 -309 475 -309 l 363 -216 q 431 -201 406 -216 q 456 -155 456 -186 q 433 -113 456 -125 q 354 -98 410 -101 l 376 -3 l 496 -3 z "},"ş":{"ha":722,"x_min":56,"x_max":661,"o":"m 499 199 q 467 262 499 237 q 345 307 434 288 q 146 386 214 334 q 79 525 79 437 q 157 682 79 617 q 362 747 235 747 q 575 681 496 747 q 651 517 654 615 l 650 513 l 492 513 q 457 591 492 559 q 362 624 422 624 q 271 597 302 624 q 240 532 240 570 q 270 470 240 493 q 389 430 299 448 q 594 350 528 401 q 661 208 661 298 q 579 47 661 109 q 364 -14 498 -14 q 138 59 221 -14 q 60 227 56 132 l 61 231 l 214 231 q 260 138 217 168 q 366 109 304 109 q 465 134 430 109 q 499 199 499 158 m 421 -3 l 414 -40 q 486 -75 457 -47 q 515 -157 515 -103 q 458 -268 515 -227 q 294 -309 400 -309 l 289 -216 q 356 -201 331 -216 q 382 -155 382 -186 q 358 -113 382 -125 q 279 -98 335 -101 l 301 -3 l 421 -3 z "},"Š":{"ha":873,"x_min":62,"x_max":808,"o":"m 643 254 q 597 355 643 315 q 435 425 551 394 q 181 540 270 469 q 92 728 92 612 q 190 924 92 847 q 445 1002 289 1002 q 706 914 608 1002 q 802 704 805 827 l 800 700 l 642 700 q 591 823 642 776 q 444 870 539 870 q 305 831 353 870 q 256 729 256 791 q 309 635 256 673 q 483 565 361 598 q 725 447 642 522 q 808 255 808 372 q 709 59 808 132 q 450 -14 610 -14 q 178 67 295 -14 q 65 292 62 149 l 66 296 l 225 296 q 288 161 225 205 q 450 117 350 117 q 592 154 541 117 q 643 254 643 191 m 427 1190 l 516 1282 l 662 1282 l 662 1271 l 480 1100 l 374 1100 l 193 1270 l 193 1282 l 337 1282 l 427 1190 z "},"š":{"ha":722,"x_min":56,"x_max":661,"o":"m 499 199 q 467 262 499 237 q 345 307 434 288 q 146 386 214 334 q 79 525 79 437 q 157 682 79 617 q 362 747 235 747 q 575 681 496 747 q 651 517 654 615 l 650 513 l 492 513 q 457 591 492 559 q 362 624 422 624 q 271 597 302 624 q 240 532 240 570 q 270 470 240 493 q 389 430 299 448 q 594 350 528 401 q 661 208 661 298 q 579 47 661 109 q 364 -14 498 -14 q 138 59 221 -14 q 60 227 56 132 l 61 231 l 214 231 q 260 138 217 168 q 366 109 304 109 q 465 134 430 109 q 499 199 499 158 m 357 958 l 447 1050 l 593 1050 l 593 1038 l 411 867 l 304 867 l 123 1037 l 123 1050 l 268 1050 l 357 958 z "},"Ţ":{"ha":804,"x_min":21,"x_max":783,"o":"m 783 855 l 484 855 l 484 0 l 319 0 l 319 855 l 21 855 l 21 987 l 783 987 l 783 855 m 457 -167 l 372 -328 l 297 -328 l 338 -160 l 338 -64 l 457 -64 l 457 -167 z "},"ţ":{"ha":483,"x_min":16,"x_max":432,"o":"m 292 912 l 292 734 l 423 734 l 423 612 l 292 612 l 292 206 q 311 141 292 161 q 363 122 331 122 q 390 124 377 122 q 414 131 403 127 l 432 10 q 382 -8 411 -1 q 321 -14 353 -14 q 179 39 231 -14 q 127 206 127 92 l 127 612 l 16 612 l 16 734 l 127 734 l 127 912 l 292 912 m 355 -174 l 270 -335 l 195 -335 l 237 -167 l 237 -71 l 355 -71 l 355 -174 z "},"Ť":{"ha":804,"x_min":21,"x_max":783,"o":"m 783 855 l 484 855 l 484 0 l 319 0 l 319 855 l 21 855 l 21 987 l 783 987 l 783 855 m 403 1176 l 492 1268 l 638 1268 l 638 1257 l 456 1086 l 350 1086 l 169 1255 l 169 1268 l 313 1268 l 403 1176 z "},"ť":{"ha":510,"x_min":16,"x_max":542,"o":"m 292 912 l 292 734 l 423 734 l 423 612 l 292 612 l 292 206 q 311 141 292 161 q 363 122 331 122 q 390 124 377 122 q 414 131 403 127 l 432 10 q 382 -8 411 -1 q 321 -14 353 -14 q 179 39 231 -14 q 127 206 127 92 l 127 612 l 16 612 l 16 734 l 127 734 l 127 912 l 292 912 m 542 975 l 456 814 l 382 814 l 423 982 l 423 1078 l 542 1078 l 542 975 z "},"Ŧ":{"ha":804,"x_min":21,"x_max":783,"o":"m 625 533 l 484 533 l 484 0 l 319 0 l 319 533 l 180 533 l 180 648 l 319 648 l 319 855 l 21 855 l 21 987 l 783 987 l 783 855 l 484 855 l 484 648 l 625 648 l 625 533 z "},"ŧ":{"ha":483,"x_min":-8,"x_max":436,"o":"m 292 912 l 292 734 l 423 734 l 423 612 l 292 612 l 292 500 l 436 500 l 436 385 l 292 385 l 292 206 q 311 141 292 161 q 363 122 331 122 q 390 124 377 122 q 414 131 403 127 l 432 10 q 382 -8 411 -1 q 321 -14 353 -14 q 179 39 231 -14 q 127 206 127 92 l 127 385 l -8 385 l -8 500 l 127 500 l 127 612 l 16 612 l 16 734 l 127 734 l 127 912 l 292 912 z "},"Ũ":{"ha":947,"x_min":91,"x_max":858,"o":"m 858 987 l 858 326 q 751 74 858 161 q 471 -14 644 -14 q 196 74 301 -14 q 91 326 91 162 l 91 987 l 256 987 l 256 326 q 314 170 256 222 q 471 117 372 117 q 633 170 572 117 q 693 326 693 222 l 693 987 l 858 987 m 720 1256 q 679 1146 720 1192 q 577 1101 638 1101 q 473 1131 529 1101 q 382 1161 417 1161 q 338 1139 356 1161 q 319 1086 319 1117 l 231 1110 q 271 1221 231 1174 q 372 1268 311 1268 q 471 1238 410 1268 q 567 1208 532 1208 q 612 1230 593 1208 q 631 1282 631 1251 l 720 1256 z "},"ũ":{"ha":787,"x_min":83,"x_max":701,"o":"m 544 107 q 456 17 509 49 q 334 -14 404 -14 q 150 61 216 -14 q 83 295 83 136 l 83 734 l 248 734 l 248 294 q 279 159 248 197 q 373 120 310 120 q 473 141 433 120 q 536 203 513 163 l 536 734 l 701 734 l 701 0 l 557 0 l 544 107 m 637 1023 q 596 913 637 959 q 494 868 555 868 q 390 898 446 868 q 300 928 334 928 q 255 906 273 928 q 237 854 237 884 l 148 878 q 188 988 148 941 q 290 1036 229 1036 q 388 1005 328 1036 q 484 975 449 975 q 529 997 510 975 q 548 1050 548 1019 l 637 1023 z "},"Ū":{"ha":947,"x_min":91,"x_max":858,"o":"m 858 987 l 858 326 q 751 74 858 161 q 471 -14 644 -14 q 196 74 301 -14 q 91 326 91 162 l 91 987 l 256 987 l 256 326 q 314 170 256 222 q 471 117 372 117 q 633 170 572 117 q 693 326 693 222 l 693 987 l 858 987 m 724 1101 l 231 1101 l 231 1208 l 724 1208 l 724 1101 z "},"ū":{"ha":787,"x_min":83,"x_max":701,"o":"m 544 107 q 456 17 509 49 q 334 -14 404 -14 q 150 61 216 -14 q 83 295 83 136 l 83 734 l 248 734 l 248 294 q 279 159 248 197 q 373 120 310 120 q 473 141 433 120 q 536 203 513 163 l 536 734 l 701 734 l 701 0 l 557 0 l 544 107 m 641 870 l 148 870 l 148 977 l 641 977 l 641 870 z "},"Ŭ":{"ha":947,"x_min":91,"x_max":858,"o":"m 858 987 l 858 326 q 751 74 858 161 q 471 -14 644 -14 q 196 74 301 -14 q 91 326 91 162 l 91 987 l 256 987 l 256 326 q 314 170 256 222 q 471 117 372 117 q 633 170 572 117 q 693 326 693 222 l 693 987 l 858 987 m 688 1278 l 690 1274 q 634 1138 693 1190 q 475 1086 575 1086 q 316 1138 375 1086 q 260 1274 257 1190 l 262 1278 l 385 1278 q 407 1213 385 1238 q 475 1188 429 1188 q 543 1213 521 1188 q 566 1278 566 1238 l 688 1278 z "},"ŭ":{"ha":787,"x_min":83,"x_max":701,"o":"m 544 107 q 456 17 509 49 q 334 -14 404 -14 q 150 61 216 -14 q 83 295 83 136 l 83 734 l 248 734 l 248 294 q 279 159 248 197 q 373 120 310 120 q 473 141 433 120 q 536 203 513 163 l 536 734 l 701 734 l 701 0 l 557 0 l 544 107 m 606 1045 l 608 1041 q 551 905 610 958 q 393 853 492 853 q 233 905 292 853 q 178 1041 174 958 l 180 1045 l 302 1045 q 324 981 302 1006 q 393 956 346 956 q 460 981 438 956 q 483 1045 483 1006 l 606 1045 z "},"Ů":{"ha":947,"x_min":91,"x_max":858,"o":"m 858 987 l 858 326 q 751 74 858 161 q 471 -14 644 -14 q 196 74 301 -14 q 91 326 91 162 l 91 987 l 256 987 l 256 326 q 314 170 256 222 q 471 117 372 117 q 633 170 572 117 q 693 326 693 222 l 693 987 l 858 987 m 332 1178 q 373 1274 332 1235 q 475 1312 415 1312 q 575 1274 534 1312 q 616 1178 616 1235 q 575 1083 616 1120 q 475 1046 534 1046 q 373 1083 415 1046 q 332 1178 332 1120 m 406 1178 q 426 1129 406 1149 q 475 1109 446 1109 q 523 1128 504 1109 q 542 1178 542 1147 q 523 1229 542 1208 q 475 1249 504 1249 q 426 1229 446 1249 q 406 1178 406 1208 z "},"ů":{"ha":787,"x_min":83,"x_max":701,"o":"m 544 107 q 456 17 509 49 q 334 -14 404 -14 q 150 61 216 -14 q 83 295 83 136 l 83 734 l 248 734 l 248 294 q 279 159 248 197 q 373 120 310 120 q 473 141 433 120 q 536 203 513 163 l 536 734 l 701 734 l 701 0 l 557 0 l 544 107 m 249 945 q 291 1041 249 1002 q 393 1080 332 1080 q 493 1041 452 1080 q 534 945 534 1002 q 493 851 534 888 q 393 814 452 814 q 291 851 332 814 q 249 945 249 888 m 323 945 q 343 897 323 916 q 393 877 363 877 q 440 896 421 877 q 459 945 459 915 q 440 996 459 976 q 393 1017 421 1016 q 343 996 363 1016 q 323 945 323 976 z "},"Ű":{"ha":947,"x_min":91,"x_max":858,"o":"m 858 987 l 858 326 q 751 74 858 161 q 471 -14 644 -14 q 196 74 301 -14 q 91 326 91 162 l 91 987 l 256 987 l 256 326 q 314 170 256 222 q 471 117 372 117 q 633 170 572 117 q 693 326 693 222 l 693 987 l 858 987 m 661 1266 l 833 1266 l 835 1262 l 636 1086 l 500 1086 l 498 1089 l 661 1266 m 420 1266 l 585 1266 l 586 1263 l 423 1086 l 291 1086 l 420 1266 z "},"ű":{"ha":787,"x_min":83,"x_max":752,"o":"m 544 107 q 456 17 509 49 q 334 -14 404 -14 q 150 61 216 -14 q 83 295 83 136 l 83 734 l 248 734 l 248 294 q 279 159 248 197 q 373 120 310 120 q 473 141 433 120 q 536 203 513 163 l 536 734 l 701 734 l 701 0 l 557 0 l 544 107 m 578 1034 l 751 1034 l 752 1029 l 553 853 l 417 853 l 416 857 l 578 1034 m 337 1034 l 502 1034 l 503 1030 l 340 853 l 208 853 l 337 1034 z "},"Ų":{"ha":947,"x_min":91,"x_max":858,"o":"m 858 987 l 858 326 q 751 74 858 161 q 471 -14 644 -14 q 196 74 301 -14 q 91 326 91 162 l 91 987 l 256 987 l 256 326 q 314 170 256 222 q 471 117 372 117 q 633 170 572 117 q 693 326 693 222 l 693 987 l 858 987 m 550 0 q 486 -63 508 -35 q 464 -127 464 -92 q 477 -165 464 -150 q 526 -181 490 -181 q 558 -177 544 -181 q 591 -165 572 -173 l 614 -262 q 560 -283 590 -275 q 489 -292 530 -292 q 376 -253 420 -292 q 332 -146 332 -215 q 369 -45 332 -93 q 483 41 406 3 l 550 0 z "},"ų":{"ha":787,"x_min":83,"x_max":729,"o":"m 544 107 q 456 17 509 49 q 334 -14 404 -14 q 150 61 216 -14 q 83 295 83 136 l 83 734 l 248 734 l 248 294 q 279 159 248 197 q 373 120 310 120 q 473 141 433 120 q 536 203 513 163 l 536 734 l 701 734 l 701 0 l 557 0 l 544 107 m 665 0 q 601 -63 623 -35 q 578 -127 578 -92 q 592 -165 578 -150 q 640 -181 605 -181 q 672 -177 659 -181 q 705 -165 686 -173 l 729 -262 q 675 -283 705 -275 q 604 -292 645 -292 q 491 -253 535 -292 q 446 -146 446 -215 q 483 -45 446 -93 q 597 41 520 3 l 665 0 z "},"Ŵ":{"ha":1229,"x_min":27,"x_max":1196,"o":"m 347 263 l 347 262 l 348 265 l 545 987 l 677 987 l 876 263 l 877 258 l 878 265 l 1034 987 l 1196 987 l 961 0 l 811 0 l 614 709 l 610 709 l 412 0 l 261 0 l 27 987 l 189 987 l 347 263 m 840 1099 l 840 1083 l 708 1083 l 611 1177 l 515 1083 l 384 1083 l 384 1101 l 563 1263 l 660 1263 l 840 1099 z "},"ŵ":{"ha":1038,"x_min":25,"x_max":1009,"o":"m 732 212 l 736 212 l 851 734 l 1009 734 l 808 0 l 673 0 l 517 501 l 516 508 l 515 501 l 361 0 l 226 0 l 25 734 l 183 734 l 300 220 l 304 219 l 457 734 l 577 734 l 732 212 m 747 867 l 747 850 l 614 850 l 517 945 l 421 850 l 290 850 l 290 868 l 469 1031 l 566 1031 l 747 867 z "},"Ŷ":{"ha":861,"x_min":9,"x_max":852,"o":"m 430 507 l 669 987 l 852 987 l 510 347 l 510 0 l 346 0 l 346 355 l 9 987 l 193 987 l 430 507 m 662 1099 l 662 1083 l 530 1083 l 433 1177 l 336 1083 l 205 1083 l 205 1101 l 385 1263 l 481 1263 l 662 1099 z "},"ŷ":{"ha":704,"x_min":11,"x_max":692,"o":"m 330 294 l 347 221 l 351 221 l 511 734 l 692 734 l 388 -111 q 306 -242 359 -188 q 156 -296 253 -296 q 112 -292 136 -296 q 67 -283 89 -288 l 85 -155 q 111 -157 94 -156 q 135 -159 127 -159 q 207 -128 180 -159 q 250 -58 233 -98 l 277 9 l 11 734 l 191 734 l 330 294 m 581 867 l 581 850 l 448 850 l 351 945 l 255 850 l 124 850 l 124 868 l 303 1031 l 400 1031 l 581 867 z "},"Ÿ":{"ha":861,"x_min":9,"x_max":852,"o":"m 430 507 l 669 987 l 852 987 l 510 347 l 510 0 l 346 0 l 346 355 l 9 987 l 193 987 l 430 507 m 679 1086 l 515 1086 l 515 1224 l 679 1224 l 679 1086 m 351 1086 l 187 1086 l 187 1224 l 351 1224 l 351 1086 z "},"Ź":{"ha":825,"x_min":60,"x_max":771,"o":"m 256 132 l 771 132 l 771 0 l 60 0 l 60 103 l 555 855 l 64 855 l 64 987 l 754 987 l 754 888 l 256 132 m 460 1238 l 642 1238 l 644 1234 l 458 1058 l 330 1058 l 460 1238 z "},"ź":{"ha":704,"x_min":58,"x_max":654,"o":"m 262 132 l 654 132 l 654 0 l 58 0 l 58 108 l 428 601 l 65 601 l 65 734 l 636 734 l 636 629 l 262 132 m 405 1005 l 587 1005 l 589 1001 l 404 825 l 275 825 l 405 1005 z "},"Ż":{"ha":825,"x_min":60,"x_max":771,"o":"m 256 132 l 771 132 l 771 0 l 60 0 l 60 103 l 555 855 l 64 855 l 64 987 l 754 987 l 754 888 l 256 132 m 497 1087 l 321 1087 l 321 1238 l 497 1238 l 497 1087 z "},"ż":{"ha":704,"x_min":58,"x_max":654,"o":"m 262 132 l 654 132 l 654 0 l 58 0 l 58 108 l 428 601 l 65 601 l 65 734 l 636 734 l 636 629 l 262 132 m 442 854 l 267 854 l 267 1005 l 442 1005 l 442 854 z "},"Ž":{"ha":825,"x_min":60,"x_max":771,"o":"m 256 132 l 771 132 l 771 0 l 60 0 l 60 103 l 555 855 l 64 855 l 64 987 l 754 987 l 754 888 l 256 132 m 410 1177 l 499 1269 l 645 1269 l 645 1257 l 463 1086 l 357 1086 l 176 1256 l 176 1269 l 320 1269 l 410 1177 z "},"ž":{"ha":704,"x_min":58,"x_max":654,"o":"m 262 132 l 654 132 l 654 0 l 58 0 l 58 108 l 428 601 l 65 601 l 65 734 l 636 734 l 636 629 l 262 132 m 355 943 l 444 1036 l 590 1036 l 590 1024 l 408 853 l 302 853 l 121 1023 l 121 1036 l 265 1036 l 355 943 z "},"ſ":{"ha":355,"x_min":94,"x_max":448,"o":"m 94 0 l 94 819 q 160 1006 94 941 q 345 1072 227 1072 q 394 1068 370 1072 q 448 1058 418 1065 l 431 932 q 402 938 416 936 q 369 940 387 940 q 287 908 315 940 q 258 819 258 876 l 258 0 l 94 0 z "},"ƒ":{"ha":488,"x_min":-24,"x_max":490,"o":"m 437 612 l 300 612 l 300 -43 q 237 -230 300 -164 q 62 -296 174 -296 q 18 -294 37 -296 q -24 -285 -2 -291 l -14 -155 q 18 -161 -2 -159 q 52 -164 37 -164 q 114 -132 92 -164 q 136 -43 136 -100 l 136 612 l 24 612 l 24 734 l 136 734 l 136 819 q 202 1006 136 941 q 387 1072 268 1072 q 435 1068 411 1072 q 490 1058 460 1065 l 473 930 q 443 935 460 933 q 408 937 427 937 q 327 907 354 937 q 300 819 300 876 l 300 734 l 437 734 l 437 612 z "},"Ơ":{"ha":961,"x_min":66,"x_max":1050,"o":"m 874 405 q 761 105 874 224 q 466 -14 647 -14 q 177 105 288 -14 q 66 405 66 224 l 66 583 q 177 882 66 763 q 465 1002 288 1002 q 625 972 551 1002 q 753 890 698 943 q 869 960 829 903 q 909 1109 909 1016 l 1050 1109 q 994 893 1050 979 q 832 778 937 808 q 863 684 852 734 q 874 583 874 635 l 874 405 m 710 584 q 644 787 710 707 q 465 866 578 866 q 294 787 357 866 q 231 584 231 707 l 231 405 q 294 200 231 280 q 466 121 357 121 q 645 200 579 121 q 710 405 710 279 l 710 584 z "},"ơ":{"ha":802,"x_min":56,"x_max":854,"o":"m 56 374 q 146 643 56 538 q 392 747 236 747 q 526 723 466 747 q 630 653 586 698 q 699 718 675 671 q 722 832 722 764 l 854 832 q 811 666 854 733 q 687 572 768 600 q 719 478 707 528 q 730 374 730 429 l 730 359 q 640 90 730 194 q 393 -14 550 -14 q 146 90 236 -14 q 56 359 56 195 l 56 374 m 221 359 q 263 184 221 252 q 393 117 305 117 q 523 185 479 117 q 566 359 566 252 l 566 374 q 523 547 566 479 q 392 615 479 615 q 263 547 306 615 q 221 374 221 479 l 221 359 z "},"Ư":{"ha":980,"x_min":91,"x_max":1115,"o":"m 858 987 l 858 865 l 862 864 q 946 938 918 881 q 974 1084 974 994 l 1115 1084 q 1050 852 1115 939 q 858 744 985 766 l 858 326 q 751 74 858 161 q 471 -14 644 -14 q 196 74 301 -14 q 91 326 91 162 l 91 987 l 256 987 l 256 326 q 314 170 256 222 q 471 117 372 117 q 633 170 572 117 q 693 326 693 222 l 693 987 l 858 987 z "},"ư":{"ha":805,"x_min":83,"x_max":945,"o":"m 941 821 l 943 817 q 886 630 945 696 q 701 552 827 564 l 701 0 l 557 0 l 544 107 q 456 17 509 49 q 334 -14 404 -14 q 150 61 216 -14 q 83 295 83 136 l 83 734 l 248 734 l 248 294 q 279 159 248 197 q 373 120 310 120 q 473 141 433 120 q 536 203 513 163 l 536 734 l 701 734 l 701 652 l 705 651 q 794 699 768 658 q 820 821 820 741 l 941 821 z "},"ǰ":{"ha":373,"x_min":-51,"x_max":421,"o":"m 273 734 l 273 -43 q 210 -230 273 -164 q 35 -296 147 -296 q -9 -294 10 -296 q -51 -285 -29 -291 l -41 -155 q -9 -161 -29 -159 q 25 -164 10 -164 q 87 -132 64 -164 q 109 -43 109 -100 l 109 734 l 273 734 m 186 935 l 275 1027 l 421 1027 l 421 1016 l 239 845 l 133 845 l -48 1015 l -48 1027 l 96 1027 l 186 935 z "},"Ǻ":{"ha":895,"x_min":11,"x_max":888,"o":"m 643 231 l 256 231 l 178 0 l 11 0 l 374 987 l 530 987 l 888 0 l 721 0 l 643 231 m 304 368 l 596 368 l 453 790 l 449 790 l 304 368 m 520 1434 l 674 1434 l 675 1430 l 514 1299 l 414 1299 l 412 1303 l 520 1434 m 326 1146 q 363 1232 326 1198 q 454 1267 400 1267 q 542 1232 506 1267 q 578 1146 578 1198 q 542 1062 578 1095 q 454 1029 506 1029 q 363 1062 399 1029 q 326 1146 326 1095 m 393 1146 q 411 1104 393 1121 q 454 1088 428 1088 q 494 1104 477 1088 q 511 1146 511 1121 q 494 1190 511 1172 q 454 1208 478 1207 q 411 1190 428 1207 q 393 1146 393 1172 z "},"ǻ":{"ha":755,"x_min":56,"x_max":695,"o":"m 528 0 q 514 54 519 28 q 506 107 508 81 q 417 21 472 56 q 293 -14 361 -14 q 117 45 178 -14 q 56 207 56 104 q 140 373 56 313 q 376 432 224 432 l 505 432 l 505 496 q 471 587 505 554 q 374 619 437 619 q 284 592 317 619 q 251 522 251 565 l 92 522 l 92 526 q 169 680 87 613 q 384 747 252 747 q 591 682 512 747 q 669 495 669 617 l 669 169 q 675 82 669 123 q 695 0 682 40 l 528 0 m 326 118 q 438 149 389 118 q 505 220 488 180 l 505 329 l 374 329 q 261 293 302 329 q 220 210 220 258 q 248 143 220 168 q 326 118 275 118 m 441 1215 l 595 1215 l 596 1211 l 435 1081 l 334 1081 l 332 1084 l 441 1215 m 247 928 q 284 1014 247 979 q 374 1048 321 1048 q 463 1014 427 1048 q 499 928 499 979 q 463 843 499 876 q 374 810 427 810 q 283 843 320 810 q 247 928 247 876 m 314 928 q 331 886 314 903 q 374 869 349 869 q 415 886 398 869 q 431 928 431 903 q 415 971 431 954 q 374 989 399 989 q 331 971 349 989 q 314 928 314 954 z "},"Ǽ":{"ha":1305,"x_min":-7,"x_max":1274,"o":"m 1274 0 l 665 0 l 655 231 l 315 231 l 190 0 l -7 0 l 559 987 l 1232 987 l 1232 854 l 794 854 l 806 577 l 1177 577 l 1177 444 l 811 444 l 825 133 l 1274 133 l 1274 0 m 393 376 l 649 376 l 631 808 l 627 809 l 393 376 m 683 1238 l 865 1238 l 867 1234 l 682 1057 l 553 1057 l 683 1238 z "},"ǽ":{"ha":1173,"x_min":35,"x_max":1131,"o":"m 850 -14 q 692 16 761 -14 q 577 102 623 46 q 465 19 537 52 q 291 -14 392 -14 q 102 46 169 -14 q 35 212 35 107 q 117 377 35 319 q 355 435 199 435 l 495 435 l 495 484 q 464 580 495 545 q 374 615 432 615 q 274 585 311 615 q 238 510 238 554 l 80 522 l 79 526 q 157 685 75 622 q 375 747 239 747 q 506 725 448 747 q 602 659 564 703 q 701 725 644 702 q 826 747 758 747 q 1051 659 971 747 q 1131 415 1131 570 l 1131 319 l 670 319 l 668 315 q 718 172 671 227 q 860 117 766 117 q 969 133 926 117 q 1067 180 1012 149 l 1116 68 q 1009 12 1078 37 q 850 -14 941 -14 m 323 111 q 418 136 368 111 q 495 194 467 161 l 495 322 l 357 322 q 241 289 283 322 q 200 209 200 256 q 231 138 200 165 q 323 111 262 111 m 826 615 q 716 567 755 615 q 670 439 677 518 l 671 435 l 968 435 l 968 456 q 933 571 968 527 q 826 615 899 615 m 633 1020 l 815 1020 l 817 1016 l 631 840 l 503 840 l 633 1020 z "},"Ǿ":{"ha":951,"x_min":70,"x_max":878,"o":"m 878 405 q 764 105 878 224 q 469 -14 650 -14 q 364 -2 414 -14 q 271 35 314 10 l 213 -64 l 113 -64 l 201 85 q 104 225 138 142 q 70 405 70 308 l 70 583 q 181 882 70 763 q 469 1002 292 1002 q 592 984 534 1002 q 700 935 650 967 l 755 1029 l 856 1029 l 767 879 q 849 746 820 822 q 878 583 878 669 l 878 405 m 234 405 q 246 306 234 351 q 280 228 258 260 l 284 227 l 626 809 q 555 851 594 836 q 469 866 515 866 q 297 787 360 866 q 234 584 234 707 l 234 405 m 713 584 q 705 662 713 625 q 683 728 697 699 l 679 728 l 343 157 q 401 130 370 139 q 469 121 433 121 q 648 200 583 121 q 713 405 713 279 l 713 584 m 528 1280 l 710 1280 l 711 1276 l 526 1099 l 398 1099 l 528 1280 z "},"ǿ":{"ha":787,"x_min":56,"x_max":730,"o":"m 56 374 q 146 643 56 538 q 392 747 236 747 q 461 741 428 747 q 526 723 495 734 l 574 822 l 672 822 l 602 679 q 696 550 663 629 q 730 374 730 471 l 730 359 q 640 90 730 194 q 393 -14 550 -14 q 330 -9 361 -14 q 271 5 300 -4 l 222 -94 l 125 -94 l 194 47 q 92 176 127 95 q 56 359 56 258 l 56 374 m 221 359 q 231 263 221 307 q 261 193 241 220 l 265 192 l 465 599 q 430 611 448 606 q 392 615 412 615 q 263 547 306 615 q 221 374 221 479 l 221 359 m 566 374 q 557 460 566 420 q 532 528 548 500 l 528 528 l 332 128 q 361 120 345 123 q 393 117 376 117 q 523 185 479 117 q 566 359 566 252 l 566 374 m 416 1017 l 598 1017 l 600 1013 l 414 837 l 286 837 l 416 1017 z "},"Ș":{"ha":873,"x_min":62,"x_max":808,"o":"m 643 254 q 597 355 643 315 q 435 425 551 394 q 181 540 270 469 q 92 728 92 612 q 190 924 92 847 q 445 1002 289 1002 q 706 914 608 1002 q 802 704 805 827 l 800 700 l 642 700 q 591 823 642 776 q 444 870 539 870 q 305 831 353 870 q 256 729 256 791 q 309 635 256 673 q 483 565 361 598 q 725 447 642 522 q 808 255 808 372 q 709 59 808 132 q 450 -14 610 -14 q 178 67 295 -14 q 65 292 62 149 l 66 296 l 225 296 q 288 161 225 205 q 450 117 350 117 q 592 154 541 117 q 643 254 643 191 m 486 -180 l 401 -342 l 326 -342 l 368 -174 l 368 -77 l 486 -77 l 486 -180 z "},"ș":{"ha":722,"x_min":56,"x_max":661,"o":"m 499 199 q 467 262 499 237 q 345 307 434 288 q 146 386 214 334 q 79 525 79 437 q 157 682 79 617 q 362 747 235 747 q 575 681 496 747 q 651 517 654 615 l 650 513 l 492 513 q 457 591 492 559 q 362 624 422 624 q 271 597 302 624 q 240 532 240 570 q 270 470 240 493 q 389 430 299 448 q 594 350 528 401 q 661 208 661 298 q 579 47 661 109 q 364 -14 498 -14 q 138 59 221 -14 q 60 227 56 132 l 61 231 l 214 231 q 260 138 217 168 q 366 109 304 109 q 465 134 430 109 q 499 199 499 158 m 412 -180 l 326 -342 l 252 -342 l 293 -174 l 293 -77 l 412 -77 l 412 -180 z "},"ȷ":{"ha":373,"x_min":-51,"x_max":273,"o":"m 273 734 l 273 -43 q 210 -230 273 -164 q 35 -296 147 -296 q -9 -294 10 -296 q -51 -285 -29 -291 l -41 -155 q -9 -161 -29 -159 q 25 -164 10 -164 q 87 -132 64 -164 q 109 -43 109 -100 l 109 734 l 273 734 z "},"ʼ":{"ha":280,"x_min":47,"x_max":237,"o":"m 237 926 l 127 689 l 47 689 l 87 925 l 87 1058 l 237 1058 l 237 926 z "},"ˆ":{"ha":677,"x_min":105,"x_max":562,"o":"m 562 865 l 562 849 l 429 849 l 332 943 l 236 849 l 105 849 l 105 867 l 284 1029 l 381 1029 l 562 865 z "},"ˇ":{"ha":640,"x_min":82,"x_max":551,"o":"m 316 939 l 406 1031 l 551 1031 l 551 1020 l 370 849 l 263 849 l 82 1019 l 82 1031 l 227 1031 l 316 939 z "},"˘":{"ha":605,"x_min":80,"x_max":516,"o":"m 511 987 l 513 983 q 457 848 516 900 q 298 795 398 795 q 139 848 198 795 q 83 983 80 900 l 85 987 l 208 987 q 230 923 208 948 q 298 898 252 898 q 366 923 344 898 q 389 987 389 948 l 511 987 z "},"˙":{"ha":401,"x_min":104,"x_max":280,"o":"m 280 840 l 104 840 l 104 991 l 280 991 l 280 840 z "},"˚":{"ha":468,"x_min":88,"x_max":373,"o":"m 88 883 q 130 979 88 940 q 232 1017 172 1017 q 332 979 291 1017 q 373 883 373 940 q 332 788 373 825 q 232 751 291 751 q 130 788 172 751 q 88 883 88 825 m 163 883 q 183 834 163 854 q 232 814 203 814 q 279 833 260 814 q 298 883 298 852 q 279 933 298 913 q 232 954 260 954 q 183 933 203 954 q 163 883 163 913 z "},"˛":{"ha":399,"x_min":50,"x_max":333,"o":"m 269 0 q 204 -63 227 -35 q 182 -127 182 -92 q 196 -165 182 -150 q 244 -181 209 -181 q 276 -177 262 -181 q 309 -165 290 -173 l 333 -262 q 279 -283 309 -275 q 208 -292 249 -292 q 95 -253 139 -292 q 50 -146 50 -215 q 87 -45 50 -93 q 201 41 124 3 l 269 0 z "},"˜":{"ha":667,"x_min":87,"x_max":576,"o":"m 576 1009 q 535 899 576 945 q 433 854 494 854 q 329 884 385 854 q 239 914 273 914 q 194 892 212 914 q 176 840 176 870 l 87 863 q 127 974 87 927 q 229 1021 168 1021 q 327 991 267 1021 q 423 961 388 961 q 468 983 449 961 q 487 1036 487 1004 l 576 1009 z "},"˝":{"ha":553,"x_min":80,"x_max":624,"o":"m 450 1029 l 623 1029 l 624 1025 l 425 849 l 289 849 l 288 852 l 450 1029 m 209 1029 l 374 1029 l 375 1026 l 212 849 l 80 849 l 209 1029 z "},"˳":{"ha":453,"x_min":116,"x_max":343,"o":"m 116 -157 q 149 -80 116 -111 q 231 -49 182 -49 q 311 -80 278 -49 q 343 -157 343 -111 q 311 -232 343 -203 q 231 -262 279 -262 q 149 -232 182 -262 q 116 -157 116 -202 m 184 -157 q 198 -189 184 -176 q 231 -202 211 -202 q 262 -189 250 -202 q 275 -157 275 -176 q 262 -123 275 -136 q 231 -109 250 -109 q 198 -123 211 -109 q 184 -157 184 -136 z "},"̀":{"ha":0,"x_min":-546,"x_max":-319,"o":"m -319 816 l -422 816 l -546 1040 l -405 1040 l -319 816 z "},"́":{"ha":0,"x_min":-484,"x_max":-256,"o":"m -396 1042 l -256 1042 l -385 818 l -484 818 l -396 1042 z "},"̃":{"ha":0,"x_min":-604,"x_max":-115,"o":"m -115 1009 q -155 899 -115 945 q -257 854 -196 854 q -361 884 -305 854 q -452 914 -417 914 q -496 892 -478 914 q -515 840 -515 870 l -604 863 q -563 974 -604 927 q -462 1021 -523 1021 q -363 991 -424 1021 q -267 961 -302 961 q -222 983 -241 961 q -203 1036 -203 1004 l -115 1009 z "},"̉":{"ha":0,"x_min":-479,"x_max":-243,"o":"m -466 850 l -471 949 q -398 962 -420 952 q -377 996 -377 972 q -404 1033 -377 1021 q -479 1044 -431 1044 l -474 1128 q -303 1093 -362 1128 q -243 998 -243 1058 q -273 927 -243 951 q -345 897 -302 903 l -345 850 l -466 850 z "},"̏":{"ha":0,"x_min":-682,"x_max":-138,"o":"m -346 852 l -347 849 l -484 849 l -682 1025 l -681 1029 l -509 1029 l -346 852 m -138 849 l -271 849 l -433 1026 l -432 1029 l -267 1029 l -138 849 z "},"̣":{"ha":0,"x_min":-498,"x_max":-315,"o":"m -315 -235 l -498 -235 l -498 -84 l -315 -84 l -315 -235 z "},"΄":{"ha":410,"x_min":146,"x_max":356,"o":"m 192 1111 l 356 1111 l 226 861 l 146 861 l 192 1111 z "},"΅":{"ha":735,"x_min":106,"x_max":617,"o":"m 617 849 l 465 849 l 465 987 l 617 987 l 617 849 m 259 849 l 106 849 l 106 987 l 259 987 l 259 849 m 345 1184 l 513 1184 l 412 999 l 313 999 l 345 1184 z "},"Ά":{"ha":895,"x_min":11,"x_max":888,"o":"m 643 231 l 256 231 l 178 0 l 11 0 l 374 987 l 530 987 l 888 0 l 721 0 l 643 231 m 304 368 l 596 368 l 453 790 l 449 790 l 304 368 m 168 1111 l 332 1111 l 201 861 l 121 861 l 168 1111 z "},"·":{"ha":392,"x_min":109,"x_max":273,"o":"m 273 403 l 109 403 l 109 566 l 273 566 l 273 403 z "},"Έ":{"ha":873,"x_min":-54,"x_max":842,"o":"m 772 444 l 340 444 l 340 132 l 842 132 l 842 0 l 176 0 l 176 987 l 837 987 l 837 855 l 340 855 l 340 576 l 772 576 l 772 444 m -8 1112 l 156 1112 l 26 863 l -54 863 l -8 1112 z "},"Ή":{"ha":1055,"x_min":-24,"x_max":947,"o":"m 947 0 l 783 0 l 783 421 l 340 421 l 340 0 l 176 0 l 176 987 l 340 987 l 340 553 l 783 553 l 783 987 l 947 987 l 947 0 m 22 1111 l 186 1111 l 56 861 l -24 861 l 22 1111 z "},"Ί":{"ha":467,"x_min":-19,"x_max":350,"o":"m 350 0 l 185 0 l 185 987 l 350 987 l 350 0 m 27 1112 l 191 1112 l 61 863 l -19 863 l 27 1112 z "},"Ό":{"ha":962,"x_min":20,"x_max":891,"o":"m 891 405 q 778 105 891 224 q 483 -14 664 -14 q 194 105 305 -14 q 83 405 83 224 l 83 583 q 194 882 83 763 q 482 1002 305 1002 q 777 882 663 1002 q 891 583 891 763 l 891 405 m 727 584 q 661 787 727 707 q 482 866 595 866 q 311 787 374 866 q 248 584 248 707 l 248 405 q 311 200 248 280 q 483 121 374 121 q 662 200 596 121 q 727 405 727 279 l 727 584 m 66 1111 l 231 1111 l 100 861 l 20 861 l 66 1111 z "},"Ύ":{"ha":929,"x_min":-107,"x_max":920,"o":"m 498 507 l 736 987 l 920 987 l 578 347 l 578 0 l 414 0 l 414 355 l 77 987 l 260 987 l 498 507 m -61 1111 l 103 1111 l -27 861 l -107 861 l -61 1111 z "},"Ώ":{"ha":943,"x_min":14,"x_max":856,"o":"m 512 136 q 637 248 592 155 q 682 505 682 340 l 682 576 q 626 793 682 719 q 471 868 570 868 q 316 793 372 868 q 261 576 261 719 l 261 505 q 307 247 261 340 q 435 136 353 154 l 435 0 l 96 0 l 96 133 l 255 133 q 132 296 178 197 q 87 505 87 396 l 87 575 q 193 883 87 764 q 471 1002 300 1002 q 749 883 642 1002 q 856 575 856 764 l 856 505 q 810 297 856 397 q 688 133 764 197 l 852 133 l 852 0 l 512 0 l 512 136 m 60 1111 l 224 1111 l 94 861 l 14 861 l 60 1111 z "},"ΐ":{"ha":460,"x_min":-54,"x_max":457,"o":"m 279 733 l 279 201 q 296 138 279 156 q 343 121 313 121 q 375 124 361 121 q 407 136 389 128 l 433 16 q 372 -8 401 -1 q 305 -14 342 -14 q 163 39 212 -14 q 115 205 115 92 l 115 733 l 279 733 m 457 803 l 304 803 l 304 941 l 457 941 l 457 803 m 99 803 l -54 803 l -54 941 l 99 941 l 99 803 m 184 1138 l 353 1138 l 252 953 l 153 953 l 184 1138 z "},"Α":{"ha":895,"x_min":11,"x_max":888,"o":"m 643 231 l 256 231 l 178 0 l 11 0 l 374 987 l 530 987 l 888 0 l 721 0 l 643 231 m 304 368 l 596 368 l 453 790 l 449 790 l 304 368 z "},"Β":{"ha":890,"x_min":108,"x_max":822,"o":"m 108 0 l 108 987 l 436 987 q 692 920 600 987 q 785 718 785 852 q 746 598 785 651 q 639 519 707 545 q 774 435 727 500 q 822 283 822 370 q 731 72 822 144 q 480 0 640 0 l 108 0 m 273 449 l 273 132 l 480 132 q 612 171 566 132 q 658 283 658 210 q 619 406 658 362 q 498 449 581 449 l 273 449 m 273 572 l 454 572 q 575 608 531 572 q 620 711 620 644 q 573 820 620 784 q 436 855 526 855 l 273 855 l 273 572 z "},"Γ":{"ha":774,"x_min":108,"x_max":732,"o":"m 732 855 l 273 855 l 273 0 l 108 0 l 108 987 l 732 987 l 732 855 z "},"Δ":{"ha":996,"x_min":18,"x_max":971,"o":"m 425 987 l 582 987 l 971 0 l 18 0 l 425 987 m 240 132 l 751 132 l 504 787 l 500 787 l 240 132 z "},"Ε":{"ha":805,"x_min":108,"x_max":774,"o":"m 705 444 l 273 444 l 273 132 l 774 132 l 774 0 l 108 0 l 108 987 l 769 987 l 769 855 l 273 855 l 273 576 l 705 576 l 705 444 z "},"Ζ":{"ha":825,"x_min":60,"x_max":771,"o":"m 256 132 l 771 132 l 771 0 l 60 0 l 60 103 l 555 855 l 64 855 l 64 987 l 754 987 l 754 888 l 256 132 z "},"Η":{"ha":987,"x_min":108,"x_max":879,"o":"m 879 0 l 715 0 l 715 421 l 273 421 l 273 0 l 108 0 l 108 987 l 273 987 l 273 553 l 715 553 l 715 987 l 879 987 l 879 0 z "},"Θ":{"ha":951,"x_min":70,"x_max":878,"o":"m 631 429 l 328 429 l 328 562 l 631 562 l 631 429 m 878 405 q 764 105 878 224 q 469 -14 650 -14 q 181 105 292 -14 q 70 405 70 224 l 70 583 q 181 882 70 763 q 469 1002 292 1002 q 764 882 650 1002 q 878 583 878 763 l 878 405 m 713 584 q 647 787 713 707 q 469 866 581 866 q 297 787 360 866 q 234 584 234 707 l 234 405 q 297 200 234 280 q 469 121 360 121 q 648 200 583 121 q 713 405 713 279 l 713 584 z "},"Ι":{"ha":399,"x_min":117,"x_max":282,"o":"m 282 0 l 117 0 l 117 987 l 282 987 l 282 0 z "},"Κ":{"ha":895,"x_min":108,"x_max":900,"o":"m 387 427 l 273 427 l 273 0 l 108 0 l 108 987 l 273 987 l 273 569 l 367 569 l 677 987 l 872 987 l 513 516 l 900 0 l 699 0 l 387 427 z "},"Λ":{"ha":907,"x_min":24,"x_max":880,"o":"m 453 770 l 449 770 l 194 0 l 24 0 l 373 987 l 530 987 l 880 0 l 709 0 l 453 770 z "},"Μ":{"ha":1217,"x_min":108,"x_max":1108,"o":"m 321 987 l 606 228 l 610 228 l 895 987 l 1108 987 l 1108 0 l 943 0 l 943 336 l 960 764 l 956 765 l 663 0 l 552 0 l 260 763 l 256 762 l 273 336 l 273 0 l 108 0 l 108 987 l 321 987 z "},"Ν":{"ha":987,"x_min":108,"x_max":879,"o":"m 879 0 l 715 0 l 277 721 l 273 720 l 273 0 l 108 0 l 108 987 l 273 987 l 711 267 l 715 269 l 715 987 l 879 987 l 879 0 z "},"Ξ":{"ha":793,"x_min":76,"x_max":725,"o":"m 76 132 l 725 132 l 725 0 l 76 0 l 76 132 m 141 572 l 656 572 l 656 443 l 141 443 l 141 572 m 83 987 l 708 987 l 708 855 l 83 855 l 83 987 z "},"Ο":{"ha":948,"x_min":70,"x_max":878,"o":"m 878 405 q 764 105 878 224 q 469 -14 650 -14 q 181 105 292 -14 q 70 405 70 224 l 70 583 q 181 882 70 763 q 469 1002 292 1002 q 764 882 650 1002 q 878 583 878 763 l 878 405 m 713 584 q 647 787 713 707 q 469 866 581 866 q 297 787 360 866 q 234 584 234 707 l 234 405 q 297 200 234 280 q 469 121 360 121 q 648 200 583 121 q 713 405 713 279 l 713 584 z "},"Π":{"ha":988,"x_min":108,"x_max":880,"o":"m 880 0 l 715 0 l 715 855 l 273 855 l 273 0 l 108 0 l 108 987 l 880 987 l 880 0 z "},"Ρ":{"ha":897,"x_min":108,"x_max":842,"o":"m 273 374 l 273 0 l 108 0 l 108 987 l 494 987 q 750 903 657 987 q 842 681 842 819 q 750 458 842 542 q 494 374 657 374 l 273 374 m 273 507 l 494 507 q 631 555 585 507 q 677 680 677 604 q 631 805 677 755 q 494 855 585 855 l 273 855 l 273 507 z "},"Σ":{"ha":793,"x_min":48,"x_max":746,"o":"m 536 488 l 262 132 l 746 132 l 746 0 l 48 0 l 48 103 l 361 494 l 48 884 l 48 987 l 720 987 l 720 855 l 263 855 l 536 501 l 536 488 z "},"Τ":{"ha":804,"x_min":21,"x_max":783,"o":"m 783 855 l 484 855 l 484 0 l 319 0 l 319 855 l 21 855 l 21 987 l 783 987 l 783 855 z "},"Υ":{"ha":861,"x_min":9,"x_max":852,"o":"m 430 507 l 669 987 l 852 987 l 510 347 l 510 0 l 346 0 l 346 355 l 9 987 l 193 987 l 430 507 z "},"Φ":{"ha":998,"x_min":49,"x_max":954,"o":"m 585 844 q 850 739 746 837 q 954 490 954 642 q 850 241 954 338 q 585 138 746 144 l 585 0 l 420 0 l 420 138 q 153 240 256 144 q 49 488 49 336 q 153 739 49 641 q 420 844 257 837 l 420 987 l 585 987 l 585 844 m 211 488 q 265 337 211 392 q 416 280 319 282 l 420 281 l 420 701 l 416 702 q 265 642 319 699 q 211 488 211 585 m 792 490 q 738 643 792 587 q 589 702 684 699 l 585 701 l 585 281 l 589 280 q 738 338 684 282 q 792 490 792 393 z "},"Χ":{"ha":882,"x_min":34,"x_max":856,"o":"m 441 623 l 649 987 l 844 987 l 541 498 l 856 0 l 658 0 l 444 371 l 229 0 l 34 0 l 345 498 l 41 987 l 235 987 l 441 623 z "},"Ψ":{"ha":981,"x_min":49,"x_max":923,"o":"m 566 365 l 570 363 q 708 440 658 374 q 758 619 758 507 l 758 987 l 923 987 l 923 619 q 826 345 923 448 q 566 224 728 241 l 566 0 l 401 0 l 401 224 q 144 343 240 239 q 49 619 49 446 l 49 987 l 213 987 l 213 619 q 262 443 213 509 q 397 364 312 376 l 401 366 l 401 987 l 566 987 l 566 365 z "},"Ω":{"ha":930,"x_min":73,"x_max":842,"o":"m 498 136 q 623 248 578 155 q 668 505 668 340 l 668 576 q 612 793 668 719 q 457 868 556 868 q 303 793 358 868 q 248 576 248 719 l 248 505 q 293 247 248 340 q 421 136 339 154 l 421 0 l 82 0 l 82 133 l 241 133 q 119 296 164 197 q 73 505 73 396 l 73 575 q 180 883 73 764 q 457 1002 286 1002 q 735 883 628 1002 q 842 575 842 764 l 842 505 q 797 297 842 397 q 675 133 751 197 l 838 133 l 838 0 l 498 0 l 498 136 z "},"Ϊ":{"ha":399,"x_min":-45,"x_max":447,"o":"m 282 0 l 117 0 l 117 987 l 282 987 l 282 0 m 447 1086 l 283 1086 l 283 1224 l 447 1224 l 447 1086 m 119 1086 l -45 1086 l -45 1224 l 119 1224 l 119 1086 z "},"Ϋ":{"ha":861,"x_min":9,"x_max":852,"o":"m 430 507 l 669 987 l 852 987 l 510 347 l 510 0 l 346 0 l 346 355 l 9 987 l 193 987 l 430 507 m 679 1086 l 515 1086 l 515 1224 l 679 1224 l 679 1086 m 351 1086 l 187 1086 l 187 1224 l 351 1224 l 351 1086 z "},"ά":{"ha":784,"x_min":58,"x_max":786,"o":"m 688 733 l 688 205 q 701 143 688 161 q 738 125 714 125 q 755 126 747 125 q 769 130 763 127 l 786 7 q 743 -10 764 -5 q 695 -14 722 -14 q 600 9 639 -14 q 543 83 562 33 q 458 11 507 35 q 345 -14 409 -14 q 134 84 210 -14 q 58 342 58 182 l 58 357 q 134 640 58 532 q 346 747 210 747 q 459 722 410 747 q 543 647 508 696 l 576 733 l 688 733 m 223 342 q 262 179 223 241 q 386 117 301 117 q 467 137 433 117 q 524 193 501 157 l 524 205 l 524 539 q 467 595 500 575 q 387 615 433 615 q 263 543 303 615 q 223 357 223 471 l 223 342 m 412 1098 l 576 1098 l 446 848 l 366 848 l 412 1098 z "},"έ":{"ha":760,"x_min":65,"x_max":701,"o":"m 65 208 q 100 312 65 269 q 203 378 136 355 q 111 443 144 402 q 78 533 78 484 q 162 691 78 635 q 389 747 246 747 q 603 686 516 747 q 686 530 689 626 l 684 526 l 527 526 q 486 593 527 566 q 384 620 444 620 q 279 592 315 620 q 243 525 243 564 q 277 458 243 482 q 379 433 311 433 l 514 433 l 514 316 l 379 316 q 268 291 306 316 q 230 214 230 267 q 271 142 230 172 q 384 113 312 113 q 496 143 453 113 q 538 218 538 174 l 696 218 l 697 214 q 608 45 701 103 q 389 -14 516 -14 q 156 46 246 -14 q 65 208 65 105 m 374 1097 l 538 1097 l 408 848 l 328 848 l 374 1097 z "},"ή":{"ha":787,"x_min":85,"x_max":699,"o":"m 236 734 l 245 632 q 335 717 281 687 q 456 747 389 747 q 635 679 572 747 q 699 456 699 610 l 699 -281 l 534 -281 l 534 455 q 500 578 534 541 q 399 615 467 615 q 311 596 349 615 q 250 543 274 577 l 250 0 l 85 0 l 85 734 l 236 734 m 381 1098 l 545 1098 l 415 848 l 335 848 l 381 1098 z "},"ί":{"ha":460,"x_min":115,"x_max":433,"o":"m 279 733 l 279 201 q 296 138 279 156 q 343 121 313 121 q 375 124 361 121 q 407 136 389 128 l 433 16 q 372 -8 401 -1 q 305 -14 342 -14 q 163 39 212 -14 q 115 205 115 92 l 115 733 l 279 733 m 194 1083 l 358 1083 l 228 833 l 148 833 l 194 1083 z "},"ΰ":{"ha":787,"x_min":87,"x_max":727,"o":"m 251 734 l 251 319 q 292 165 251 213 q 401 117 332 117 q 523 195 484 117 q 562 384 562 273 q 540 555 560 469 q 486 734 520 642 l 649 734 q 705 574 684 662 q 727 384 727 487 q 651 96 727 206 q 408 -14 574 -14 q 171 68 255 -14 q 87 320 87 151 l 87 734 l 251 734 m 658 804 l 505 804 l 505 942 l 658 942 l 658 804 m 300 804 l 147 804 l 147 942 l 300 942 l 300 804 m 385 1139 l 554 1139 l 452 954 l 353 954 l 385 1139 z "},"α":{"ha":784,"x_min":58,"x_max":786,"o":"m 688 733 l 688 205 q 701 143 688 161 q 738 125 714 125 q 755 126 747 125 q 769 130 763 127 l 786 7 q 743 -10 764 -5 q 695 -14 722 -14 q 600 9 639 -14 q 543 83 562 33 q 458 11 507 35 q 345 -14 409 -14 q 134 84 210 -14 q 58 342 58 182 l 58 357 q 134 640 58 532 q 346 747 210 747 q 459 722 410 747 q 543 647 508 696 l 576 733 l 688 733 m 223 342 q 262 179 223 241 q 386 117 301 117 q 467 137 433 117 q 524 193 501 157 l 524 205 l 524 539 q 467 595 500 575 q 387 615 433 615 q 263 543 303 615 q 223 357 223 471 l 223 342 z "},"β":{"ha":829,"x_min":102,"x_max":766,"o":"m 418 1002 q 640 929 557 1002 q 723 734 723 856 q 689 617 723 670 q 596 531 656 564 q 722 437 677 501 q 766 286 766 372 q 683 65 766 144 q 460 -14 600 -14 q 357 0 408 -14 q 266 42 307 14 l 266 -267 l 102 -267 l 102 715 q 194 919 102 837 q 418 1002 287 1002 m 416 584 q 524 622 489 584 q 558 728 558 659 q 521 827 558 785 q 418 869 484 869 q 309 826 353 869 q 266 715 266 783 l 266 174 q 336 132 294 146 q 432 117 379 117 q 556 164 510 117 q 602 285 602 211 q 561 408 602 358 q 448 458 519 458 l 366 458 l 366 584 l 416 584 z "},"γ":{"ha":705,"x_min":22,"x_max":687,"o":"m 517 734 l 687 734 l 437 28 l 437 -283 l 273 -283 l 273 31 l 22 734 l 192 734 l 342 248 l 354 188 l 358 188 l 371 248 l 517 734 z "},"δ":{"ha":787,"x_min":56,"x_max":730,"o":"m 649 987 l 649 857 l 359 857 l 357 852 l 567 699 q 685 561 640 644 q 730 374 730 477 l 730 359 q 640 90 730 194 q 393 -14 550 -14 q 146 87 236 -14 q 56 350 56 189 l 56 364 q 129 602 56 505 q 321 720 201 700 l 326 721 l 326 725 l 128 884 l 128 987 l 649 987 m 392 615 q 263 547 306 615 q 221 374 221 479 l 221 359 q 263 184 221 252 q 393 117 305 117 q 523 185 479 117 q 566 359 566 252 l 566 374 q 523 547 566 479 q 392 615 479 615 z "},"ε":{"ha":760,"x_min":65,"x_max":701,"o":"m 65 208 q 100 312 65 269 q 203 378 136 355 q 111 443 144 402 q 78 533 78 484 q 162 691 78 635 q 389 747 246 747 q 603 686 516 747 q 686 530 689 626 l 684 526 l 527 526 q 486 593 527 566 q 384 620 444 620 q 279 592 315 620 q 243 525 243 564 q 277 458 243 482 q 379 433 311 433 l 514 433 l 514 316 l 379 316 q 268 291 306 316 q 230 214 230 267 q 271 142 230 172 q 384 113 312 113 q 496 143 453 113 q 538 218 538 174 l 696 218 l 697 214 q 608 45 701 103 q 389 -14 516 -14 q 156 46 246 -14 q 65 208 65 105 z "},"ζ":{"ha":715,"x_min":66,"x_max":659,"o":"m 658 987 l 658 894 l 421 604 q 305 439 340 509 q 270 276 270 368 q 304 166 270 203 q 406 130 338 130 l 434 130 q 599 84 539 130 q 659 -52 659 37 q 601 -196 657 -133 q 458 -290 544 -259 l 397 -178 q 471 -132 441 -158 q 500 -64 500 -106 q 475 -17 500 -34 q 395 0 450 0 l 361 0 q 171 74 236 0 q 106 260 106 147 q 152 456 106 353 q 294 672 198 558 l 450 852 l 449 855 l 66 855 l 66 987 l 658 987 z "},"η":{"ha":787,"x_min":85,"x_max":699,"o":"m 236 734 l 245 632 q 335 717 281 687 q 456 747 389 747 q 635 679 572 747 q 699 456 699 610 l 699 -281 l 534 -281 l 534 455 q 500 578 534 541 q 399 615 467 615 q 311 596 349 615 q 250 543 274 577 l 250 0 l 85 0 l 85 734 l 236 734 z "},"θ":{"ha":804,"x_min":75,"x_max":722,"o":"m 722 380 q 635 87 722 188 q 399 -14 549 -14 q 162 87 250 -14 q 75 380 75 188 l 75 606 q 161 900 75 798 q 398 1002 248 1002 q 635 900 547 1002 q 722 606 722 798 l 722 380 m 557 430 l 239 430 l 239 357 q 280 176 239 235 q 399 117 321 117 q 517 176 477 117 q 557 357 557 234 l 557 430 m 239 559 l 557 559 l 557 631 q 517 811 557 753 q 398 869 476 869 q 280 811 320 869 q 239 631 239 753 l 239 559 z "},"ι":{"ha":460,"x_min":115,"x_max":433,"o":"m 279 733 l 279 201 q 296 138 279 156 q 343 121 313 121 q 375 124 361 121 q 407 136 389 128 l 433 16 q 372 -8 401 -1 q 305 -14 342 -14 q 163 39 212 -14 q 115 205 115 92 l 115 733 l 279 733 z "},"κ":{"ha":798,"x_min":96,"x_max":767,"o":"m 336 290 l 260 290 l 260 0 l 96 0 l 96 734 l 260 734 l 260 441 l 318 441 l 546 734 l 745 734 l 747 730 l 465 382 l 767 0 l 557 0 l 336 290 z "},"λ":{"ha":770,"x_min":24,"x_max":766,"o":"m 204 0 l 24 0 l 284 707 l 248 792 q 199 867 228 838 q 133 897 171 897 q 111 895 125 897 q 87 893 96 894 l 85 1017 q 128 1026 107 1022 q 170 1029 149 1029 q 319 975 267 1029 q 401 845 372 921 l 646 221 q 682 155 660 180 q 733 127 705 130 q 749 126 743 126 q 766 128 755 126 l 759 -2 q 727 -8 745 -6 q 696 -9 710 -11 q 564 48 614 -6 q 481 193 514 102 l 363 505 l 359 505 l 344 433 l 204 0 z "},"μ":{"ha":821,"x_min":99,"x_max":715,"o":"m 263 734 l 263 313 q 297 159 263 200 q 397 119 331 119 q 493 139 456 119 q 551 201 531 160 l 551 734 l 715 734 l 715 0 l 564 0 l 559 58 q 489 4 529 22 q 397 -14 448 -14 q 322 -5 356 -14 q 263 23 289 4 l 263 -282 l 99 -282 l 99 734 l 263 734 z "},"ν":{"ha":704,"x_min":22,"x_max":687,"o":"m 342 248 l 354 189 l 358 189 l 371 248 l 517 734 l 687 734 l 427 0 l 283 0 l 22 734 l 192 734 l 342 248 z "},"ξ":{"ha":724,"x_min":68,"x_max":701,"o":"m 644 987 l 644 852 l 440 852 q 328 811 366 847 q 291 721 291 776 q 334 633 291 665 q 469 601 377 601 l 568 601 l 568 466 l 471 466 q 293 418 354 466 q 233 278 233 370 q 281 164 233 208 q 414 120 329 120 l 475 120 q 641 75 581 120 q 701 -62 701 29 q 645 -210 700 -149 q 500 -304 590 -271 l 446 -200 q 518 -154 488 -180 q 549 -83 549 -127 q 526 -33 549 -51 q 456 -14 503 -14 l 409 -14 q 161 64 255 -14 q 68 281 68 142 q 120 439 68 374 q 271 534 172 503 q 164 603 202 559 q 126 704 126 647 q 148 791 126 753 q 214 852 170 828 l 69 852 l 69 987 l 644 987 z "},"ο":{"ha":787,"x_min":56,"x_max":730,"o":"m 56 374 q 146 642 56 537 q 392 747 237 747 q 640 642 550 747 q 730 374 730 538 l 730 359 q 640 90 730 194 q 393 -14 550 -14 q 146 90 236 -14 q 56 359 56 195 l 56 374 m 221 359 q 263 184 221 252 q 393 117 304 117 q 522 184 479 117 q 566 359 566 252 l 566 374 q 522 547 566 479 q 392 615 479 615 q 263 547 306 615 q 221 374 221 478 l 221 359 z "},"π":{"ha":862,"x_min":54,"x_max":840,"o":"m 791 606 l 687 606 l 687 201 q 704 138 687 156 q 751 121 720 121 q 783 124 768 121 q 814 136 797 128 l 840 16 q 779 -8 809 -1 q 713 -14 749 -14 q 571 39 620 -14 q 522 205 522 92 l 522 606 l 311 606 l 311 0 l 147 0 l 147 606 l 54 606 l 54 734 l 791 734 l 791 606 z "},"ρ":{"ha":787,"x_min":87,"x_max":728,"o":"m 728 342 q 653 84 728 182 q 445 -14 578 -14 q 335 6 383 -14 q 252 67 286 27 l 252 -282 l 87 -282 l 87 390 q 176 650 87 553 q 406 747 264 747 q 644 640 561 747 q 728 357 728 533 l 728 342 m 563 357 q 524 543 563 471 q 401 615 485 615 q 289 546 327 615 q 252 382 252 476 l 252 197 q 309 138 273 159 q 398 117 345 117 q 523 179 482 117 q 563 342 563 241 l 563 357 z "},"ς":{"ha":732,"x_min":55,"x_max":677,"o":"m 385 747 q 596 674 516 747 q 674 475 677 600 l 673 471 l 524 471 q 488 574 524 533 q 385 615 452 615 q 260 546 300 615 q 220 378 220 477 l 220 355 q 270 203 220 261 q 425 130 319 145 q 609 71 551 111 q 667 -58 667 31 q 608 -201 665 -138 q 466 -294 551 -264 l 406 -183 q 479 -136 450 -162 q 509 -69 509 -111 q 481 -23 509 -39 q 393 1 453 -7 q 139 117 224 26 q 55 355 55 207 l 55 378 q 143 642 55 536 q 385 747 231 747 z "},"σ":{"ha":792,"x_min":56,"x_max":779,"o":"m 779 601 l 599 601 q 691 488 657 555 q 725 346 725 422 l 725 332 q 635 86 725 186 q 393 -14 545 -14 q 145 90 235 -14 q 56 359 56 195 l 56 374 q 145 632 56 531 q 391 734 235 733 l 779 734 l 779 601 m 220 359 q 263 184 220 252 q 393 117 305 117 q 518 185 477 117 q 560 359 560 252 l 560 374 q 518 537 560 473 q 392 601 477 601 l 391 601 q 262 536 304 600 q 220 374 220 472 l 220 359 z "},"τ":{"ha":728,"x_min":45,"x_max":684,"o":"m 684 603 l 446 603 l 446 0 l 281 0 l 281 603 l 45 603 l 45 734 l 684 734 l 684 603 z "},"υ":{"ha":787,"x_min":87,"x_max":727,"o":"m 251 734 l 251 319 q 292 165 251 213 q 401 117 332 117 q 523 195 484 117 q 562 384 562 273 q 540 555 560 469 q 486 734 520 642 l 649 734 q 705 574 684 662 q 727 384 727 487 q 651 96 727 206 q 408 -14 574 -14 q 171 68 255 -14 q 87 320 87 151 l 87 734 l 251 734 z "},"φ":{"ha":1009,"x_min":46,"x_max":958,"o":"m 581 734 q 852 623 746 734 q 958 360 958 512 q 867 110 958 212 q 581 -10 776 7 l 581 -324 l 416 -324 l 416 -9 q 135 122 224 11 q 46 393 46 233 q 69 579 46 494 q 129 734 92 664 l 290 734 q 233 559 254 644 q 211 393 212 475 q 259 220 211 292 q 412 130 307 147 l 416 131 l 416 734 l 581 734 m 793 360 q 736 530 791 461 q 585 597 682 600 l 581 595 l 581 129 l 585 127 q 743 206 693 142 q 793 360 793 270 z "},"χ":{"ha":761,"x_min":42,"x_max":741,"o":"m 131 745 q 278 690 226 745 q 358 560 330 636 l 410 436 l 414 436 l 559 734 l 726 734 l 490 248 l 621 -63 q 659 -127 639 -104 q 708 -154 680 -151 q 724 -154 718 -154 q 741 -153 730 -154 l 736 -287 q 705 -293 723 -291 q 671 -294 686 -295 q 547 -237 594 -291 q 465 -91 500 -182 l 401 57 l 397 58 l 233 -282 l 64 -282 l 321 245 l 209 507 q 159 581 190 553 q 89 609 129 609 q 67 608 81 609 q 43 606 53 606 l 42 732 q 86 741 63 737 q 131 745 109 745 z "},"ψ":{"ha":1004,"x_min":54,"x_max":954,"o":"m 576 734 l 576 130 l 581 129 q 739 219 688 146 q 789 393 789 292 q 766 560 787 475 q 710 734 745 645 l 871 734 q 931 579 908 665 q 954 393 954 494 q 863 119 954 231 q 576 -11 772 8 l 576 -324 l 412 -324 l 412 -9 q 147 112 240 10 q 54 402 54 214 l 54 734 l 218 734 l 218 401 q 269 211 218 277 q 408 130 320 144 l 412 132 l 412 734 l 576 734 z "},"ω":{"ha":1187,"x_min":64,"x_max":1122,"o":"m 332 734 q 258 556 286 644 q 229 384 231 469 q 261 192 229 267 q 367 117 294 117 q 470 167 431 117 q 508 326 508 217 l 508 546 l 678 546 l 678 326 q 716 167 678 217 q 819 117 754 117 q 924 192 891 117 q 958 384 958 266 q 927 557 954 469 q 853 734 900 644 l 1017 734 q 1093 575 1064 663 q 1122 384 1122 488 q 1051 96 1122 205 q 826 -14 981 -14 q 684 25 743 -14 q 593 141 625 65 q 502 25 561 65 q 360 -14 442 -14 q 135 96 205 -14 q 64 384 64 205 q 93 575 64 488 q 169 734 121 663 l 332 734 z "},"ϊ":{"ha":460,"x_min":-40,"x_max":452,"o":"m 279 733 l 279 201 q 296 138 279 156 q 343 121 313 121 q 375 124 361 121 q 407 136 389 128 l 433 16 q 372 -8 401 -1 q 305 -14 342 -14 q 163 39 212 -14 q 115 205 115 92 l 115 733 l 279 733 m 452 852 l 288 852 l 288 991 l 452 991 l 452 852 m 123 852 l -40 852 l -40 991 l 123 991 l 123 852 z "},"ϋ":{"ha":787,"x_min":87,"x_max":727,"o":"m 251 734 l 251 319 q 292 165 251 213 q 401 117 332 117 q 523 195 484 117 q 562 384 562 273 q 540 555 560 469 q 486 734 520 642 l 649 734 q 705 574 684 662 q 727 384 727 487 q 651 96 727 206 q 408 -14 574 -14 q 171 68 255 -14 q 87 320 87 151 l 87 734 l 251 734 m 652 853 l 488 853 l 488 991 l 652 991 l 652 853 m 324 853 l 161 853 l 161 991 l 324 991 l 324 853 z "},"ό":{"ha":787,"x_min":56,"x_max":730,"o":"m 56 374 q 146 642 56 537 q 392 747 237 747 q 640 642 550 747 q 730 374 730 538 l 730 359 q 640 90 730 194 q 393 -14 550 -14 q 146 90 236 -14 q 56 359 56 195 l 56 374 m 221 359 q 263 184 221 252 q 393 117 304 117 q 522 184 479 117 q 566 359 566 252 l 566 374 q 522 547 566 479 q 392 615 479 615 q 263 547 306 615 q 221 374 221 478 l 221 359 m 382 1098 l 547 1098 l 416 848 l 336 848 l 382 1098 z "},"ύ":{"ha":787,"x_min":87,"x_max":727,"o":"m 251 734 l 251 319 q 292 165 251 213 q 401 117 332 117 q 523 195 484 117 q 562 384 562 273 q 540 555 560 469 q 486 734 520 642 l 649 734 q 705 574 684 662 q 727 384 727 487 q 651 96 727 206 q 408 -14 574 -14 q 171 68 255 -14 q 87 320 87 151 l 87 734 l 251 734 m 396 1084 l 560 1084 l 430 834 l 350 834 l 396 1084 z "},"ώ":{"ha":1187,"x_min":64,"x_max":1122,"o":"m 332 734 q 258 556 286 644 q 229 384 231 469 q 261 192 229 267 q 367 117 294 117 q 470 167 431 117 q 508 326 508 217 l 508 546 l 678 546 l 678 326 q 716 167 678 217 q 819 117 754 117 q 924 192 891 117 q 958 384 958 266 q 927 557 954 469 q 853 734 900 644 l 1017 734 q 1093 575 1064 663 q 1122 384 1122 488 q 1051 96 1122 205 q 826 -14 981 -14 q 684 25 743 -14 q 593 141 625 65 q 502 25 561 65 q 360 -14 442 -14 q 135 96 205 -14 q 64 384 64 205 q 93 575 64 488 q 169 734 121 663 l 332 734 m 583 1084 l 747 1084 l 616 834 l 536 834 l 583 1084 z "},"ϑ":{"ha":899,"x_min":79,"x_max":847,"o":"m 361 677 l 361 734 q 429 929 361 856 q 607 1002 498 1002 q 783 930 718 1002 q 847 734 847 859 l 847 390 q 741 97 847 208 q 462 -14 635 -14 q 185 101 292 -14 q 79 390 79 216 l 79 849 l 249 850 l 249 390 q 306 198 249 272 q 462 123 363 123 q 618 192 561 123 q 678 382 675 260 q 450 472 538 390 q 361 677 361 554 m 678 745 q 659 830 678 802 q 602 859 640 859 q 543 830 564 859 q 521 745 521 801 l 521 676 q 562 564 521 609 q 674 515 603 519 l 678 516 l 678 745 z "},"ϒ":{"ha":774,"x_min":-12,"x_max":785,"o":"m 511 827 q 595 961 549 922 q 712 1000 642 1000 q 751 997 734 1000 q 785 985 768 994 l 768 855 q 756 858 766 857 q 739 859 747 859 q 696 844 715 859 q 666 803 677 829 l 467 356 l 467 0 l 303 0 l 303 359 l 105 803 q 74 844 93 829 q 33 859 56 859 q 14 858 23 859 q 3 855 5 857 l -12 985 q 20 997 3 994 q 60 1000 37 1000 q 176 962 130 1000 q 260 829 222 924 l 372 563 l 384 510 l 388 510 l 400 563 l 511 827 z "},"ϖ":{"ha":1118,"x_min":35,"x_max":1099,"o":"m 1099 610 l 1012 610 q 1039 502 1029 558 q 1049 384 1049 446 q 986 96 1049 206 q 785 -14 923 -14 q 648 25 705 -14 q 561 140 591 64 q 473 25 530 64 q 337 -14 416 -14 q 136 96 199 -14 q 73 384 73 206 q 83 502 73 446 q 110 610 92 559 l 35 610 l 35 734 l 1099 734 l 1099 610 m 885 384 q 872 495 883 439 q 841 610 861 552 l 281 610 q 250 495 261 551 q 237 384 239 439 q 263 192 237 267 q 345 117 288 117 q 440 167 404 117 q 477 326 477 217 l 477 479 l 646 479 l 646 326 q 682 167 646 217 q 778 117 718 117 q 859 192 833 117 q 885 384 885 266 z "},"Ѐ":{"ha":805,"x_min":108,"x_max":774,"o":"m 705 444 l 273 444 l 273 132 l 774 132 l 774 0 l 108 0 l 108 987 l 769 987 l 769 855 l 273 855 l 273 576 l 705 576 l 705 444 m 496 1058 l 363 1058 l 187 1234 l 189 1238 l 370 1238 l 496 1058 z "},"Ё":{"ha":805,"x_min":108,"x_max":774,"o":"m 705 444 l 273 444 l 273 132 l 774 132 l 774 0 l 108 0 l 108 987 l 769 987 l 769 855 l 273 855 l 273 576 l 705 576 l 705 444 m 665 1086 l 500 1086 l 500 1224 l 665 1224 l 665 1086 m 336 1086 l 173 1086 l 173 1224 l 336 1224 l 336 1086 z "},"Ѓ":{"ha":774,"x_min":108,"x_max":732,"o":"m 732 855 l 273 855 l 273 0 l 108 0 l 108 987 l 732 987 l 732 855 m 469 1238 l 652 1238 l 653 1234 l 468 1057 l 340 1057 l 469 1238 z "},"Є":{"ha":910,"x_min":83,"x_max":844,"o":"m 840 328 l 841 324 q 744 80 844 174 q 473 -14 644 -14 q 192 103 300 -14 q 83 400 83 219 l 83 588 q 190 885 83 768 q 468 1002 297 1002 q 744 910 643 1002 q 842 663 844 819 l 840 659 l 681 659 q 627 814 681 759 q 468 870 573 870 q 308 790 367 870 q 248 589 248 710 l 248 564 l 589 564 l 589 431 l 248 431 l 248 400 q 309 198 248 278 q 473 118 370 118 q 628 173 575 118 q 681 328 681 228 l 840 328 z "},"Ѕ":{"ha":873,"x_min":62,"x_max":808,"o":"m 643 254 q 597 355 643 315 q 435 425 551 394 q 181 540 270 469 q 92 728 92 612 q 190 924 92 847 q 445 1002 289 1002 q 706 914 608 1002 q 802 704 805 827 l 800 700 l 642 700 q 591 823 642 776 q 444 870 539 870 q 305 831 353 870 q 256 729 256 791 q 309 635 256 673 q 483 565 361 598 q 725 447 642 522 q 808 255 808 372 q 709 59 808 132 q 450 -14 610 -14 q 178 67 295 -14 q 65 292 62 149 l 66 296 l 225 296 q 288 161 225 205 q 450 117 350 117 q 592 154 541 117 q 643 254 643 191 z "},"І":{"ha":399,"x_min":117,"x_max":282,"o":"m 282 0 l 117 0 l 117 987 l 282 987 l 282 0 z "},"Ї":{"ha":399,"x_min":-45,"x_max":447,"o":"m 282 0 l 117 0 l 117 987 l 282 987 l 282 0 m 447 1086 l 283 1086 l 283 1224 l 447 1224 l 447 1086 m 119 1086 l -45 1086 l -45 1224 l 119 1224 l 119 1086 z "},"Ј":{"ha":779,"x_min":40,"x_max":677,"o":"m 512 987 l 677 987 l 677 286 q 589 66 677 147 q 362 -14 500 -14 q 127 60 214 -14 q 43 276 40 134 l 45 280 l 204 280 q 246 157 204 196 q 362 117 288 117 q 470 163 427 117 q 512 286 512 208 l 512 987 z "},"Љ":{"ha":1482,"x_min":31,"x_max":1434,"o":"m 875 987 l 875 626 l 1084 626 q 1340 539 1246 626 q 1434 313 1434 452 q 1340 87 1434 174 q 1084 0 1246 0 l 710 0 l 710 855 l 406 855 l 406 530 q 324 125 406 251 q 64 0 242 0 l 31 0 l 31 132 l 58 132 q 201 222 159 132 q 242 530 242 312 l 242 987 l 875 987 m 875 494 l 875 132 l 1084 132 q 1223 184 1175 132 q 1270 314 1270 237 q 1223 441 1270 389 q 1084 494 1175 494 l 875 494 z "},"Њ":{"ha":1487,"x_min":108,"x_max":1439,"o":"m 273 567 l 715 567 l 715 987 l 880 987 l 880 603 l 1088 603 q 1346 520 1253 603 q 1439 304 1439 437 q 1345 84 1439 168 q 1088 0 1252 0 l 715 0 l 715 435 l 273 435 l 273 0 l 108 0 l 108 987 l 273 987 l 273 567 m 880 471 l 880 137 l 1088 137 q 1228 185 1181 137 q 1275 305 1275 233 q 1228 423 1275 376 q 1088 471 1181 471 l 880 471 z "},"Ќ":{"ha":895,"x_min":108,"x_max":900,"o":"m 387 427 l 273 427 l 273 0 l 108 0 l 108 987 l 273 987 l 273 569 l 367 569 l 677 987 l 872 987 l 513 516 l 900 0 l 699 0 l 387 427 m 463 1238 l 645 1238 l 646 1234 l 461 1057 l 333 1057 l 463 1238 z "},"Ѝ":{"ha":983,"x_min":104,"x_max":876,"o":"m 711 987 l 876 987 l 876 0 l 711 0 l 711 707 l 707 708 l 269 0 l 104 0 l 104 987 l 269 987 l 269 281 l 273 280 l 711 987 m 568 1058 l 435 1058 l 260 1234 l 261 1238 l 443 1238 l 568 1058 z "},"Ў":{"ha":875,"x_min":43,"x_max":842,"o":"m 418 541 l 451 445 l 455 445 l 660 987 l 842 987 l 501 175 q 408 34 460 81 q 250 -14 355 -14 q 210 -13 233 -14 q 180 -10 188 -12 l 181 120 q 209 118 188 119 q 240 117 229 117 q 315 141 291 117 q 359 215 338 165 l 380 262 l 43 987 l 223 987 l 418 541 m 654 1278 l 656 1274 q 600 1138 659 1190 q 441 1086 541 1086 q 281 1138 340 1086 q 226 1274 222 1190 l 228 1278 l 350 1278 q 372 1213 350 1238 q 441 1188 394 1188 q 509 1213 486 1188 q 531 1278 531 1238 l 654 1278 z "},"Џ":{"ha":984,"x_min":104,"x_max":876,"o":"m 104 987 l 269 987 l 269 132 l 711 132 l 711 987 l 876 987 l 876 0 l 578 0 l 578 -244 l 414 -244 l 414 0 l 104 0 l 104 987 z "},"А":{"ha":895,"x_min":11,"x_max":888,"o":"m 643 231 l 256 231 l 178 0 l 11 0 l 374 987 l 530 987 l 888 0 l 721 0 l 643 231 m 304 368 l 596 368 l 453 790 l 449 790 l 304 368 z "},"Б":{"ha":873,"x_min":96,"x_max":825,"o":"m 720 855 l 265 855 l 265 621 l 474 621 q 732 536 638 621 q 825 313 825 451 q 731 87 825 174 q 474 0 637 0 l 96 0 l 96 987 l 720 987 l 720 855 m 265 489 l 265 132 l 474 132 q 613 184 566 132 q 661 314 661 237 q 613 438 661 388 q 474 489 566 489 l 265 489 z "},"В":{"ha":890,"x_min":108,"x_max":822,"o":"m 108 0 l 108 987 l 436 987 q 692 920 600 987 q 785 718 785 852 q 746 598 785 651 q 639 519 707 545 q 774 435 727 500 q 822 283 822 370 q 731 72 822 144 q 480 0 640 0 l 108 0 m 273 449 l 273 132 l 480 132 q 612 171 566 132 q 658 283 658 210 q 619 406 658 362 q 498 449 581 449 l 273 449 m 273 572 l 454 572 q 575 608 531 572 q 620 711 620 644 q 573 820 620 784 q 436 855 526 855 l 273 855 l 273 572 z "},"Г":{"ha":774,"x_min":108,"x_max":732,"o":"m 732 855 l 273 855 l 273 0 l 108 0 l 108 987 l 732 987 l 732 855 z "},"Е":{"ha":805,"x_min":108,"x_max":774,"o":"m 705 444 l 273 444 l 273 132 l 774 132 l 774 0 l 108 0 l 108 987 l 769 987 l 769 855 l 273 855 l 273 576 l 705 576 l 705 444 z "},"З":{"ha":927,"x_min":71,"x_max":847,"o":"m 459 569 q 616 609 566 569 q 667 720 667 649 q 612 827 667 784 q 448 869 556 869 q 306 828 363 869 q 248 725 248 787 l 90 725 l 88 729 q 189 926 84 850 q 448 1002 294 1002 q 729 928 626 1002 q 831 720 831 855 q 787 595 831 652 q 663 507 742 539 q 800 419 752 478 q 847 277 847 361 q 736 63 847 140 q 448 -14 626 -14 q 182 58 294 -14 q 74 270 71 131 l 75 274 l 234 274 q 294 162 234 208 q 448 117 354 117 q 620 162 557 117 q 682 276 682 206 q 626 398 682 359 q 459 438 570 438 l 331 438 l 331 569 l 459 569 z "},"И":{"ha":983,"x_min":104,"x_max":876,"o":"m 711 987 l 876 987 l 876 0 l 711 0 l 711 707 l 707 708 l 269 0 l 104 0 l 104 987 l 269 987 l 269 281 l 273 280 l 711 987 z "},"Й":{"ha":983,"x_min":104,"x_max":876,"o":"m 711 987 l 876 987 l 876 0 l 711 0 l 711 707 l 707 708 l 269 0 l 104 0 l 104 987 l 269 987 l 269 281 l 273 280 l 711 987 m 705 1278 l 707 1274 q 650 1138 709 1190 q 492 1086 591 1086 q 332 1138 391 1086 q 277 1274 273 1190 l 279 1278 l 401 1278 q 423 1213 401 1238 q 492 1188 445 1188 q 559 1213 537 1188 q 582 1278 582 1238 l 705 1278 z "},"К":{"ha":895,"x_min":108,"x_max":900,"o":"m 387 427 l 273 427 l 273 0 l 108 0 l 108 987 l 273 987 l 273 569 l 367 569 l 677 987 l 872 987 l 513 516 l 900 0 l 699 0 l 387 427 z "},"Л":{"ha":983,"x_min":31,"x_max":875,"o":"m 875 987 l 875 0 l 710 0 l 710 855 l 390 855 l 390 530 q 312 125 390 251 q 64 0 235 0 l 31 0 l 31 132 l 58 132 q 189 221 152 132 q 226 530 226 311 l 226 987 l 875 987 z "},"М":{"ha":1217,"x_min":108,"x_max":1108,"o":"m 321 987 l 606 228 l 610 228 l 895 987 l 1108 987 l 1108 0 l 943 0 l 943 336 l 960 764 l 956 765 l 663 0 l 552 0 l 260 763 l 256 762 l 273 336 l 273 0 l 108 0 l 108 987 l 321 987 z "},"Н":{"ha":987,"x_min":108,"x_max":879,"o":"m 879 0 l 715 0 l 715 421 l 273 421 l 273 0 l 108 0 l 108 987 l 273 987 l 273 553 l 715 553 l 715 987 l 879 987 l 879 0 z "},"О":{"ha":948,"x_min":70,"x_max":878,"o":"m 878 405 q 764 105 878 224 q 469 -14 650 -14 q 181 105 292 -14 q 70 405 70 224 l 70 583 q 181 882 70 763 q 469 1002 292 1002 q 764 882 650 1002 q 878 583 878 763 l 878 405 m 713 584 q 647 787 713 707 q 469 866 581 866 q 297 787 360 866 q 234 584 234 707 l 234 405 q 297 200 234 280 q 469 121 360 121 q 648 200 583 121 q 713 405 713 279 l 713 584 z "},"П":{"ha":988,"x_min":108,"x_max":880,"o":"m 880 0 l 715 0 l 715 855 l 273 855 l 273 0 l 108 0 l 108 987 l 880 987 l 880 0 z "},"Р":{"ha":897,"x_min":108,"x_max":842,"o":"m 273 374 l 273 0 l 108 0 l 108 987 l 494 987 q 750 903 657 987 q 842 681 842 819 q 750 458 842 542 q 494 374 657 374 l 273 374 m 273 507 l 494 507 q 631 555 585 507 q 677 680 677 604 q 631 805 677 755 q 494 855 585 855 l 273 855 l 273 507 z "},"С":{"ha":883,"x_min":72,"x_max":833,"o":"m 828 328 l 829 323 q 732 80 832 174 q 461 -14 632 -14 q 180 102 288 -14 q 72 399 72 218 l 72 587 q 179 885 72 768 q 456 1002 286 1002 q 732 910 631 1002 q 830 663 833 818 l 829 659 l 669 659 q 615 814 669 758 q 456 869 562 869 q 296 789 355 869 q 237 589 237 709 l 237 399 q 297 197 237 277 q 461 117 358 117 q 616 172 564 117 q 669 328 669 227 l 828 328 z "},"Т":{"ha":804,"x_min":21,"x_max":783,"o":"m 783 855 l 484 855 l 484 0 l 319 0 l 319 855 l 21 855 l 21 987 l 783 987 l 783 855 z "},"Х":{"ha":882,"x_min":34,"x_max":856,"o":"m 441 623 l 649 987 l 844 987 l 541 498 l 856 0 l 658 0 l 444 371 l 229 0 l 34 0 l 345 498 l 41 987 l 235 987 l 441 623 z "},"Ц":{"ha":1067,"x_min":113,"x_max":1019,"o":"m 113 987 l 277 987 l 277 132 l 720 132 l 720 987 l 885 987 l 885 134 l 1019 134 l 1019 -243 l 854 -243 l 854 0 l 113 0 l 113 987 z "},"Ч":{"ha":960,"x_min":97,"x_max":852,"o":"m 852 987 l 852 0 l 688 0 l 688 391 q 575 370 635 377 q 452 362 516 362 q 189 438 280 362 q 97 676 97 513 l 97 987 l 262 987 l 262 676 q 307 534 262 573 q 452 495 351 495 q 570 503 509 495 q 688 525 632 511 l 688 987 l 852 987 z "},"Ы":{"ha":1211,"x_min":112,"x_max":1106,"o":"m 277 621 l 486 621 q 743 536 650 621 q 837 313 837 451 q 743 87 837 174 q 486 0 649 0 l 112 0 l 112 987 l 277 987 l 277 621 m 1106 0 l 941 0 l 941 987 l 1106 987 l 1106 0 m 277 489 l 277 132 l 486 132 q 625 184 577 132 q 672 314 672 237 q 625 438 672 388 q 486 489 577 489 l 277 489 z "},"Э":{"ha":909,"x_min":93,"x_max":840,"o":"m 98 665 l 96 669 q 192 910 93 817 q 460 1002 290 1002 q 735 886 629 1002 q 840 588 840 769 l 840 400 q 735 102 840 218 q 460 -14 629 -14 q 191 75 288 -14 q 96 318 93 163 l 98 322 l 256 322 q 307 170 256 222 q 460 118 358 118 q 617 197 559 118 q 675 399 675 277 l 675 439 l 326 439 l 326 572 l 675 572 l 675 588 q 617 790 675 710 q 460 870 559 870 q 308 817 359 870 q 257 665 257 764 l 98 665 z "},"Ю":{"ha":1272,"x_min":117,"x_max":1203,"o":"m 1203 405 q 1089 105 1203 224 q 795 -14 976 -14 q 506 105 617 -14 q 395 405 395 224 l 395 417 l 282 417 l 282 0 l 117 0 l 117 987 l 282 987 l 282 550 l 395 550 l 395 583 q 506 882 395 763 q 794 1002 617 1002 q 1089 882 975 1002 q 1203 583 1203 763 l 1203 405 m 1039 584 q 973 787 1039 707 q 794 866 907 866 q 623 787 686 866 q 559 584 559 707 l 559 405 q 623 200 559 280 q 795 121 686 121 q 974 200 908 121 q 1039 405 1039 279 l 1039 584 z "},"а":{"ha":755,"x_min":56,"x_max":695,"o":"m 528 0 q 514 54 519 28 q 506 107 508 81 q 417 21 472 56 q 293 -14 361 -14 q 117 45 178 -14 q 56 207 56 104 q 140 373 56 313 q 376 432 224 432 l 505 432 l 505 496 q 471 587 505 554 q 374 619 437 619 q 284 592 317 619 q 251 522 251 565 l 92 522 l 92 526 q 169 680 87 613 q 384 747 252 747 q 591 682 512 747 q 669 495 669 617 l 669 169 q 675 82 669 123 q 695 0 682 40 l 528 0 m 326 118 q 438 149 389 118 q 505 220 488 180 l 505 329 l 374 329 q 261 293 302 329 q 220 210 220 258 q 248 143 220 168 q 326 118 275 118 z "},"в":{"ha":787,"x_min":92,"x_max":729,"o":"m 92 0 l 92 734 l 390 734 q 617 683 536 734 q 698 530 698 631 q 665 438 698 479 q 573 377 633 398 q 689 315 648 361 q 729 210 729 269 q 653 53 729 106 q 437 0 576 0 l 92 0 m 256 313 l 256 130 l 437 130 q 532 154 500 130 q 564 221 564 177 q 533 289 564 264 q 437 313 502 313 l 256 313 m 256 431 l 399 431 q 500 452 467 431 q 533 513 533 473 q 497 581 533 559 q 390 603 461 603 l 256 603 l 256 431 z "},"г":{"ha":578,"x_min":85,"x_max":568,"o":"m 568 601 l 250 601 l 250 0 l 85 0 l 85 734 l 568 734 l 568 601 z "},"е":{"ha":735,"x_min":60,"x_max":689,"o":"m 401 -14 q 153 88 245 -14 q 60 350 60 190 l 60 377 q 152 643 60 537 q 382 747 244 748 q 610 657 531 747 q 689 416 689 568 l 689 319 l 231 319 l 230 316 q 281 173 234 229 q 412 117 328 117 q 526 134 478 117 q 617 180 573 150 l 670 73 q 560 11 629 36 q 401 -14 492 -14 m 382 615 q 282 567 321 615 q 233 444 243 518 l 235 440 l 526 440 l 526 457 q 490 571 526 527 q 382 615 454 615 z "},"и":{"ha":787,"x_min":85,"x_max":701,"o":"m 537 734 l 701 734 l 701 0 l 537 0 l 537 487 l 533 488 l 250 0 l 85 0 l 85 734 l 250 734 l 250 248 l 254 246 l 537 734 z "},"й":{"ha":787,"x_min":85,"x_max":701,"o":"m 537 734 l 701 734 l 701 0 l 537 0 l 537 487 l 533 488 l 250 0 l 85 0 l 85 734 l 250 734 l 250 248 l 254 246 l 537 734 m 607 1045 l 609 1041 q 553 905 612 958 q 394 853 494 853 q 235 905 294 853 q 179 1041 176 958 l 181 1045 l 303 1045 q 325 981 303 1006 q 394 956 347 956 q 462 981 439 956 q 484 1045 484 1006 l 607 1045 z "},"к":{"ha":756,"x_min":96,"x_max":762,"o":"m 345 290 l 260 290 l 260 0 l 96 0 l 96 734 l 260 734 l 260 441 l 334 441 l 536 734 l 740 734 l 474 382 l 762 0 l 548 0 l 345 290 z "},"л":{"ha":774,"x_min":15,"x_max":701,"o":"m 701 734 l 701 0 l 537 0 l 537 601 l 323 601 l 323 421 q 262 102 323 204 q 50 0 200 0 l 15 0 l 16 139 l 40 139 q 134 201 110 139 q 159 421 159 264 l 159 734 l 701 734 z "},"м":{"ha":1046,"x_min":96,"x_max":943,"o":"m 517 208 l 522 208 l 736 734 l 943 734 l 943 0 l 778 0 l 778 477 l 774 478 l 575 0 l 463 0 l 264 480 l 260 479 l 260 0 l 96 0 l 96 734 l 304 734 l 517 208 z "},"н":{"ha":787,"x_min":85,"x_max":701,"o":"m 701 0 l 536 0 l 536 296 l 250 296 l 250 0 l 85 0 l 85 734 l 250 734 l 250 428 l 536 428 l 536 734 l 701 734 l 701 0 z "},"о":{"ha":787,"x_min":56,"x_max":730,"o":"m 56 374 q 146 642 56 537 q 392 747 237 747 q 640 642 550 747 q 730 374 730 538 l 730 359 q 640 90 730 194 q 393 -14 550 -14 q 146 90 236 -14 q 56 359 56 195 l 56 374 m 221 359 q 263 184 221 252 q 393 117 304 117 q 522 184 479 117 q 566 359 566 252 l 566 374 q 522 547 566 479 q 392 615 479 615 q 263 547 306 615 q 221 374 221 478 l 221 359 z "},"п":{"ha":787,"x_min":85,"x_max":701,"o":"m 701 0 l 536 0 l 536 601 l 250 601 l 250 0 l 85 0 l 85 734 l 701 734 l 701 0 z "},"р":{"ha":787,"x_min":87,"x_max":730,"o":"m 730 342 q 654 84 730 182 q 445 -14 579 -14 q 334 8 382 -14 q 252 74 286 31 l 252 -282 l 87 -282 l 87 734 l 226 734 l 242 642 q 327 720 277 693 q 443 747 377 747 q 654 640 578 747 q 730 357 730 532 l 730 342 m 566 357 q 523 541 566 469 q 397 612 481 612 q 309 590 345 612 q 252 529 273 568 l 252 197 q 309 138 273 159 q 398 117 345 117 q 524 179 482 117 q 566 342 566 241 l 566 357 z "},"с":{"ha":729,"x_min":55,"x_max":687,"o":"m 390 117 q 492 153 450 117 q 533 242 533 189 l 682 242 l 684 238 q 600 60 687 135 q 390 -14 513 -14 q 141 90 228 -14 q 55 355 55 195 l 55 378 q 141 643 55 538 q 390 747 228 747 q 605 670 522 747 q 684 475 687 593 l 683 471 l 533 471 q 493 573 533 531 q 390 615 454 615 q 258 548 297 615 q 220 378 220 480 l 220 355 q 258 184 220 251 q 390 117 297 117 z "},"т":{"ha":718,"x_min":41,"x_max":679,"o":"m 679 603 l 440 603 l 440 0 l 275 0 l 275 603 l 41 603 l 41 734 l 679 734 l 679 603 z "},"у":{"ha":704,"x_min":11,"x_max":692,"o":"m 330 294 l 347 221 l 351 221 l 511 734 l 692 734 l 388 -111 q 306 -242 359 -188 q 156 -296 253 -296 q 112 -292 136 -296 q 67 -283 89 -288 l 85 -155 q 111 -157 94 -156 q 135 -159 127 -159 q 207 -128 180 -159 q 250 -58 233 -98 l 277 9 l 11 734 l 191 734 l 330 294 z "},"х":{"ha":704,"x_min":22,"x_max":682,"o":"m 350 482 l 486 734 l 675 734 l 444 371 l 682 0 l 494 0 l 353 258 l 211 0 l 22 0 l 260 371 l 29 734 l 216 734 l 350 482 z "},"ц":{"ha":836,"x_min":85,"x_max":800,"o":"m 85 734 l 250 734 l 250 132 l 536 132 l 536 734 l 701 734 l 701 132 l 800 132 l 800 -241 l 635 -241 l 635 0 l 85 0 l 85 734 z "},"ч":{"ha":772,"x_min":79,"x_max":687,"o":"m 687 0 l 522 0 l 522 245 q 455 234 490 237 q 387 230 421 230 q 160 300 241 230 q 79 509 79 370 l 79 734 l 243 734 l 243 509 q 278 397 243 431 q 387 363 313 363 q 456 367 423 363 q 522 378 489 370 l 522 734 l 687 734 l 687 0 z "},"ш":{"ha":1131,"x_min":85,"x_max":1038,"o":"m 250 734 l 250 132 l 479 132 l 479 734 l 644 734 l 644 132 l 874 132 l 874 734 l 1038 734 l 1038 0 l 85 0 l 85 734 l 250 734 z "},"щ":{"ha":1215,"x_min":85,"x_max":1174,"o":"m 250 734 l 250 132 l 479 132 l 479 734 l 644 734 l 644 132 l 874 132 l 874 734 l 1038 734 l 1038 137 l 1174 137 l 1174 -243 l 1010 -243 l 1010 0 l 85 0 l 85 734 l 250 734 z "},"ы":{"ha":1124,"x_min":110,"x_max":996,"o":"m 275 478 l 435 478 q 652 412 574 478 q 730 241 730 347 q 652 67 730 134 q 435 0 573 0 l 110 0 l 110 734 l 275 734 l 275 478 m 996 0 l 831 0 l 831 734 l 996 734 l 996 0 m 275 346 l 275 132 l 435 132 q 534 162 502 132 q 566 238 566 192 q 533 314 566 282 q 435 346 501 346 l 275 346 z "},"ь":{"ha":764,"x_min":96,"x_max":717,"o":"m 261 478 l 422 478 q 638 412 560 478 q 717 241 717 347 q 638 67 717 134 q 422 0 559 0 l 96 0 l 96 734 l 261 734 l 261 478 m 261 346 l 261 132 l 422 132 q 520 162 488 132 q 552 238 552 192 q 520 314 552 282 q 422 346 488 346 l 261 346 z "},"э":{"ha":735,"x_min":56,"x_max":678,"o":"m 348 615 q 250 579 290 615 q 210 490 210 544 l 61 490 l 59 494 q 142 672 56 597 q 348 747 229 747 q 590 642 503 747 q 678 378 678 536 l 678 355 q 590 91 678 197 q 349 -14 503 -14 q 137 62 219 -14 q 59 258 56 139 l 60 262 l 210 262 q 249 159 210 201 q 349 117 288 117 q 463 173 423 117 q 509 311 503 229 l 507 315 l 281 315 l 281 429 l 506 429 l 507 432 q 461 563 500 511 q 348 615 421 615 z "},"ю":{"ha":1131,"x_min":97,"x_max":1073,"o":"m 262 439 l 404 439 q 508 662 421 577 q 735 747 595 747 q 983 643 893 747 q 1073 374 1073 538 l 1073 359 q 983 90 1073 194 q 736 -14 893 -14 q 504 74 592 -14 q 402 307 416 162 l 262 307 l 262 0 l 97 0 l 97 734 l 262 734 l 262 439 m 564 359 q 606 184 564 252 q 736 117 648 117 q 866 185 823 117 q 909 359 909 252 l 909 374 q 866 547 909 479 q 735 615 823 615 q 607 547 649 615 q 564 374 564 479 l 564 359 z "},"я":{"ha":787,"x_min":44,"x_max":690,"o":"m 690 734 l 690 0 l 526 0 l 526 269 l 372 269 l 215 0 l 44 0 l 217 296 q 113 377 149 324 q 77 499 77 431 q 156 668 77 602 q 374 734 236 734 l 690 734 m 241 495 q 273 422 241 452 q 365 391 304 391 l 526 391 l 526 603 l 374 603 q 275 571 309 603 q 241 495 241 538 z "},"ѐ":{"ha":735,"x_min":60,"x_max":689,"o":"m 401 -14 q 153 88 245 -14 q 60 350 60 190 l 60 377 q 152 643 60 537 q 382 747 244 748 q 610 657 531 747 q 689 416 689 568 l 689 319 l 231 319 l 230 316 q 281 173 234 229 q 412 117 328 117 q 526 134 478 117 q 617 180 573 150 l 670 73 q 560 11 629 36 q 401 -14 492 -14 m 382 615 q 282 567 321 615 q 233 444 243 518 l 235 440 l 526 440 l 526 457 q 490 571 526 527 q 382 615 454 615 m 452 840 l 319 840 l 143 1017 l 144 1021 l 326 1021 l 452 840 z "},"ё":{"ha":735,"x_min":60,"x_max":689,"o":"m 401 -14 q 153 88 245 -14 q 60 350 60 190 l 60 377 q 152 643 60 537 q 382 747 244 748 q 610 657 531 747 q 689 416 689 568 l 689 319 l 231 319 l 230 316 q 281 173 234 229 q 412 117 328 117 q 526 134 478 117 q 617 180 573 150 l 670 73 q 560 11 629 36 q 401 -14 492 -14 m 382 615 q 282 567 321 615 q 233 444 243 518 l 235 440 l 526 440 l 526 457 q 490 571 526 527 q 382 615 454 615 m 621 868 l 456 868 l 456 1006 l 621 1006 l 621 868 m 292 868 l 129 868 l 129 1006 l 292 1006 l 292 868 z "},"ђ":{"ha":787,"x_min":-14,"x_max":703,"o":"m 431 819 l 250 819 l 250 639 q 339 719 286 690 q 455 747 391 747 q 637 674 572 747 q 703 447 703 600 l 703 -43 q 640 -230 703 -164 q 465 -296 576 -296 q 420 -294 440 -296 q 378 -285 399 -291 l 388 -155 q 419 -161 399 -159 q 454 -164 439 -164 q 516 -132 494 -164 q 538 -43 538 -100 l 538 448 q 503 574 538 535 q 399 612 469 612 q 313 592 351 612 q 250 537 275 572 l 250 0 l 85 0 l 85 819 l -14 819 l -14 934 l 85 934 l 85 1058 l 250 1058 l 250 934 l 431 934 l 431 819 z "},"ѓ":{"ha":578,"x_min":85,"x_max":568,"o":"m 568 601 l 250 601 l 250 0 l 85 0 l 85 734 l 568 734 l 568 601 m 336 1005 l 518 1005 l 519 1001 l 334 825 l 206 825 l 336 1005 z "},"є":{"ha":736,"x_min":62,"x_max":694,"o":"m 397 117 q 498 153 457 117 q 540 242 540 189 l 689 242 l 690 238 q 607 60 694 135 q 397 -14 519 -14 q 148 90 235 -14 q 62 355 62 195 l 62 378 q 148 643 62 538 q 397 747 235 747 q 611 670 529 747 q 691 475 694 593 l 690 471 l 540 471 q 500 573 540 531 q 397 615 460 615 q 274 561 314 615 q 231 423 235 506 l 233 420 l 458 420 l 458 306 l 233 306 l 232 302 q 276 169 237 220 q 397 117 315 117 z "},"ѕ":{"ha":722,"x_min":56,"x_max":661,"o":"m 499 199 q 467 262 499 237 q 345 307 434 288 q 146 386 214 334 q 79 525 79 437 q 157 682 79 617 q 362 747 235 747 q 575 681 496 747 q 651 517 654 615 l 650 513 l 492 513 q 457 591 492 559 q 362 624 422 624 q 271 597 302 624 q 240 532 240 570 q 270 470 240 493 q 389 430 299 448 q 594 350 528 401 q 661 208 661 298 q 579 47 661 109 q 364 -14 498 -14 q 138 59 221 -14 q 60 227 56 132 l 61 231 l 214 231 q 260 138 217 168 q 366 109 304 109 q 465 134 430 109 q 499 199 499 158 z "},"і":{"ha":360,"x_min":98,"x_max":262,"o":"m 262 0 l 98 0 l 98 734 l 262 734 l 262 0 m 262 913 l 98 913 l 98 1058 l 262 1058 l 262 913 z "},"ї":{"ha":365,"x_min":-64,"x_max":427,"o":"m 262 0 l 97 0 l 97 734 l 262 734 l 262 0 m 427 853 l 263 853 l 263 991 l 427 991 l 427 853 m 99 853 l -64 853 l -64 991 l 99 991 l 99 853 z "},"ј":{"ha":364,"x_min":-54,"x_max":270,"o":"m 270 734 l 270 -43 q 207 -230 270 -164 q 31 -296 144 -296 q -13 -294 7 -296 q -54 -285 -33 -291 l -45 -153 q -16 -159 -33 -157 q 15 -161 1 -161 q 81 -133 57 -161 q 105 -43 105 -104 l 105 734 l 270 734 m 266 913 l 101 913 l 101 1058 l 266 1058 l 266 913 z "},"љ":{"ha":1205,"x_min":33,"x_max":1158,"o":"m 702 734 l 702 478 l 863 478 q 1079 412 1001 478 q 1158 241 1158 347 q 1079 67 1158 134 q 863 0 1000 0 l 537 0 l 537 601 l 351 601 l 351 421 q 284 103 351 206 q 68 0 218 0 l 33 0 l 33 134 l 58 134 q 155 203 125 134 q 186 421 186 273 l 186 734 l 702 734 m 702 347 l 702 130 l 863 130 q 961 163 929 130 q 993 242 993 195 q 961 316 993 286 q 863 347 929 347 l 702 347 z "},"њ":{"ha":1204,"x_min":85,"x_max":1156,"o":"m 250 455 l 536 455 l 536 734 l 701 734 l 701 478 l 861 478 q 1078 412 1000 478 q 1156 241 1156 347 q 1078 67 1156 134 q 861 0 999 0 l 536 0 l 536 323 l 250 323 l 250 0 l 85 0 l 85 734 l 250 734 l 250 455 m 701 347 l 701 130 l 861 130 q 959 163 927 130 q 991 242 991 195 q 960 316 991 286 q 861 347 928 347 l 701 347 z "},"ћ":{"ha":787,"x_min":16,"x_max":703,"o":"m 460 821 l 250 821 l 250 639 q 339 719 286 690 q 455 747 391 747 q 637 674 572 747 q 703 447 703 600 l 703 0 l 538 0 l 538 448 q 503 574 538 535 q 399 612 469 612 q 313 592 351 612 q 250 537 275 572 l 250 0 l 85 0 l 85 821 l 16 821 l 16 936 l 85 936 l 85 1058 l 250 1058 l 250 936 l 460 936 l 460 821 z "},"ќ":{"ha":756,"x_min":96,"x_max":762,"o":"m 345 290 l 260 290 l 260 0 l 96 0 l 96 734 l 260 734 l 260 441 l 334 441 l 536 734 l 740 734 l 474 382 l 762 0 l 548 0 l 345 290 m 425 1004 l 607 1004 l 608 1000 l 423 824 l 295 824 l 425 1004 z "},"ѝ":{"ha":787,"x_min":85,"x_max":701,"o":"m 537 734 l 701 734 l 701 0 l 537 0 l 537 487 l 533 488 l 250 0 l 85 0 l 85 734 l 250 734 l 250 248 l 254 246 l 537 734 m 471 825 l 338 825 l 162 1002 l 163 1006 l 345 1006 l 471 825 z "},"ў":{"ha":704,"x_min":11,"x_max":692,"o":"m 330 294 l 347 221 l 351 221 l 511 734 l 692 734 l 388 -111 q 306 -242 359 -188 q 156 -296 253 -296 q 112 -292 136 -296 q 67 -283 89 -288 l 85 -155 q 111 -157 94 -156 q 135 -159 127 -159 q 207 -128 180 -159 q 250 -58 233 -98 l 277 9 l 11 734 l 191 734 l 330 294 m 565 1045 l 567 1041 q 511 905 570 958 q 352 853 452 853 q 193 905 252 853 q 137 1041 134 958 l 139 1045 l 261 1045 q 283 981 261 1006 q 352 956 305 956 q 420 981 397 956 q 442 1045 442 1006 l 565 1045 z "},"џ":{"ha":787,"x_min":85,"x_max":701,"o":"m 250 734 l 250 132 l 536 132 l 536 734 l 701 734 l 701 0 l 477 0 l 477 -243 l 312 -243 l 312 0 l 85 0 l 85 734 l 250 734 z "},"Ѣ":{"ha":873,"x_min":-28,"x_max":825,"o":"m 416 743 l 265 743 l 265 621 l 474 621 q 732 536 638 621 q 825 313 825 451 q 731 87 825 174 q 474 0 637 0 l 100 0 l 100 743 l -28 743 l -28 858 l 100 858 l 100 987 l 265 987 l 265 858 l 416 858 l 416 743 m 265 489 l 265 132 l 474 132 q 613 184 566 132 q 661 314 661 237 q 613 438 661 388 q 474 489 566 489 l 265 489 z "},"Ѧ":{"ha":873,"x_min":22,"x_max":878,"o":"m 614 278 l 521 278 l 521 0 l 371 0 l 371 278 l 286 278 l 192 0 l 22 0 l 374 987 l 530 987 l 878 0 l 707 0 l 614 278 m 329 405 l 572 405 l 454 760 l 450 760 l 329 405 z "},"ѧ":{"ha":760,"x_min":7,"x_max":741,"o":"m 502 189 l 439 189 l 439 0 l 307 0 l 307 189 l 245 189 l 174 0 l 7 0 l 295 734 l 452 734 l 741 0 l 574 0 l 502 189 m 289 307 l 457 307 l 389 484 l 374 544 l 370 544 l 355 484 l 289 307 z "},"Ѩ":{"ha":1260,"x_min":130,"x_max":1236,"o":"m 295 406 l 525 406 l 732 987 l 889 987 l 1236 0 l 1066 0 l 973 278 l 880 278 l 880 0 l 730 0 l 730 278 l 644 278 l 551 0 l 380 0 l 479 278 l 295 278 l 295 0 l 130 0 l 130 987 l 295 987 l 295 406 m 688 405 l 931 405 l 812 760 l 808 760 l 688 405 z "},"ѩ":{"ha":1078,"x_min":119,"x_max":1044,"o":"m 284 307 l 430 307 l 598 734 l 755 734 l 1044 0 l 877 0 l 805 189 l 742 189 l 742 0 l 610 0 l 610 189 l 548 189 l 477 0 l 310 0 l 384 189 l 284 189 l 284 0 l 119 0 l 119 734 l 284 734 l 284 307 m 592 307 l 760 307 l 692 484 l 677 544 l 673 544 l 659 484 l 592 307 z "},"Ѫ":{"ha":1202,"x_min":90,"x_max":1113,"o":"m 773 550 q 1026 475 939 548 q 1113 241 1113 402 l 1113 0 l 948 0 l 948 241 q 905 378 948 340 q 766 416 861 416 l 694 416 l 688 405 l 688 0 l 524 0 l 524 414 l 523 416 l 436 416 q 297 378 340 416 q 254 241 254 340 l 254 0 l 90 0 l 90 241 q 178 477 90 404 q 436 550 266 550 l 444 550 l 187 987 l 1031 987 l 773 550 m 609 557 l 773 854 l 445 854 l 609 557 z "},"ѫ":{"ha":1024,"x_min":88,"x_max":936,"o":"m 88 0 l 88 115 q 158 332 88 262 q 361 412 227 403 l 174 734 l 860 734 l 671 411 q 868 330 800 400 q 936 115 936 259 l 936 0 l 771 0 l 771 115 q 735 248 771 210 q 622 285 700 285 l 597 285 l 597 283 l 597 0 l 433 0 l 433 285 l 402 285 q 288 248 323 285 q 253 115 253 211 l 253 0 l 88 0 m 517 418 l 618 615 l 416 615 l 517 418 z "},"Ѭ":{"ha":1596,"x_min":117,"x_max":1497,"o":"m 1158 550 q 1411 475 1324 548 q 1497 241 1497 402 l 1497 0 l 1333 0 l 1333 241 q 1289 378 1333 340 q 1150 416 1246 416 l 1079 416 l 1073 405 l 1073 0 l 909 0 l 909 414 l 907 416 l 821 416 q 682 378 724 416 q 639 241 639 340 l 639 0 l 474 0 l 474 241 q 512 417 474 349 l 282 417 l 282 0 l 117 0 l 117 987 l 282 987 l 282 550 l 829 550 l 572 987 l 1415 987 l 1158 550 m 994 557 l 1158 854 l 829 854 l 994 557 z "},"ѭ":{"ha":1384,"x_min":97,"x_max":1279,"o":"m 431 0 l 431 115 q 467 288 431 221 l 262 288 l 262 0 l 97 0 l 97 734 l 262 734 l 262 414 l 703 414 l 517 734 l 1203 734 l 1015 411 q 1211 330 1143 400 q 1279 115 1279 259 l 1279 0 l 1114 0 l 1114 115 q 1079 248 1114 210 q 965 285 1043 285 l 941 285 l 940 283 l 940 0 l 776 0 l 776 285 l 745 285 q 631 248 666 285 q 596 115 596 211 l 596 0 l 431 0 m 860 418 l 961 615 l 759 615 l 860 418 z "},"Ѯ":{"ha":717,"x_min":28,"x_max":636,"o":"m 271 574 q 406 612 362 574 q 449 717 449 650 q 405 815 449 778 q 276 853 361 853 l 84 853 l 84 987 l 276 987 q 521 919 429 987 q 614 724 614 850 q 572 593 614 649 q 454 508 530 538 q 589 420 542 479 q 636 277 636 361 q 545 63 636 140 q 304 -14 454 -14 l 269 -14 q 201 -33 222 -14 q 180 -84 180 -52 q 210 -154 180 -127 q 283 -200 240 -180 l 229 -304 q 84 -215 139 -276 q 28 -67 28 -153 q 90 74 28 26 q 264 121 153 121 l 299 121 q 425 163 379 121 q 471 274 471 206 q 419 397 471 355 q 269 439 368 439 l 172 439 l 172 574 l 271 574 m 372 1204 l 461 1297 l 607 1297 l 607 1285 l 425 1114 l 319 1114 l 138 1284 l 138 1297 l 282 1297 l 372 1204 z "},"ѯ":{"ha":684,"x_min":35,"x_max":613,"o":"m 276 422 q 390 448 353 422 q 427 519 427 474 q 388 584 427 559 q 276 608 350 608 l 84 608 l 84 734 l 276 734 q 505 680 418 734 q 591 527 591 625 q 558 432 591 473 q 465 368 525 391 q 575 304 536 345 q 613 206 613 263 q 529 44 613 103 q 309 -14 446 -14 l 276 -14 q 205 -33 228 -14 q 183 -84 183 -52 q 212 -154 183 -127 q 281 -200 240 -180 l 226 -299 q 90 -208 144 -268 q 35 -67 35 -148 q 95 66 35 22 q 262 111 155 111 l 294 111 q 407 138 366 111 q 448 208 448 165 q 404 283 448 258 q 274 308 359 308 l 172 308 l 172 422 l 276 422 m 323 971 l 412 1063 l 558 1063 l 558 1052 l 376 881 l 270 881 l 89 1050 l 89 1063 l 233 1063 l 323 971 z "},"Ѱ":{"ha":981,"x_min":49,"x_max":923,"o":"m 566 365 l 570 363 q 708 440 658 374 q 758 619 758 507 l 758 987 l 923 987 l 923 619 q 826 345 923 448 q 566 224 728 241 l 566 0 l 401 0 l 401 224 q 144 343 240 239 q 49 619 49 446 l 49 987 l 213 987 l 213 619 q 262 443 213 509 q 397 364 312 376 l 401 366 l 401 987 l 566 987 l 566 365 z "},"ѱ":{"ha":1004,"x_min":54,"x_max":954,"o":"m 576 734 l 576 130 l 581 129 q 739 219 688 146 q 789 393 789 292 q 766 560 787 475 q 710 734 745 645 l 871 734 q 931 579 908 665 q 954 393 954 494 q 863 119 954 231 q 576 -11 772 8 l 576 -324 l 412 -324 l 412 -9 q 147 112 240 10 q 54 402 54 214 l 54 734 l 218 734 l 218 401 q 269 211 218 277 q 408 130 320 144 l 412 132 l 412 734 l 576 734 z "},"ѵ":{"ha":704,"x_min":22,"x_max":711,"o":"m 328 248 l 339 193 l 343 193 l 355 248 l 437 551 q 518 698 468 649 q 639 747 569 747 q 678 744 661 747 q 711 732 695 741 l 695 602 q 683 605 692 604 q 665 606 673 606 q 622 588 642 606 q 593 541 602 569 l 413 0 l 270 0 l 22 734 l 192 734 l 328 248 z "},"ѷ":{"ha":704,"x_min":-16,"x_max":711,"o":"m 328 248 l 339 193 l 343 193 l 355 248 l 437 551 q 518 698 468 649 q 639 747 569 747 q 678 744 661 747 q 711 732 695 741 l 695 602 q 683 605 692 604 q 665 606 673 606 q 622 588 642 606 q 593 541 602 569 l 413 0 l 270 0 l 22 734 l 192 734 l 328 248 m 321 899 l 319 895 l 183 895 l -16 1072 l -14 1076 l 158 1076 l 321 899 m 528 895 l 396 895 l 233 1072 l 235 1076 l 399 1076 l 528 895 z "},"Ѹ":{"ha":1652,"x_min":70,"x_max":1640,"o":"m 878 405 q 764 105 878 224 q 469 -14 650 -14 q 181 105 292 -14 q 70 405 70 224 l 70 583 q 181 882 70 763 q 469 1002 292 1002 q 764 882 650 1002 q 878 583 878 763 l 878 405 m 713 584 q 647 787 713 707 q 469 866 581 866 q 297 787 360 866 q 234 584 234 707 l 234 405 q 297 200 234 280 q 469 121 360 121 q 648 200 583 121 q 713 405 713 279 l 713 584 m 1278 294 l 1295 221 l 1299 221 l 1459 734 l 1640 734 l 1336 -111 q 1254 -242 1307 -188 q 1104 -296 1201 -296 q 1060 -292 1084 -296 q 1015 -283 1037 -288 l 1034 -155 q 1059 -157 1042 -156 q 1083 -159 1075 -159 q 1155 -128 1128 -159 q 1198 -58 1181 -98 l 1225 9 l 959 734 l 1139 734 l 1278 294 z "},"ѹ":{"ha":1491,"x_min":56,"x_max":1478,"o":"m 56 374 q 146 642 56 537 q 392 747 237 747 q 640 642 550 747 q 730 374 730 538 l 730 359 q 640 90 730 194 q 393 -14 550 -14 q 146 90 236 -14 q 56 359 56 195 l 56 374 m 221 359 q 263 184 221 252 q 393 117 304 117 q 522 184 479 117 q 566 359 566 252 l 566 374 q 522 547 566 479 q 392 615 479 615 q 263 547 306 615 q 221 374 221 478 l 221 359 m 1117 294 l 1133 221 l 1137 221 l 1298 734 l 1478 734 l 1175 -111 q 1093 -242 1145 -188 q 943 -296 1040 -296 q 899 -292 922 -296 q 854 -283 876 -288 l 872 -155 q 897 -157 881 -156 q 922 -159 913 -159 q 993 -128 966 -159 q 1037 -58 1020 -98 l 1064 9 l 798 734 l 977 734 l 1117 294 z "},"Ѻ":{"ha":951,"x_min":70,"x_max":878,"o":"m 878 405 q 764 104 878 224 q 543 -9 674 11 l 543 -94 l 410 -94 l 410 -10 q 180 104 272 6 q 70 405 70 224 l 70 583 q 180 882 70 763 q 408 998 272 981 l 408 1073 l 543 1073 l 543 996 q 764 882 673 976 q 878 583 878 763 l 878 405 m 713 584 q 647 787 713 707 q 543 856 604 838 l 543 784 l 408 784 l 408 859 q 297 787 341 842 q 234 584 234 707 l 234 405 q 297 200 234 280 q 410 127 342 144 l 410 202 l 543 202 l 543 131 q 648 200 606 149 q 713 405 713 279 l 713 584 z "},"ѻ":{"ha":787,"x_min":56,"x_max":730,"o":"m 460 -81 l 326 -81 l 326 -9 q 146 90 216 9 q 56 359 56 195 l 56 374 q 146 642 56 538 q 328 743 216 724 l 328 817 l 462 817 l 462 741 q 640 642 571 723 q 730 374 730 538 l 730 359 q 640 90 730 194 q 460 -9 570 9 l 460 -81 m 221 359 q 263 184 221 252 q 326 130 287 146 l 326 201 l 460 201 l 460 130 q 522 184 498 146 q 566 359 566 252 l 566 374 q 522 547 566 479 q 462 601 498 584 l 462 539 l 328 539 l 328 603 q 263 547 288 587 q 221 374 221 479 l 221 359 z "},"Ҁ":{"ha":888,"x_min":72,"x_max":818,"o":"m 553 -254 l 389 -254 l 389 -9 q 158 124 245 12 q 72 399 72 236 l 72 587 q 177 885 72 768 q 452 1002 281 1002 q 720 913 623 1002 q 815 669 818 824 l 814 665 l 654 665 q 604 817 654 764 q 452 869 553 869 q 294 790 351 869 q 236 589 236 710 l 236 399 q 294 197 236 277 q 452 117 351 117 l 553 117 l 553 -254 z "},"ҁ":{"ha":745,"x_min":62,"x_max":684,"o":"m 492 -254 l 327 -254 l 327 -9 q 132 114 201 13 q 62 355 62 215 l 62 378 q 150 642 62 536 q 392 747 237 747 q 603 670 521 747 q 682 475 684 593 l 680 471 l 530 471 q 492 573 530 531 q 392 615 453 615 q 268 546 308 615 q 227 378 227 477 l 227 355 q 267 185 227 254 q 393 117 307 117 l 492 117 l 492 -254 z "},"҂":{"ha":867,"x_min":74,"x_max":794,"o":"m 409 304 l 605 188 l 556 101 l 359 216 l 236 0 l 117 0 l 270 270 l 74 386 l 122 473 l 321 357 l 458 601 l 261 717 l 311 805 l 508 689 l 633 910 l 750 910 l 595 635 l 794 519 l 743 433 l 547 549 l 409 304 z "},"҃":{"ha":714,"x_min":106,"x_max":597,"o":"m 227 890 l 227 804 l 106 805 l 107 966 l 477 966 l 477 1040 l 597 1039 l 597 890 l 227 890 z "},"҄":{"ha":742,"x_min":124,"x_max":641,"o":"m 147 975 q 327 1015 224 975 q 479 1056 430 1056 q 598 1019 556 1056 q 641 909 641 983 l 641 884 l 549 884 l 549 896 q 529 948 549 930 q 477 965 509 965 q 342 924 448 965 q 149 884 237 884 l 124 884 l 124 975 l 147 975 z "},"҅":{"ha":439,"x_min":134,"x_max":301,"o":"m 134 1017 l 134 1107 l 262 1107 l 261 1005 l 301 929 l 245 883 l 134 1017 z "},"҆":{"ha":467,"x_min":144,"x_max":311,"o":"m 199 883 l 144 929 l 183 1005 l 182 1107 l 311 1107 l 311 1017 l 199 883 z "},"҈":{"ha":1405,"x_min":39,"x_max":1358,"o":"m 551 859 l 550 863 q 585 952 547 917 q 688 987 623 987 q 792 952 753 987 q 827 863 830 917 l 826 859 l 755 859 q 739 908 755 888 q 688 928 722 928 q 638 908 654 928 q 623 859 623 888 l 551 859 m 952 671 l 951 675 q 986 764 947 728 q 1089 799 1024 799 q 1193 764 1154 799 q 1229 675 1232 729 l 1227 671 l 1156 671 q 1140 721 1156 701 q 1089 740 1124 740 q 1040 720 1055 740 q 1024 671 1024 701 l 952 671 m 1079 330 l 1078 334 q 1113 422 1074 387 q 1216 458 1151 458 q 1319 423 1281 458 q 1355 334 1358 388 l 1354 330 l 1283 330 q 1267 379 1283 360 q 1216 399 1251 399 q 1166 379 1182 399 q 1150 330 1150 359 l 1079 330 m 945 -22 l 944 -18 q 979 71 941 35 q 1082 106 1017 106 q 1186 71 1147 106 q 1221 -18 1224 36 l 1220 -22 l 1149 -22 q 1133 27 1149 8 q 1082 47 1117 47 q 1033 27 1048 47 q 1017 -22 1017 7 l 945 -22 m 555 -214 l 553 -210 q 588 -121 550 -156 q 692 -87 626 -87 q 795 -121 757 -87 q 831 -210 833 -156 l 829 -214 l 759 -214 q 742 -165 759 -184 q 692 -146 726 -146 q 642 -165 658 -146 q 626 -214 626 -184 l 555 -214 m 163 671 l 161 675 q 196 764 158 729 q 300 799 235 799 q 404 764 366 799 q 439 675 442 729 l 438 671 l 368 671 q 351 720 368 701 q 300 740 334 740 q 251 720 267 740 q 235 671 235 701 l 163 671 m 43 330 l 42 334 q 77 422 39 387 q 180 458 115 458 q 284 423 245 458 q 319 334 322 388 l 318 330 l 248 330 q 231 379 248 360 q 180 399 215 399 q 131 379 146 399 q 115 330 115 359 l 43 330 m 156 -22 l 155 -18 q 190 71 151 35 q 293 106 228 106 q 397 71 358 106 q 433 -18 435 36 l 431 -22 l 360 -22 q 344 27 360 8 q 293 47 328 47 q 243 27 259 47 q 228 -22 228 7 l 156 -22 z "},"҉":{"ha":1359,"x_min":51,"x_max":1310,"o":"m 747 -41 l 755 -50 l 672 -280 l 607 -280 l 654 -41 l 747 -41 m 615 764 l 607 773 l 690 1002 l 755 1002 l 707 764 l 615 764 m 1075 428 l 1084 436 l 1310 352 l 1310 286 l 1075 334 l 1075 428 m 286 294 l 277 286 l 51 370 l 51 436 l 286 388 l 286 294 m 912 680 l 913 690 l 1131 794 l 1177 748 q 978 612 1152 732 l 912 680 m 448 14 l 447 3 l 230 -101 l 183 -54 l 382 81 l 448 14 m 353 583 l 342 585 l 241 806 l 286 852 l 420 650 l 353 583 m 1006 109 l 1017 108 l 1118 -113 l 1074 -161 l 940 42 l 1006 109 z "},"Ҋ":{"ha":983,"x_min":104,"x_max":1019,"o":"m 711 987 l 876 987 l 876 0 l 711 0 l 711 707 l 707 708 l 269 0 l 104 0 l 104 987 l 269 987 l 269 281 l 273 280 l 711 987 m 705 1278 l 707 1274 q 650 1138 709 1190 q 492 1086 591 1086 q 332 1138 391 1086 q 277 1274 273 1190 l 279 1278 l 401 1278 q 423 1213 401 1238 q 492 1188 445 1188 q 559 1213 537 1188 q 582 1278 582 1238 l 705 1278 m 1019 -5 l 914 -217 l 810 -217 l 857 1 l 857 135 l 1019 135 l 1019 -5 z "},"ҋ":{"ha":787,"x_min":85,"x_max":845,"o":"m 537 734 l 701 734 l 701 0 l 537 0 l 537 487 l 533 488 l 250 0 l 85 0 l 85 734 l 250 734 l 250 248 l 254 246 l 537 734 m 607 1045 l 609 1041 q 553 905 612 958 q 394 853 494 853 q 235 905 294 853 q 179 1041 176 958 l 181 1045 l 303 1045 q 325 981 303 1006 q 394 956 347 956 q 462 981 439 956 q 484 1045 484 1006 l 607 1045 m 845 -5 l 740 -217 l 635 -217 l 683 1 l 683 135 l 845 135 l 845 -5 z "},"Ҍ":{"ha":873,"x_min":-28,"x_max":825,"o":"m 416 743 l 265 743 l 265 621 l 474 621 q 732 536 638 621 q 825 313 825 451 q 731 87 825 174 q 474 0 637 0 l 100 0 l 100 743 l -28 743 l -28 858 l 100 858 l 100 987 l 265 987 l 265 858 l 416 858 l 416 743 m 265 489 l 265 132 l 474 132 q 613 184 566 132 q 661 314 661 237 q 613 438 661 388 q 474 489 566 489 l 265 489 z "},"Ґ":{"ha":766,"x_min":96,"x_max":730,"o":"m 730 855 l 261 855 l 261 0 l 96 0 l 96 987 l 565 987 l 565 1226 l 730 1226 l 730 855 z "},"ґ":{"ha":631,"x_min":85,"x_max":583,"o":"m 583 601 l 250 601 l 250 0 l 85 0 l 85 734 l 418 734 l 418 947 l 583 947 l 583 601 z "},"Ғ":{"ha":774,"x_min":-6,"x_max":732,"o":"m 438 455 l 273 455 l 273 0 l 108 0 l 108 455 l -6 455 l -6 570 l 108 570 l 108 987 l 732 987 l 732 855 l 273 855 l 273 570 l 438 570 l 438 455 z "},"ғ":{"ha":578,"x_min":-20,"x_max":568,"o":"m 424 315 l 250 315 l 250 0 l 85 0 l 85 315 l -20 315 l -20 431 l 85 431 l 85 734 l 568 734 l 568 601 l 250 601 l 250 431 l 424 431 l 424 315 z "},"Қ":{"ha":895,"x_min":108,"x_max":938,"o":"m 387 427 l 273 427 l 273 0 l 108 0 l 108 987 l 273 987 l 273 569 l 367 569 l 677 987 l 872 987 l 513 516 l 900 0 l 699 0 l 387 427 m 938 -243 l 773 -243 l 773 136 l 938 136 l 938 -243 z "},"қ":{"ha":756,"x_min":96,"x_max":803,"o":"m 345 290 l 260 290 l 260 0 l 96 0 l 96 734 l 260 734 l 260 441 l 334 441 l 536 734 l 740 734 l 474 382 l 762 0 l 548 0 l 345 290 m 803 -243 l 638 -243 l 638 136 l 803 136 l 803 -243 z "},"Ҝ":{"ha":897,"x_min":100,"x_max":898,"o":"m 871 987 l 607 527 l 898 0 l 690 0 l 482 426 l 437 426 l 437 267 l 326 267 l 326 426 l 265 426 l 265 0 l 100 0 l 100 987 l 265 987 l 265 568 l 326 568 l 326 740 l 437 740 l 437 568 l 477 568 l 673 987 l 871 987 z "},"ҝ":{"ha":783,"x_min":96,"x_max":785,"o":"m 768 734 l 553 385 l 785 0 l 576 0 l 429 290 l 411 290 l 411 170 l 306 170 l 306 290 l 260 290 l 260 0 l 96 0 l 96 734 l 260 734 l 260 441 l 306 441 l 306 576 l 411 576 l 411 441 l 424 441 l 564 734 l 768 734 z "},"Ҟ":{"ha":909,"x_min":-24,"x_max":913,"o":"m 400 427 l 286 427 l 286 0 l 121 0 l 121 777 l -24 777 l -24 892 l 121 892 l 121 987 l 286 987 l 286 892 l 420 892 l 420 777 l 286 777 l 286 569 l 380 569 l 690 987 l 886 987 l 526 516 l 913 0 l 712 0 l 400 427 z "},"ҟ":{"ha":741,"x_min":-35,"x_max":749,"o":"m 339 321 l 265 321 l 265 0 l 101 0 l 101 821 l -35 821 l -35 937 l 101 937 l 101 1058 l 265 1058 l 265 937 l 409 937 l 409 821 l 265 821 l 265 453 l 334 453 l 519 734 l 713 734 l 471 400 l 749 0 l 557 0 l 339 321 z "},"Ң":{"ha":987,"x_min":108,"x_max":989,"o":"m 879 0 l 715 0 l 715 421 l 273 421 l 273 0 l 108 0 l 108 987 l 273 987 l 273 553 l 715 553 l 715 987 l 879 987 l 879 0 m 989 -243 l 825 -243 l 825 136 l 989 136 l 989 -243 z "},"ң":{"ha":787,"x_min":85,"x_max":811,"o":"m 701 0 l 536 0 l 536 296 l 250 296 l 250 0 l 85 0 l 85 734 l 250 734 l 250 428 l 536 428 l 536 734 l 701 734 l 701 0 m 811 -243 l 646 -243 l 646 136 l 811 136 l 811 -243 z "},"Ҥ":{"ha":1357,"x_min":108,"x_max":1305,"o":"m 273 553 l 715 553 l 715 987 l 1305 987 l 1305 855 l 879 855 l 879 0 l 715 0 l 715 421 l 273 421 l 273 0 l 108 0 l 108 987 l 273 987 l 273 553 z "},"ҥ":{"ha":984,"x_min":85,"x_max":938,"o":"m 250 428 l 536 428 l 536 734 l 938 734 l 938 601 l 701 601 l 701 0 l 536 0 l 536 296 l 250 296 l 250 0 l 85 0 l 85 734 l 250 734 l 250 428 z "},"Ҭ":{"ha":804,"x_min":21,"x_max":783,"o":"m 783 855 l 484 855 l 484 0 l 319 0 l 319 855 l 21 855 l 21 987 l 783 987 l 783 855 m 595 -243 l 430 -243 l 430 136 l 595 136 l 595 -243 z "},"ҭ":{"ha":718,"x_min":41,"x_max":679,"o":"m 679 603 l 440 603 l 440 0 l 275 0 l 275 603 l 41 603 l 41 734 l 679 734 l 679 603 m 551 -243 l 386 -243 l 386 136 l 551 136 l 551 -243 z "},"Ү":{"ha":861,"x_min":9,"x_max":852,"o":"m 430 507 l 669 987 l 852 987 l 510 347 l 510 0 l 346 0 l 346 355 l 9 987 l 193 987 l 430 507 z "},"ү":{"ha":705,"x_min":22,"x_max":687,"o":"m 517 734 l 687 734 l 437 28 l 437 -283 l 273 -283 l 273 31 l 22 734 l 192 734 l 342 248 l 354 188 l 358 188 l 371 248 l 517 734 z "},"Ұ":{"ha":861,"x_min":9,"x_max":852,"o":"m 430 507 l 669 987 l 852 987 l 576 470 l 649 470 l 649 355 l 514 355 l 510 347 l 510 0 l 346 0 l 346 355 l 205 355 l 205 470 l 285 470 l 9 987 l 193 987 l 430 507 z "},"ұ":{"ha":705,"x_min":22,"x_max":687,"o":"m 581 -1 l 437 -1 l 437 -283 l 273 -283 l 273 -1 l 137 -1 l 137 115 l 242 115 l 22 734 l 192 734 l 342 248 l 354 189 l 358 189 l 371 248 l 517 734 l 687 734 l 467 115 l 581 115 l 581 -1 z "},"Ҳ":{"ha":882,"x_min":34,"x_max":873,"o":"m 441 623 l 649 987 l 844 987 l 541 498 l 856 0 l 658 0 l 444 371 l 229 0 l 34 0 l 345 498 l 41 987 l 235 987 l 441 623 m 873 -243 l 709 -243 l 709 136 l 873 136 l 873 -243 z "},"ҳ":{"ha":704,"x_min":22,"x_max":714,"o":"m 350 482 l 486 734 l 675 734 l 444 371 l 682 0 l 494 0 l 353 258 l 211 0 l 22 0 l 260 371 l 29 734 l 216 734 l 350 482 m 714 -243 l 549 -243 l 549 136 l 714 136 l 714 -243 z "},"Ҵ":{"ha":1252,"x_min":34,"x_max":1176,"o":"m 259 854 l 34 854 l 34 987 l 259 987 l 259 987 l 423 987 l 423 987 l 683 987 l 683 854 l 423 854 l 423 132 l 866 132 l 866 987 l 1031 987 l 1031 138 l 1176 138 l 1176 -240 l 1011 -240 l 1011 0 l 259 0 l 259 854 z "},"ҵ":{"ha":966,"x_min":26,"x_max":906,"o":"m 192 602 l 26 602 l 26 734 l 506 734 l 506 602 l 357 602 l 357 132 l 643 132 l 643 734 l 808 734 l 808 132 l 906 132 l 906 -241 l 741 -241 l 741 0 l 192 0 l 192 602 z "},"Ҷ":{"ha":960,"x_min":97,"x_max":963,"o":"m 852 987 l 852 0 l 688 0 l 688 391 q 575 370 635 377 q 452 362 516 362 q 189 438 280 362 q 97 676 97 513 l 97 987 l 262 987 l 262 676 q 307 534 262 573 q 452 495 351 495 q 570 503 509 495 q 688 525 632 511 l 688 987 l 852 987 m 963 -243 l 798 -243 l 798 136 l 963 136 l 963 -243 z "},"ҷ":{"ha":772,"x_min":79,"x_max":798,"o":"m 687 0 l 522 0 l 522 245 q 455 234 490 237 q 387 230 421 230 q 160 300 241 230 q 79 509 79 370 l 79 734 l 243 734 l 243 509 q 278 397 243 431 q 387 363 313 363 q 456 367 423 363 q 522 378 489 370 l 522 734 l 687 734 l 687 0 m 798 -243 l 633 -243 l 633 136 l 798 136 l 798 -243 z "},"Ҹ":{"ha":947,"x_min":97,"x_max":852,"o":"m 852 987 l 852 0 l 688 0 l 688 391 q 575 370 635 377 q 552 367 564 368 l 552 203 l 441 203 l 441 362 q 189 437 277 364 q 97 676 97 513 l 97 987 l 262 987 l 262 676 q 307 534 262 573 q 441 495 349 497 l 441 699 l 552 699 l 552 500 q 570 503 561 502 q 688 525 632 511 l 688 987 l 852 987 z "},"ҹ":{"ha":772,"x_min":79,"x_max":687,"o":"m 687 0 l 522 0 l 522 245 q 455 233 490 237 q 443 232 449 233 l 443 138 l 332 138 l 332 233 q 159 300 224 243 q 79 509 79 370 l 79 734 l 243 734 l 243 509 q 277 397 243 431 q 332 368 298 377 l 332 550 l 443 550 l 443 365 q 456 366 450 366 q 522 378 489 370 l 522 734 l 687 734 l 687 0 z "},"Һ":{"ha":960,"x_min":74,"x_max":829,"o":"m 74 0 l 74 987 l 239 987 l 239 595 q 351 617 292 610 q 475 625 410 625 q 738 549 646 625 q 829 311 829 473 l 829 0 l 665 0 l 665 311 q 620 453 665 414 q 475 492 574 492 q 355 484 417 492 q 239 463 293 476 l 239 0 l 74 0 z "},"һ":{"ha":772,"x_min":83,"x_max":692,"o":"m 83 735 l 248 735 l 248 490 q 315 502 281 498 q 383 505 349 505 q 611 435 530 505 q 692 226 692 366 l 692 1 l 528 1 l 528 226 q 493 338 528 305 q 383 372 458 372 q 314 369 347 372 q 248 357 281 365 l 248 1 l 83 1 l 83 735 z "},"Ҽ":{"ha":1161,"x_min":22,"x_max":1061,"o":"m 724 -16 q 371 115 497 -16 q 240 462 245 245 q 78 548 134 477 q 24 730 22 619 l 26 734 l 142 734 q 168 633 142 673 q 244 580 193 593 q 381 884 264 767 q 660 1000 498 1001 q 958 878 854 1000 q 1061 542 1061 755 l 1061 452 l 411 452 l 409 448 q 489 212 412 302 q 724 122 567 122 q 854 136 798 122 q 964 172 911 150 l 997 44 q 892 4 962 23 q 724 -16 823 -16 m 660 862 q 489 783 554 862 q 412 580 424 704 l 413 576 l 897 576 l 897 597 q 841 790 897 718 q 660 862 785 862 z "},"ҽ":{"ha":827,"x_min":-34,"x_max":763,"o":"m 475 -14 q 229 85 321 -14 q 134 340 137 184 q 9 427 52 363 q -34 588 -34 491 l 81 588 q 96 510 81 543 q 142 459 111 477 q 251 668 164 588 q 456 747 337 747 q 684 657 605 747 q 763 416 763 568 l 763 319 l 305 319 l 304 316 q 355 173 308 229 q 486 117 402 117 q 600 134 552 117 q 691 180 647 150 l 744 73 q 634 11 703 36 q 475 -14 566 -14 m 456 615 q 356 567 395 615 q 307 444 317 518 l 309 440 l 600 440 l 600 457 q 564 571 600 527 q 456 615 528 615 z "},"Ӏ":{"ha":399,"x_min":117,"x_max":282,"o":"m 282 0 l 117 0 l 117 987 l 282 987 l 282 0 z "},"Ӆ":{"ha":983,"x_min":31,"x_max":1019,"o":"m 875 987 l 875 0 l 710 0 l 710 855 l 390 855 l 390 530 q 312 125 390 251 q 64 0 235 0 l 31 0 l 31 132 l 58 132 q 189 221 152 132 q 226 530 226 311 l 226 987 l 875 987 m 1019 -5 l 913 -217 l 809 -217 l 857 1 l 857 135 l 1019 135 l 1019 -5 z "},"ӆ":{"ha":774,"x_min":15,"x_max":845,"o":"m 701 734 l 701 0 l 537 0 l 537 601 l 323 601 l 323 421 q 262 102 323 204 q 50 0 200 0 l 15 0 l 16 139 l 40 139 q 134 201 110 139 q 159 421 159 264 l 159 734 l 701 734 m 845 -5 l 740 -217 l 635 -217 l 683 1 l 683 135 l 845 135 l 845 -5 z "},"Ӈ":{"ha":987,"x_min":108,"x_max":879,"o":"m 273 987 l 273 553 l 715 553 l 715 987 l 879 987 l 879 -43 q 815 -230 879 -164 q 640 -296 752 -296 q 595 -294 616 -296 q 554 -285 575 -291 l 564 -155 q 595 -161 575 -159 q 630 -164 616 -164 q 692 -132 670 -164 q 715 -43 715 -100 l 715 421 l 273 421 l 273 0 l 108 0 l 108 987 l 273 987 z "},"ӈ":{"ha":787,"x_min":85,"x_max":701,"o":"m 250 734 l 250 428 l 536 428 l 536 734 l 701 734 l 701 -43 q 637 -230 701 -164 q 461 -296 574 -296 q 417 -294 437 -296 q 375 -285 397 -291 l 385 -155 q 416 -161 396 -159 q 452 -164 437 -164 q 513 -132 491 -164 q 536 -43 536 -100 l 536 296 l 250 296 l 250 0 l 85 0 l 85 734 l 250 734 z "},"Ӊ":{"ha":987,"x_min":108,"x_max":1023,"o":"m 879 0 l 715 0 l 715 421 l 273 421 l 273 0 l 108 0 l 108 987 l 273 987 l 273 553 l 715 553 l 715 987 l 879 987 l 879 0 m 1023 -5 l 918 -217 l 813 -217 l 861 1 l 861 135 l 1023 135 l 1023 -5 z "},"ӊ":{"ha":787,"x_min":85,"x_max":844,"o":"m 701 0 l 536 0 l 536 296 l 250 296 l 250 0 l 85 0 l 85 734 l 250 734 l 250 428 l 536 428 l 536 734 l 701 734 l 701 0 m 844 -5 l 739 -217 l 635 -217 l 682 1 l 682 135 l 844 135 l 844 -5 z "},"Ӌ":{"ha":960,"x_min":97,"x_max":852,"o":"m 852 987 l 852 0 l 688 0 l 688 391 q 575 370 635 377 q 452 362 516 362 q 189 438 280 362 q 97 676 97 513 l 97 987 l 262 987 l 262 676 q 307 534 262 573 q 452 495 351 495 q 570 503 509 495 q 688 525 632 511 l 688 987 l 852 987 m 738 -243 l 573 -243 l 573 136 l 738 136 l 738 -243 z "},"ӌ":{"ha":772,"x_min":79,"x_max":687,"o":"m 687 0 l 522 0 l 522 245 q 455 234 490 237 q 387 230 421 230 q 160 300 241 230 q 79 509 79 370 l 79 734 l 243 734 l 243 509 q 278 397 243 431 q 387 363 313 363 q 456 367 423 363 q 522 378 489 370 l 522 734 l 687 734 l 687 0 m 572 -243 l 408 -243 l 408 136 l 572 136 l 572 -243 z "}}}
